<svg xmlns="http://www.w3.org/2000/svg" viewBox="0 0 776.7 555.4"><defs><style>.cls-1{isolation:isolate;}.cls-2{fill:#d1cfe0;}.cls-3{fill:#acabb9;}.cls-4{fill:#bf3c3c;}.cls-5{fill:#ea4a49;}.cls-6{fill:#fff;}.cls-7{fill:#343038;}.cls-8{fill:#c21e1d;}.cls-10,.cls-17,.cls-19,.cls-25,.cls-9{fill:#1d1d1b;}.cls-9{opacity:0.15;}.cls-10,.cls-22,.cls-9{mix-blend-mode:multiply;}.cls-10,.cls-25{opacity:0.2;}.cls-11{fill:#fce9c7;}.cls-12{fill:#ffae80;}.cls-13{fill:#5589b9;}.cls-14{fill:#ff9d6d;}.cls-15{fill:#21201d;}.cls-16{fill:#2f2e29;}.cls-18{fill:#3c3c3b;}.cls-19{opacity:0.5;}.cls-20{fill:#e6dcdc;}.cls-21{opacity:0.07;}.cls-22,.cls-29{fill:#456f96;}.cls-22{opacity:0.3;}.cls-23{fill:#bfb097;}.cls-24{fill:#cbbba0;}.cls-26{fill:#212121;}.cls-27{fill:#16191e;}.cls-28{fill:#ebb677;}</style></defs><title>Asset 1</title><g class="cls-1"><g id="Layer_2" data-name="Layer 2"><g id="Layer_1-2" data-name="Layer 1"><polygon class="cls-2" points="616.68 542.19 11.76 542.19 91.77 123.84 696.69 123.84 616.68 542.19"/><polygon class="cls-3" points="696.69 123.84 776.7 542.18 616.68 542.18 696.69 123.84"/><polygon class="cls-4" points="607.25 526.6 34.52 526.6 111.55 123.84 684.28 123.84 607.25 526.6"/><polygon class="cls-5" points="602.62 523.25 29.89 523.25 106.92 120.5 679.65 120.5 602.62 523.25"/><polygon class="cls-4" points="597.99 520.33 25.26 520.33 102.29 117.58 675.02 117.58 597.99 520.33"/><polygon class="cls-5" points="671.07 114.65 594.04 517.4 21.34 517.4 98.36 114.65 671.07 114.65"/><polygon class="cls-6" points="195.68 228.9 130.08 228.9 142.62 163.29 208.23 163.29 195.68 228.9"/><path class="cls-5" d="M196.12,229.45H129.43l12.75-66.7h66.7Zm-65.39-1.1h64.51l12.34-64.51H143.07Z"/><path class="cls-7" d="M194,173.74l-1.14,1.32a.89.89,0,0,1-.56.26.54.54,0,0,1-.5-.25.84.84,0,0,1-.09-.59,1.27,1.27,0,0,1,.23-.47,1.3,1.3,0,0,1,.37-.37L195,171a2.18,2.18,0,0,1,.31-.22.79.79,0,0,1,.38-.09.92.92,0,0,1,.58.19.49.49,0,0,1,.17.52l-3.09,16.17a.78.78,0,0,1-.41.54,1.62,1.62,0,0,1-.74.18,1.16,1.16,0,0,1-.66-.18.47.47,0,0,1-.21-.54Z"/><polygon class="cls-6" points="261.29 228.9 195.68 228.9 208.23 163.29 273.83 163.29 261.29 228.9"/><path class="cls-5" d="M261.73,229.45H195l12.76-66.7h66.69Zm-65.4-1.1h64.51l12.34-64.51H208.67Z"/><path class="cls-7" d="M252.51,174.84a4.48,4.48,0,0,1,.69-1.67,5.37,5.37,0,0,1,1.26-1.3,6,6,0,0,1,3.53-1.14,5,5,0,0,1,1.88.35,3.47,3.47,0,0,1,2.15,2.46,4.39,4.39,0,0,1,0,1.88,5.38,5.38,0,0,1-1,2.32,10.67,10.67,0,0,1-1.82,1.86,17.89,17.89,0,0,1-2.21,1.55c-.78.48-1.5.93-2.18,1.38a13.33,13.33,0,0,0-1.72,1.32,2.53,2.53,0,0,0-.85,1.41l-.24,1.22h7.38a.48.48,0,0,1,.45.27.93.93,0,0,1,.08.65,1.33,1.33,0,0,1-.33.63.73.73,0,0,1-.55.28h-8.56a1,1,0,0,1-.56-.19.5.5,0,0,1-.22-.53l.45-2.33a3.8,3.8,0,0,1,.94-1.82,12.15,12.15,0,0,1,1.78-1.59q1-.75,2.22-1.47a24.88,24.88,0,0,0,2.21-1.46,11.23,11.23,0,0,0,1.79-1.6,3.75,3.75,0,0,0,.94-1.83,2.91,2.91,0,0,0,0-1,2.41,2.41,0,0,0-.37-.94,2,2,0,0,0-.78-.67,2.76,2.76,0,0,0-1.25-.25,3.51,3.51,0,0,0-2.06.63,3,3,0,0,0-1.16,2,.91.91,0,0,1-.39.56,1.33,1.33,0,0,1-.82.24.74.74,0,0,1-.63-.25A1.26,1.26,0,0,1,252.51,174.84Z"/><polygon class="cls-6" points="326.89 228.9 261.29 228.9 273.83 163.29 339.44 163.29 326.89 228.9"/><path class="cls-5" d="M327.33,229.45H260.64l12.75-66.7h66.7Zm-65.39-1.1h64.51l12.34-64.51H274.28Z"/><path class="cls-7" d="M320.14,186.63a3.92,3.92,0,0,0,2.56-.8,4.17,4.17,0,0,0,1.3-2.52l.08-.46a2.28,2.28,0,0,0-.44-2.26,3.22,3.22,0,0,0-2.22-.68c-.26,0-.42-.08-.49-.24a1,1,0,0,1,0-.59,1.22,1.22,0,0,1,.26-.58.72.72,0,0,1,.6-.27,5.35,5.35,0,0,0,1.18-.12,2.48,2.48,0,0,0,1-.44,2.61,2.61,0,0,0,.73-.89,5.57,5.57,0,0,0,.47-1.43,2.66,2.66,0,0,0-.26-2.15,2.32,2.32,0,0,0-1.9-.67,4.26,4.26,0,0,0-1.43.22,2.9,2.9,0,0,0-1,.56,2.34,2.34,0,0,0-.57.74,2.89,2.89,0,0,0-.28.79,1.08,1.08,0,0,1-.34.65,1.13,1.13,0,0,1-.79.24q-.65,0-.81-.21a1.14,1.14,0,0,1-.05-.82,4.92,4.92,0,0,1,.45-1.23,4.67,4.67,0,0,1,1-1.3,5.75,5.75,0,0,1,1.69-1,7.4,7.4,0,0,1,4.29-.19,3,3,0,0,1,1.32.73,2.52,2.52,0,0,1,.69,1.31,4.6,4.6,0,0,1,0,2,6.28,6.28,0,0,1-1.05,2.61,4.12,4.12,0,0,1-1.67,1.43,3.23,3.23,0,0,1,1.5,1.35,3.59,3.59,0,0,1,.22,2.48l-.08.46a7,7,0,0,1-.87,2.39,5.65,5.65,0,0,1-1.43,1.59,5.76,5.76,0,0,1-1.85.89,7.52,7.52,0,0,1-2.08.28,5.59,5.59,0,0,1-2.24-.39,3.79,3.79,0,0,1-1.4-1,3,3,0,0,1-.67-1.31,3.41,3.41,0,0,1,0-1.42,1.2,1.2,0,0,1,.36-.75,1.22,1.22,0,0,1,.76-.19,1.09,1.09,0,0,1,.79.2.74.74,0,0,1,.09.59,2.21,2.21,0,0,0,0,.81,1.8,1.8,0,0,0,.39.78,2.15,2.15,0,0,0,.86.59A3.85,3.85,0,0,0,320.14,186.63Z"/><polygon class="cls-6" points="392.5 228.9 326.89 228.9 339.44 163.29 405.04 163.29 392.5 228.9"/><path class="cls-5" d="M392.94,229.45h-66.7L339,162.75h66.69Zm-65.4-1.1h64.51l12.34-64.51H339.88Z"/><path class="cls-7" d="M388.22,184.27h-6a.58.58,0,0,1-.5-.22.71.71,0,0,1-.09-.57,1,1,0,0,1,.2-.46L390,171.3a1.24,1.24,0,0,1,1-.57,1,1,0,0,1,.59.22.54.54,0,0,1,.24.57.87.87,0,0,1-.16.34l-7.28,10.49h4.17l.77-4a.69.69,0,0,1,.41-.53,1.66,1.66,0,0,1,.73-.17,1.31,1.31,0,0,1,.67.17.48.48,0,0,1,.21.53l-.78,4h1.28a.46.46,0,0,1,.48.3,1.12,1.12,0,0,1,.06.66,1.47,1.47,0,0,1-.33.66.77.77,0,0,1-.58.3h-1.27l-.64,3.32a.73.73,0,0,1-.41.54,1.58,1.58,0,0,1-.73.18,1.22,1.22,0,0,1-.67-.18.5.5,0,0,1-.21-.54Z"/><polygon class="cls-6" points="458.1 228.9 392.5 228.9 405.04 163.29 470.65 163.29 458.1 228.9"/><path class="cls-5" d="M458.54,229.45h-66.7l12.76-66.7h66.7Zm-65.39-1.1h64.51L470,163.84H405.48Z"/><path class="cls-7" d="M453.37,177.82a6.87,6.87,0,0,1,2,.27,3.37,3.37,0,0,1,1.48.87,3.13,3.13,0,0,1,.8,1.53,5.53,5.53,0,0,1,0,2.32l-.09.45a7.42,7.42,0,0,1-.85,2.41,5.56,5.56,0,0,1-1.42,1.61,5.63,5.63,0,0,1-1.82.9,7.44,7.44,0,0,1-2.07.28,6.18,6.18,0,0,1-2.15-.34,3.65,3.65,0,0,1-1.45-.92,3,3,0,0,1-.76-1.32,3.52,3.52,0,0,1-.05-1.59,1.09,1.09,0,0,1,.43-.75,1.34,1.34,0,0,1,.77-.2c.39,0,.64.07.75.22a.68.68,0,0,1,.1.59,1.76,1.76,0,0,0,.57,1.84,3.22,3.22,0,0,0,2.11.64,3.81,3.81,0,0,0,2.49-.82,4.2,4.2,0,0,0,1.33-2.55l.09-.45a2.9,2.9,0,0,0-.37-2.49,2.63,2.63,0,0,0-2.15-.81h-3.42c-.36,0-.6-.08-.7-.23a.76.76,0,0,1-.09-.57,4.85,4.85,0,0,1,.15-.52l1.8-6.74a1.25,1.25,0,0,1,.26-.53.55.55,0,0,1,.41-.19h6.93a.41.41,0,0,1,.43.29,1.17,1.17,0,0,1,0,.62,1.63,1.63,0,0,1-.28.63.65.65,0,0,1-.54.29h-5.71L451,177.82Z"/><polygon class="cls-6" points="523.7 228.9 458.1 228.9 470.65 163.29 536.25 163.29 523.7 228.9"/><path class="cls-5" d="M524.15,229.45h-66.7l12.76-66.7H536.9Zm-65.4-1.1h64.51l12.34-64.51H471.09Z"/><path class="cls-7" d="M519,177.85a6.69,6.69,0,0,1,1.85.24,3.17,3.17,0,0,1,1.38.8,3,3,0,0,1,.75,1.49,6,6,0,0,1-.07,2.32l-.1.51a7.52,7.52,0,0,1-.86,2.44,5.29,5.29,0,0,1-3.23,2.53,7.57,7.57,0,0,1-2.08.28,6.54,6.54,0,0,1-2-.28,3.46,3.46,0,0,1-1.49-.9,3.25,3.25,0,0,1-.79-1.63,6.19,6.19,0,0,1,.07-2.44l1.38-7.24a7.3,7.3,0,0,1,.88-2.44,5.59,5.59,0,0,1,1.41-1.62A5.37,5.37,0,0,1,518,171a8.28,8.28,0,0,1,2.15-.27,5.63,5.63,0,0,1,2.14.36,3.69,3.69,0,0,1,1.41.95,3,3,0,0,1,.71,1.35,3.54,3.54,0,0,1,0,1.52,1,1,0,0,1-.37.7,1.27,1.27,0,0,1-.74.19,1.39,1.39,0,0,1-.7-.16.57.57,0,0,1-.21-.63,1.81,1.81,0,0,0,0-1,1.87,1.87,0,0,0-.53-.77,2.45,2.45,0,0,0-.9-.5,4.15,4.15,0,0,0-1.2-.16,3.83,3.83,0,0,0-2.51.83,4.21,4.21,0,0,0-1.34,2.58l-.64,3.37A4.54,4.54,0,0,1,517,178.2,5.85,5.85,0,0,1,519,177.85Zm-4.55,5.46a3.1,3.1,0,0,0,.34,2.6,2.71,2.71,0,0,0,2.18.82,3.8,3.8,0,0,0,2.48-.82,4.3,4.3,0,0,0,1.32-2.6l.1-.5a2.86,2.86,0,0,0-.35-2.53,2.8,2.8,0,0,0-2.17-.75,4.14,4.14,0,0,0-2.45.7,3.51,3.51,0,0,0-1.31,2.36Z"/><polygon class="cls-6" points="589.31 228.9 523.7 228.9 536.25 163.29 601.86 163.29 589.31 228.9"/><path class="cls-5" d="M589.75,229.45h-66.7l12.76-66.7h66.7Zm-65.39-1.1h64.51l12.34-64.51H536.69Z"/><path class="cls-5" d="M590.88,173.69a1.53,1.53,0,0,1-.19.49,3.55,3.55,0,0,1-.35.54L581,188a.8.8,0,0,1-.71.33,1.17,1.17,0,0,1-.8-.27.64.64,0,0,1-.24-.69,1,1,0,0,1,.17-.41l9.43-13.06.26-1.37h-6.33l-.48,2.52a.78.78,0,0,1-.4.52,1.41,1.41,0,0,1-.75.2,1,1,0,0,1-.67-.2.51.51,0,0,1-.2-.52l.69-3.63a.82.82,0,0,1,.38-.49,1.23,1.23,0,0,1,.67-.23h8.55a.84.84,0,0,1,.56.23.5.5,0,0,1,.21.49Z"/><polygon class="cls-6" points="183.13 294.5 117.53 294.5 130.08 228.9 195.68 228.9 183.13 294.5"/><path class="cls-5" d="M183.58,295.05h-66.7l12.76-66.7h66.69ZM118.18,294h64.51L195,229.45H130.52Z"/><path class="cls-7" d="M179.5,236.33a7.42,7.42,0,0,1,1.83.21,3.27,3.27,0,0,1,1.34.72,2.75,2.75,0,0,1,.72,1.31,5,5,0,0,1,0,2A5.33,5.33,0,0,1,182.3,243a4.57,4.57,0,0,1-1.82,1.3,3.2,3.2,0,0,1,1.63,1.55,4.73,4.73,0,0,1,.18,2.95l-.06.29a6.87,6.87,0,0,1-.83,2.29,5.47,5.47,0,0,1-1.4,1.54,5.31,5.31,0,0,1-1.81.86,7.91,7.91,0,0,1-2.08.27,7,7,0,0,1-2-.27,3.35,3.35,0,0,1-1.48-.86,3.16,3.16,0,0,1-.8-1.54,5.74,5.74,0,0,1,0-2.29l.06-.29a6.23,6.23,0,0,1,1.29-2.95,5.59,5.59,0,0,1,2.26-1.55,2.6,2.6,0,0,1-1.35-1.3,4.18,4.18,0,0,1-.12-2.44,5.82,5.82,0,0,1,.73-2,4.44,4.44,0,0,1,1.24-1.31,5.1,5.1,0,0,1,1.63-.72A8.26,8.26,0,0,1,179.5,236.33Zm.82,12.19A2.92,2.92,0,0,0,180,246a2.71,2.71,0,0,0-2.16-.8,3.84,3.84,0,0,0-2.48.8,4.09,4.09,0,0,0-1.33,2.52l-.07.39a3.06,3.06,0,0,0,.35,2.6,2.68,2.68,0,0,0,2.17.81,3.75,3.75,0,0,0,2.49-.84,4.32,4.32,0,0,0,1.31-2.57Zm-1.15-10.46a3.47,3.47,0,0,0-2.13.62,3.24,3.24,0,0,0-1.1,2.07,2.32,2.32,0,0,0,.31,2.08,2.44,2.44,0,0,0,1.89.65,3.43,3.43,0,0,0,2.12-.65,3.25,3.25,0,0,0,1.11-2.08,2.27,2.27,0,0,0-.32-2.07A2.53,2.53,0,0,0,179.17,238.06Z"/><polygon class="cls-6" points="248.74 294.5 183.13 294.5 195.68 228.9 261.29 228.9 248.74 294.5"/><path class="cls-5" d="M249.18,295.05h-66.7l12.76-66.7h66.7ZM183.79,294H248.3l12.34-64.51H196.12Z"/><path class="cls-7" d="M242.36,246.94a6.61,6.61,0,0,1-1.84-.24,3,3,0,0,1-1.38-.81,3.05,3.05,0,0,1-.75-1.49,5.94,5.94,0,0,1,.06-2.32l.1-.5a7.5,7.5,0,0,1,.86-2.45,5.57,5.57,0,0,1,1.41-1.62,5.28,5.28,0,0,1,1.82-.91,7.91,7.91,0,0,1,2.08-.27,6.86,6.86,0,0,1,2,.27,3.17,3.17,0,0,1,2.27,2.53,6.65,6.65,0,0,1-.07,2.45l-1.39,7.23a7.3,7.3,0,0,1-.88,2.44,5.79,5.79,0,0,1-1.41,1.63,5.49,5.49,0,0,1-1.85.9,8.29,8.29,0,0,1-2.13.28,5.54,5.54,0,0,1-2.16-.37,3.75,3.75,0,0,1-1.41-.94,3.24,3.24,0,0,1-.7-1.35,3.76,3.76,0,0,1,0-1.53,1,1,0,0,1,.37-.69,1.32,1.32,0,0,1,.76-.2,1.46,1.46,0,0,1,.71.17.53.53,0,0,1,.2.62,2.06,2.06,0,0,0,.05,1,2,2,0,0,0,.54.76,2.2,2.2,0,0,0,.89.5,3.91,3.91,0,0,0,1.18.17,3.84,3.84,0,0,0,2.52-.83,4.34,4.34,0,0,0,1.33-2.59l.64-3.36a4.58,4.58,0,0,1-1.73,1.14A6.19,6.19,0,0,1,242.36,246.94Zm4.55-5.47a3.08,3.08,0,0,0-.33-2.59,2.67,2.67,0,0,0-2.19-.82,3.75,3.75,0,0,0-2.48.82,4.27,4.27,0,0,0-1.32,2.59l-.1.51a2.32,2.32,0,0,0,2.55,3.28,4.15,4.15,0,0,0,2.43-.7,3.57,3.57,0,0,0,1.3-2.36Z"/><polygon class="cls-6" points="314.34 294.5 248.74 294.5 261.29 228.9 326.89 228.9 314.34 294.5"/><path class="cls-5" d="M314.79,295.05h-66.7l12.75-66.7h66.7ZM249.39,294H313.9l12.34-64.51H261.73Z"/><path class="cls-7" d="M299.64,239.34l-1.14,1.32a.82.82,0,0,1-.55.26.54.54,0,0,1-.5-.25.84.84,0,0,1-.09-.59,1.23,1.23,0,0,1,.22-.47,1.2,1.2,0,0,1,.38-.37l2.71-2.62a1.54,1.54,0,0,1,.3-.22.79.79,0,0,1,.38-.09.88.88,0,0,1,.58.19.5.5,0,0,1,.18.52L299,253.19a.73.73,0,0,1-.41.54,1.59,1.59,0,0,1-.74.18,1.21,1.21,0,0,1-.66-.18.5.5,0,0,1-.21-.54Z"/><path class="cls-7" d="M306.93,254.06a6.81,6.81,0,0,1-2-.28,3.42,3.42,0,0,1-1.48-.9,3.32,3.32,0,0,1-.78-1.63,6.38,6.38,0,0,1,.07-2.44l1.38-7.23a7.73,7.73,0,0,1,.87-2.45,5.7,5.7,0,0,1,1.4-1.62,5.37,5.37,0,0,1,1.82-.91,8,8,0,0,1,2.09-.27,6.87,6.87,0,0,1,2,.27,3.4,3.4,0,0,1,1.48.91,3.26,3.26,0,0,1,.8,1.62,6.24,6.24,0,0,1-.07,2.45l-1.38,7.23a7.29,7.29,0,0,1-.87,2.44,5.49,5.49,0,0,1-1.41,1.63,5.63,5.63,0,0,1-1.84.9A8,8,0,0,1,306.93,254.06Zm5.56-12.48a3.08,3.08,0,0,0-.35-2.59,2.63,2.63,0,0,0-2.17-.84,3.71,3.71,0,0,0-2.48.84,4.31,4.31,0,0,0-1.33,2.59l-1.38,7.23a3.17,3.17,0,0,0,.33,2.59,2.66,2.66,0,0,0,2.17.83,3.8,3.8,0,0,0,2.49-.83,4.23,4.23,0,0,0,1.33-2.59Zm-3.67,2.68a.79.79,0,0,1,.63.27.77.77,0,0,1,.13.67,1.15,1.15,0,0,1-.39.69,1.11,1.11,0,0,1-.73.28.8.8,0,0,1-.65-.28.84.84,0,0,1-.13-.69,1.13,1.13,0,0,1,.39-.67A1.19,1.19,0,0,1,308.82,244.26Z"/><polygon class="cls-6" points="379.95 294.5 314.34 294.5 326.89 228.9 392.5 228.9 379.95 294.5"/><path class="cls-5" d="M380.39,295.05h-66.7l12.76-66.7h66.7ZM315,294h64.51l12.33-64.51H327.33Z"/><path class="cls-7" d="M372.3,239.34l-1.14,1.32a.84.84,0,0,1-.56.26.53.53,0,0,1-.49-.25.75.75,0,0,1-.09-.59,1.1,1.1,0,0,1,.22-.47,1.18,1.18,0,0,1,.37-.37l2.71-2.62a1.6,1.6,0,0,1,.31-.22.79.79,0,0,1,.38-.09.9.9,0,0,1,.58.19.49.49,0,0,1,.17.52l-3.09,16.17a.76.76,0,0,1-.42.54,1.55,1.55,0,0,1-.73.18,1.16,1.16,0,0,1-.66-.18.47.47,0,0,1-.21-.54Z"/><path class="cls-7" d="M378.26,239.34l-1.14,1.32a.82.82,0,0,1-.55.26.53.53,0,0,1-.5-.25.84.84,0,0,1-.09-.59,1.23,1.23,0,0,1,.22-.47,1.3,1.3,0,0,1,.37-.37l2.72-2.62a1.54,1.54,0,0,1,.3-.22.79.79,0,0,1,.38-.09.9.9,0,0,1,.58.19.48.48,0,0,1,.17.52l-3.09,16.17a.73.73,0,0,1-.41.54,1.59,1.59,0,0,1-.74.18,1.19,1.19,0,0,1-.66-.18.48.48,0,0,1-.21-.54Z"/><polygon class="cls-6" points="445.55 294.5 379.95 294.5 392.5 228.9 458.1 228.9 445.55 294.5"/><path class="cls-5" d="M446,295.05H379.3l12.75-66.7h66.7ZM380.6,294h64.51l12.34-64.51H392.94Z"/><path class="cls-7" d="M432.22,239.34l-1.14,1.32a.82.82,0,0,1-.55.26.54.54,0,0,1-.5-.25.84.84,0,0,1-.09-.59,1.23,1.23,0,0,1,.22-.47,1.2,1.2,0,0,1,.38-.37l2.71-2.62a1.34,1.34,0,0,1,.31-.22.72.72,0,0,1,.37-.09.88.88,0,0,1,.58.19.5.5,0,0,1,.18.52l-3.1,16.17a.73.73,0,0,1-.41.54,1.59,1.59,0,0,1-.74.18,1.21,1.21,0,0,1-.66-.18.5.5,0,0,1-.21-.54Z"/><path class="cls-7" d="M436.77,240.44a4.48,4.48,0,0,1,.69-1.67,5.37,5.37,0,0,1,1.26-1.3,6,6,0,0,1,1.66-.84,6,6,0,0,1,1.87-.3,5.16,5.16,0,0,1,1.88.34,3.72,3.72,0,0,1,1.39,1,3.52,3.52,0,0,1,.76,1.49,4.24,4.24,0,0,1,0,1.88,5.48,5.48,0,0,1-1,2.32,11.1,11.1,0,0,1-1.83,1.86,18.21,18.21,0,0,1-2.21,1.55c-.78.48-1.5.94-2.17,1.38a12.85,12.85,0,0,0-1.72,1.32,2.55,2.55,0,0,0-.86,1.41l-.24,1.23h7.39a.47.47,0,0,1,.44.26.93.93,0,0,1,.08.65,1.31,1.31,0,0,1-.32.63.74.74,0,0,1-.55.28h-8.56a1,1,0,0,1-.57-.19.49.49,0,0,1-.21-.53l.45-2.33a3.7,3.7,0,0,1,.93-1.82,12.25,12.25,0,0,1,1.79-1.59c.68-.5,1.42-1,2.21-1.47a24.34,24.34,0,0,0,2.22-1.46,11.15,11.15,0,0,0,1.78-1.6,3.85,3.85,0,0,0,.95-1.83,3.17,3.17,0,0,0,0-1,2.39,2.39,0,0,0-.36-.94,2.08,2.08,0,0,0-.79-.67,2.76,2.76,0,0,0-1.25-.25,3.46,3.46,0,0,0-2.05.63,3,3,0,0,0-1.17,2,.9.9,0,0,1-.38.55,1.36,1.36,0,0,1-.83.24.71.71,0,0,1-.62-.25A1.25,1.25,0,0,1,436.77,240.44Z"/><polygon class="cls-6" points="511.16 294.5 445.55 294.5 458.1 228.9 523.7 228.9 511.16 294.5"/><path class="cls-5" d="M511.6,295.05H444.9l12.76-66.7h66.7ZM446.2,294h64.52l12.33-64.51H458.54Z"/><path class="cls-7" d="M497.52,239.34l-1.14,1.32a.84.84,0,0,1-.56.26.54.54,0,0,1-.5-.25.84.84,0,0,1-.09-.59,1.13,1.13,0,0,1,.23-.47,1.18,1.18,0,0,1,.37-.37l2.71-2.62a1.6,1.6,0,0,1,.31-.22.76.76,0,0,1,.38-.09.92.92,0,0,1,.58.19.49.49,0,0,1,.17.52l-3.09,16.17a.76.76,0,0,1-.42.54,1.55,1.55,0,0,1-.73.18,1.16,1.16,0,0,1-.66-.18.47.47,0,0,1-.21-.54Z"/><path class="cls-7" d="M504.41,252.23a3.88,3.88,0,0,0,2.56-.8,4.19,4.19,0,0,0,1.3-2.52l.08-.46a2.28,2.28,0,0,0-.45-2.26,3.18,3.18,0,0,0-2.21-.67.47.47,0,0,1-.49-.26.93.93,0,0,1-.05-.58,1.34,1.34,0,0,1,.27-.58.71.71,0,0,1,.59-.27,5.51,5.51,0,0,0,1.19-.12,2.34,2.34,0,0,0,1-.44,2.61,2.61,0,0,0,.73-.89,5.19,5.19,0,0,0,.46-1.44,2.58,2.58,0,0,0-.25-2.13,2.29,2.29,0,0,0-1.9-.68,4.26,4.26,0,0,0-1.43.22,3.06,3.06,0,0,0-1,.55,2.49,2.49,0,0,0-.57.75,2.89,2.89,0,0,0-.28.79,1.08,1.08,0,0,1-.34.65,1.13,1.13,0,0,1-.79.24q-.65,0-.81-.21a1.14,1.14,0,0,1-.05-.82,5.06,5.06,0,0,1,.45-1.23,4.53,4.53,0,0,1,1-1.3,5.63,5.63,0,0,1,1.69-1,6.46,6.46,0,0,1,2.48-.42,6.26,6.26,0,0,1,1.81.23,3,3,0,0,1,1.32.73,2.63,2.63,0,0,1,.69,1.31,4.76,4.76,0,0,1,0,2,6.28,6.28,0,0,1-1.05,2.61,4.21,4.21,0,0,1-1.67,1.44,3.16,3.16,0,0,1,1.5,1.34,3.59,3.59,0,0,1,.22,2.48l-.09.46a7.22,7.22,0,0,1-.86,2.39,5.65,5.65,0,0,1-1.43,1.59,5.76,5.76,0,0,1-1.85.89,8,8,0,0,1-2.08.28,5.59,5.59,0,0,1-2.24-.39,3.79,3.79,0,0,1-1.4-1,3.17,3.17,0,0,1-.68-1.31,3.58,3.58,0,0,1,0-1.42,1.25,1.25,0,0,1,.35-.75,1.23,1.23,0,0,1,.76-.19,1.1,1.1,0,0,1,.8.2.78.78,0,0,1,.09.59,1.85,1.85,0,0,0,0,.81,1.8,1.8,0,0,0,.39.78,2.26,2.26,0,0,0,.86.59A3.85,3.85,0,0,0,504.41,252.23Z"/><polygon class="cls-6" points="576.76 294.5 511.16 294.5 523.7 228.9 589.31 228.9 576.76 294.5"/><path class="cls-5" d="M577.2,295.05H510.51l12.75-66.7H590ZM511.81,294h64.51l12.34-64.51H524.15Z"/><path class="cls-5" d="M564,239.34l-1.15,1.32a.82.82,0,0,1-.55.26.54.54,0,0,1-.5-.25.84.84,0,0,1-.09-.59,1.23,1.23,0,0,1,.22-.47,1.32,1.32,0,0,1,.38-.37l2.71-2.62a1.34,1.34,0,0,1,.31-.22.74.74,0,0,1,.38-.09.87.87,0,0,1,.57.19.5.5,0,0,1,.18.52l-3.1,16.17a.73.73,0,0,1-.41.54,1.59,1.59,0,0,1-.74.18,1.21,1.21,0,0,1-.66-.18.48.48,0,0,1-.2-.54Z"/><path class="cls-5" d="M572.49,249.87h-6a.58.58,0,0,1-.5-.22.72.72,0,0,1-.09-.58,1,1,0,0,1,.2-.45l8.19-11.71a1.22,1.22,0,0,1,1-.58,1.09,1.09,0,0,1,.6.21.56.56,0,0,1,.24.58.87.87,0,0,1-.16.34L568.69,248h4.16l.77-4a.76.76,0,0,1,.42-.54,1.81,1.81,0,0,1,.73-.16,1.37,1.37,0,0,1,.66.16.47.47,0,0,1,.21.54l-.77,4h1.28a.46.46,0,0,1,.48.3,1.12,1.12,0,0,1,.06.66,1.47,1.47,0,0,1-.33.66.77.77,0,0,1-.58.3h-1.27l-.64,3.32a.74.74,0,0,1-.42.54,1.55,1.55,0,0,1-.73.18,1.16,1.16,0,0,1-.66-.18.48.48,0,0,1-.21-.54Z"/><polygon class="cls-6" points="170.59 360.11 104.98 360.11 117.53 294.5 183.13 294.5 170.59 360.11"/><path class="cls-5" d="M171,360.66h-66.7L117.09,294h66.7Zm-65.4-1.1h64.52l12.33-64.51H118Z"/><path class="cls-7" d="M157.24,304.94l-1.15,1.32a.82.82,0,0,1-.55.26.54.54,0,0,1-.5-.25.82.82,0,0,1-.09-.59,1.2,1.2,0,0,1,.22-.46,1.25,1.25,0,0,1,.38-.38l2.71-2.62.31-.22a.72.72,0,0,1,.37-.09.88.88,0,0,1,.58.19.52.52,0,0,1,.18.53l-3.09,16.16a.78.78,0,0,1-.42.55,1.67,1.67,0,0,1-.73.18,1.25,1.25,0,0,1-.66-.18.47.47,0,0,1-.21-.55Z"/><path class="cls-7" d="M165.85,309a7.26,7.26,0,0,1,2,.26,3.37,3.37,0,0,1,1.48.87,3.12,3.12,0,0,1,.8,1.54,5.66,5.66,0,0,1,0,2.31l-.09.45a7.42,7.42,0,0,1-.86,2.41,5.53,5.53,0,0,1-1.41,1.61,5.61,5.61,0,0,1-1.83.91,7.83,7.83,0,0,1-2.07.27,6,6,0,0,1-2.15-.34,3.71,3.71,0,0,1-1.44-.91,2.92,2.92,0,0,1-.76-1.33,3.35,3.35,0,0,1-.05-1.58,1.11,1.11,0,0,1,.42-.76,1.46,1.46,0,0,1,.78-.2.94.94,0,0,1,.75.22.73.73,0,0,1,.1.59,1.75,1.75,0,0,0,.56,1.84,3.27,3.27,0,0,0,2.12.65,3.75,3.75,0,0,0,2.48-.83,4.15,4.15,0,0,0,1.33-2.55l.09-.45a2.87,2.87,0,0,0-.37-2.49,2.65,2.65,0,0,0-2.15-.81h-3.41c-.37,0-.61-.08-.7-.23a.7.7,0,0,1-.09-.56,4.64,4.64,0,0,1,.15-.53l1.79-6.73a1.25,1.25,0,0,1,.26-.53.53.53,0,0,1,.41-.2h6.93a.43.43,0,0,1,.44.29,1.21,1.21,0,0,1,0,.63,1.49,1.49,0,0,1-.27.62.67.67,0,0,1-.55.29h-5.7L163.45,309Z"/><polygon class="cls-6" points="236.19 360.11 170.59 360.11 183.13 294.5 248.74 294.5 236.19 360.11"/><path class="cls-5" d="M236.63,360.66H169.94L182.69,294h66.7Zm-65.39-1.1h64.51l12.34-64.51H183.58Z"/><path class="cls-7" d="M221.86,304.94l-1.15,1.32a.82.82,0,0,1-.55.26.54.54,0,0,1-.5-.25.82.82,0,0,1-.09-.59,1.1,1.1,0,0,1,.23-.46,1.12,1.12,0,0,1,.37-.38l2.71-2.62.31-.22a.72.72,0,0,1,.37-.09.88.88,0,0,1,.58.19.52.52,0,0,1,.18.53l-3.09,16.16a.78.78,0,0,1-.42.55,1.67,1.67,0,0,1-.73.18,1.25,1.25,0,0,1-.66-.18.48.48,0,0,1-.21-.55Z"/><path class="cls-7" d="M231.53,309.05a6.56,6.56,0,0,1,1.84.24,3.16,3.16,0,0,1,1.39.81,3.05,3.05,0,0,1,.75,1.49,6.17,6.17,0,0,1-.07,2.32l-.1.51a7.46,7.46,0,0,1-.86,2.43,5.64,5.64,0,0,1-1.41,1.63,5.28,5.28,0,0,1-1.82.91,8,8,0,0,1-2.09.27,6.87,6.87,0,0,1-2-.27,3.44,3.44,0,0,1-1.49-.91,3.24,3.24,0,0,1-.78-1.63,6.11,6.11,0,0,1,.06-2.43l1.39-7.24a7.29,7.29,0,0,1,.87-2.44,5.39,5.39,0,0,1,3.25-2.54,8.33,8.33,0,0,1,2.15-.27,5.65,5.65,0,0,1,2.15.36,3.77,3.77,0,0,1,1.41.95,3,3,0,0,1,.7,1.35,3.59,3.59,0,0,1,0,1.53,1.05,1.05,0,0,1-.38.7,1.31,1.31,0,0,1-.73.19,1.43,1.43,0,0,1-.71-.17.53.53,0,0,1-.2-.62,1.85,1.85,0,0,0-.06-1,1.92,1.92,0,0,0-.52-.77,2.27,2.27,0,0,0-.91-.49,4.07,4.07,0,0,0-1.19-.17,3.8,3.8,0,0,0-2.51.83,4.24,4.24,0,0,0-1.34,2.59l-.65,3.36a4.81,4.81,0,0,1,1.75-1.14A5.85,5.85,0,0,1,231.53,309.05ZM227,314.51a3.1,3.1,0,0,0,.35,2.6,2.67,2.67,0,0,0,2.18.82,3.7,3.7,0,0,0,2.47-.82,4.31,4.31,0,0,0,1.33-2.6l.09-.5a2.84,2.84,0,0,0-.34-2.52,2.8,2.8,0,0,0-2.18-.76,4.18,4.18,0,0,0-2.44.7,3.52,3.52,0,0,0-1.32,2.36Z"/><polygon class="cls-6" points="301.8 360.11 236.19 360.11 248.74 294.5 314.34 294.5 301.8 360.11"/><path class="cls-5" d="M302.24,360.66h-66.7L248.3,294H315Zm-65.4-1.1h64.51l12.34-64.51H249.18Z"/><path class="cls-7" d="M288.81,304.94l-1.14,1.32a.84.84,0,0,1-.56.26.54.54,0,0,1-.5-.25.77.77,0,0,1-.08-.59,1.07,1.07,0,0,1,.22-.46,1.34,1.34,0,0,1,.37-.38l2.71-2.62.31-.22a.76.76,0,0,1,.38-.09.85.85,0,0,1,.57.19.5.5,0,0,1,.18.53l-3.09,16.16a.78.78,0,0,1-.42.55,1.67,1.67,0,0,1-.73.18,1.27,1.27,0,0,1-.66-.18.48.48,0,0,1-.21-.55Z"/><path class="cls-7" d="M303.37,304.89a1.69,1.69,0,0,1-.19.49,4.62,4.62,0,0,1-.35.55l-9.37,13.3a.83.83,0,0,1-.72.33,1.24,1.24,0,0,1-.8-.26.7.7,0,0,1-.24-.7,1,1,0,0,1,.18-.4l9.42-13.07.27-1.37h-6.33l-.49,2.53a.78.78,0,0,1-.4.52,1.44,1.44,0,0,1-.74.2,1.07,1.07,0,0,1-.67-.2.5.5,0,0,1-.21-.52l.7-3.63a.8.8,0,0,1,.38-.5,1.2,1.2,0,0,1,.67-.23H303a.85.85,0,0,1,.57.23.51.51,0,0,1,.2.5Z"/><polygon class="cls-6" points="367.4 360.11 301.8 360.11 314.34 294.5 379.95 294.5 367.4 360.11"/><path class="cls-5" d="M367.84,360.66H301.15L313.9,294h66.7Zm-65.39-1.1H367l12.34-64.51H314.79Z"/><path class="cls-7" d="M353.43,304.94l-1.15,1.32a.82.82,0,0,1-.55.26.53.53,0,0,1-.5-.25.82.82,0,0,1-.09-.59,1.2,1.2,0,0,1,.22-.46,1.34,1.34,0,0,1,.37-.38l2.72-2.62a2.44,2.44,0,0,1,.31-.22.72.72,0,0,1,.37-.09.9.9,0,0,1,.58.19.52.52,0,0,1,.18.53l-3.1,16.16a.74.74,0,0,1-.41.55,1.72,1.72,0,0,1-.74.18,1.24,1.24,0,0,1-.65-.18.47.47,0,0,1-.21-.55Z"/><path class="cls-7" d="M363.76,301.93a6.9,6.9,0,0,1,1.83.22,3,3,0,0,1,1.34.72,2.63,2.63,0,0,1,.72,1.31,4.79,4.79,0,0,1,0,2,5.33,5.33,0,0,1-1.06,2.44,4.37,4.37,0,0,1-1.82,1.31,3.12,3.12,0,0,1,1.63,1.55,4.66,4.66,0,0,1,.18,2.95l-.06.29a6.81,6.81,0,0,1-.83,2.28,5.34,5.34,0,0,1-1.4,1.54,5.13,5.13,0,0,1-1.81.86,7.91,7.91,0,0,1-2.08.27,6.91,6.91,0,0,1-2-.27,3.25,3.25,0,0,1-1.49-.86,3.2,3.2,0,0,1-.8-1.54,5.54,5.54,0,0,1,.05-2.28l.05-.29a6.1,6.1,0,0,1,1.3-2.95,5.37,5.37,0,0,1,2.25-1.55,2.58,2.58,0,0,1-1.35-1.31,4.18,4.18,0,0,1-.12-2.44,5.69,5.69,0,0,1,.73-2,4.32,4.32,0,0,1,1.24-1.31,4.7,4.7,0,0,1,1.63-.72A7.73,7.73,0,0,1,363.76,301.93Zm.82,12.2a2.94,2.94,0,0,0-.36-2.53,2.7,2.7,0,0,0-2.15-.79,3.85,3.85,0,0,0-2.49.79,4.13,4.13,0,0,0-1.33,2.53l-.07.38a3.06,3.06,0,0,0,.35,2.6,2.65,2.65,0,0,0,2.17.82,3.76,3.76,0,0,0,2.49-.85,4.29,4.29,0,0,0,1.31-2.57Zm-1.15-10.47a3.41,3.41,0,0,0-2.13.63,3.24,3.24,0,0,0-1.1,2.06,2.35,2.35,0,0,0,.31,2.09,2.44,2.44,0,0,0,1.89.64,3.42,3.42,0,0,0,2.12-.64,3.31,3.31,0,0,0,1.12-2.09,2.29,2.29,0,0,0-.33-2.06A2.5,2.5,0,0,0,363.43,303.66Z"/><polygon class="cls-6" points="433.01 360.11 367.4 360.11 379.95 294.5 445.55 294.5 433.01 360.11"/><path class="cls-5" d="M433.45,360.66h-66.7L379.51,294H446.2Zm-65.4-1.1h64.51l12.34-64.51H380.39Z"/><path class="cls-7" d="M418.67,304.94l-1.15,1.32a.82.82,0,0,1-.55.26.54.54,0,0,1-.5-.25.82.82,0,0,1-.09-.59,1.1,1.1,0,0,1,.23-.46,1.12,1.12,0,0,1,.37-.38l2.71-2.62A2.44,2.44,0,0,1,420,302a.72.72,0,0,1,.37-.09.88.88,0,0,1,.58.19.52.52,0,0,1,.18.53L418,318.79a.78.78,0,0,1-.42.55,1.67,1.67,0,0,1-.73.18,1.25,1.25,0,0,1-.66-.18.48.48,0,0,1-.21-.55Z"/><path class="cls-7" d="M426.61,312.54a6.61,6.61,0,0,1-1.84-.24,3.17,3.17,0,0,1-1.38-.8,3.22,3.22,0,0,1-.74-1.49,5.8,5.8,0,0,1,.06-2.33l.1-.5a7.52,7.52,0,0,1,.86-2.44,5.61,5.61,0,0,1,1.4-1.63,5.71,5.71,0,0,1,1.83-.91,7.91,7.91,0,0,1,2.08-.27,6.86,6.86,0,0,1,2,.27,3.53,3.53,0,0,1,1.48.91,3.41,3.41,0,0,1,.78,1.63,6.19,6.19,0,0,1-.07,2.44l-1.38,7.24a7.46,7.46,0,0,1-.88,2.43,5.79,5.79,0,0,1-1.41,1.63,5.42,5.42,0,0,1-1.85.91,8.35,8.35,0,0,1-2.13.27,5.7,5.7,0,0,1-2.16-.36,3.77,3.77,0,0,1-1.41-.95,3.07,3.07,0,0,1-.7-1.35,3.54,3.54,0,0,1,0-1.52,1.06,1.06,0,0,1,.37-.7,1.32,1.32,0,0,1,.76-.19,1.39,1.39,0,0,1,.7.16.55.55,0,0,1,.21.63,1.82,1.82,0,0,0,.05,1,1.87,1.87,0,0,0,.53.77,2.39,2.39,0,0,0,.89.49,3.7,3.7,0,0,0,1.18.18,3.85,3.85,0,0,0,2.52-.84,4.26,4.26,0,0,0,1.34-2.58l.64-3.37a4.32,4.32,0,0,1-1.74,1.14A6.1,6.1,0,0,1,426.61,312.54Zm4.56-5.46a3.14,3.14,0,0,0-.33-2.6,2.67,2.67,0,0,0-2.19-.82,3.75,3.75,0,0,0-2.48.82,4.31,4.31,0,0,0-1.33,2.6l-.09.5a2.32,2.32,0,0,0,2.55,3.28,4.15,4.15,0,0,0,2.43-.7,3.57,3.57,0,0,0,1.3-2.36Z"/><polygon class="cls-6" points="498.61 360.11 433.01 360.11 445.55 294.5 511.16 294.5 498.61 360.11"/><path class="cls-5" d="M499.05,360.66H432.36L445.11,294h66.7Zm-65.39-1.1h64.51l12.34-64.51H446Z"/><path class="cls-7" d="M476.82,306a4.55,4.55,0,0,1,.69-1.67,5.56,5.56,0,0,1,1.26-1.3,6,6,0,0,1,3.53-1.14,5,5,0,0,1,1.88.35,3.78,3.78,0,0,1,1.39,1,3.68,3.68,0,0,1,.76,1.5,4.34,4.34,0,0,1,0,1.87,5.38,5.38,0,0,1-1,2.32,10.72,10.72,0,0,1-1.82,1.87,19.4,19.4,0,0,1-2.21,1.55c-.78.47-1.5.93-2.18,1.37a14.28,14.28,0,0,0-1.72,1.32,2.63,2.63,0,0,0-.85,1.41l-.24,1.23h7.39a.46.46,0,0,1,.43.26.88.88,0,0,1,.09.65,1.29,1.29,0,0,1-.33.63.74.74,0,0,1-.54.29h-8.56a1,1,0,0,1-.57-.2.48.48,0,0,1-.21-.53l.44-2.33a3.8,3.8,0,0,1,.94-1.82,11.76,11.76,0,0,1,1.79-1.59c.68-.5,1.42-1,2.21-1.46a24.93,24.93,0,0,0,2.21-1.47,10.81,10.81,0,0,0,1.79-1.6,3.66,3.66,0,0,0,.94-1.83,2.91,2.91,0,0,0,0-1,2.36,2.36,0,0,0-.37-.93,2,2,0,0,0-.78-.68,2.9,2.9,0,0,0-1.25-.25,3.45,3.45,0,0,0-2.06.64,3,3,0,0,0-1.16,2,1,1,0,0,1-.38.56,1.45,1.45,0,0,1-.83.23.74.74,0,0,1-.63-.25A1.2,1.2,0,0,1,476.82,306Z"/><path class="cls-7" d="M491.2,319.66a6.87,6.87,0,0,1-2-.27,3.14,3.14,0,0,1-2.25-2.54,6.31,6.31,0,0,1,.06-2.43l1.39-7.24a7.52,7.52,0,0,1,.86-2.44,5.61,5.61,0,0,1,1.4-1.63,5.71,5.71,0,0,1,1.83-.91,7.91,7.91,0,0,1,2.08-.27,6.82,6.82,0,0,1,2,.27,3.57,3.57,0,0,1,1.49.91,3.25,3.25,0,0,1,.79,1.63,6.36,6.36,0,0,1-.06,2.44l-1.39,7.24a7.46,7.46,0,0,1-.86,2.43,5.39,5.39,0,0,1-3.25,2.54A8,8,0,0,1,491.2,319.66Zm5.56-12.48a3.13,3.13,0,0,0-.34-2.59,2.68,2.68,0,0,0-2.18-.83,3.75,3.75,0,0,0-2.48.83,4.28,4.28,0,0,0-1.32,2.59l-1.39,7.24a3.11,3.11,0,0,0,.34,2.58,2.64,2.64,0,0,0,2.16.84A3.79,3.79,0,0,0,494,317a4.26,4.26,0,0,0,1.34-2.58Zm-3.66,2.69a.76.76,0,0,1,.62.26.82.82,0,0,1,.14.68,1.28,1.28,0,0,1-.4.69,1.1,1.1,0,0,1-.73.27.76.76,0,0,1-.64-.27.85.85,0,0,1-.14-.69,1.22,1.22,0,0,1,.4-.68A1.16,1.16,0,0,1,493.1,309.87Z"/><polygon class="cls-6" points="564.22 360.11 498.61 360.11 511.16 294.5 576.76 294.5 564.22 360.11"/><path class="cls-5" d="M564.66,360.66H498L510.72,294h66.69Zm-65.4-1.1h64.51l12.34-64.51H511.6Z"/><path class="cls-5" d="M549.48,306a4.23,4.23,0,0,1,.69-1.67,5.19,5.19,0,0,1,1.26-1.3,5.84,5.84,0,0,1,1.65-.84,6,6,0,0,1,1.88-.3,4.9,4.9,0,0,1,1.87.35,3.74,3.74,0,0,1,1.4,1,3.68,3.68,0,0,1,.76,1.5,4.35,4.35,0,0,1,0,1.87,5.36,5.36,0,0,1-1,2.32,11.49,11.49,0,0,1-1.82,1.87,21.35,21.35,0,0,1-2.21,1.55c-.78.47-1.51.93-2.18,1.37a13.53,13.53,0,0,0-1.72,1.32,2.65,2.65,0,0,0-.86,1.41l-.23,1.23h7.38a.48.48,0,0,1,.44.26.93.93,0,0,1,.09.65,1.37,1.37,0,0,1-.33.63.74.74,0,0,1-.55.29h-8.56a1,1,0,0,1-.57-.2.49.49,0,0,1-.21-.53l.45-2.33a3.7,3.7,0,0,1,.93-1.82,12.8,12.8,0,0,1,1.79-1.59c.69-.5,1.43-1,2.22-1.46a26.49,26.49,0,0,0,2.21-1.47,11.23,11.23,0,0,0,1.79-1.6,3.83,3.83,0,0,0,.94-1.83,2.91,2.91,0,0,0,0-1,2.21,2.21,0,0,0-.36-.93,2.07,2.07,0,0,0-.78-.68,2.94,2.94,0,0,0-1.26-.25,3.44,3.44,0,0,0-2.05.64,3,3,0,0,0-1.17,2,.92.92,0,0,1-.38.56,1.41,1.41,0,0,1-.83.23.71.71,0,0,1-.62-.25A1.2,1.2,0,0,1,549.48,306Z"/><path class="cls-5" d="M562.54,304.94l-1.15,1.32a.82.82,0,0,1-.55.26.54.54,0,0,1-.5-.25.82.82,0,0,1-.09-.59,1.1,1.1,0,0,1,.23-.46,1.12,1.12,0,0,1,.37-.38l2.71-2.62.31-.22a.72.72,0,0,1,.37-.09.88.88,0,0,1,.58.19.52.52,0,0,1,.18.53l-3.09,16.16a.78.78,0,0,1-.42.55,1.67,1.67,0,0,1-.73.18,1.25,1.25,0,0,1-.66-.18.48.48,0,0,1-.21-.55Z"/><polygon class="cls-6" points="158.04 425.71 92.44 425.71 104.98 360.11 170.59 360.11 158.04 425.71"/><path class="cls-5" d="M158.48,426.26H91.79l12.75-66.7h66.7Zm-65.39-1.09H157.6l12.34-64.51H105.43Z"/><path class="cls-7" d="M137.62,371.65a4.48,4.48,0,0,1,.69-1.67,5.23,5.23,0,0,1,1.27-1.3,5.66,5.66,0,0,1,1.64-.84,6,6,0,0,1,1.88-.3,4.74,4.74,0,0,1,1.88.35,3.59,3.59,0,0,1,1.39,1,3.52,3.52,0,0,1,.76,1.49,4.23,4.23,0,0,1,0,1.88,5.54,5.54,0,0,1-1,2.32,11.49,11.49,0,0,1-1.83,1.86,18.21,18.21,0,0,1-2.21,1.55c-.78.48-1.5.93-2.17,1.38a12.07,12.07,0,0,0-1.72,1.32,2.56,2.56,0,0,0-.86,1.4l-.24,1.23h7.39a.48.48,0,0,1,.44.27.93.93,0,0,1,.08.65,1.35,1.35,0,0,1-.32.63.74.74,0,0,1-.55.28h-8.56a1,1,0,0,1-.57-.19.5.5,0,0,1-.21-.53l.45-2.34a3.71,3.71,0,0,1,.93-1.81,11.19,11.19,0,0,1,1.79-1.59c.68-.5,1.42-1,2.21-1.47s1.53-1,2.22-1.46a10.73,10.73,0,0,0,1.78-1.61,3.78,3.78,0,0,0,.95-1.82,3.17,3.17,0,0,0,0-1,2.33,2.33,0,0,0-.36-.94,2,2,0,0,0-.79-.67,2.75,2.75,0,0,0-1.25-.26,3.54,3.54,0,0,0-2.06.64,3,3,0,0,0-1.16,2,.9.9,0,0,1-.38.55,1.36,1.36,0,0,1-.83.24.74.74,0,0,1-.63-.25A1.31,1.31,0,0,1,137.62,371.65Z"/><path class="cls-7" d="M149.27,371.65A4.17,4.17,0,0,1,150,370a5.19,5.19,0,0,1,1.26-1.3,5.71,5.71,0,0,1,1.65-.84,6,6,0,0,1,1.88-.3,4.72,4.72,0,0,1,1.87.35,3.46,3.46,0,0,1,2.16,2.46,4.55,4.55,0,0,1,0,1.88,5.56,5.56,0,0,1-1,2.32,11.42,11.42,0,0,1-1.82,1.86,19.92,19.92,0,0,1-2.21,1.55c-.78.48-1.51.93-2.18,1.38a12.67,12.67,0,0,0-1.72,1.32,2.62,2.62,0,0,0-.86,1.4l-.23,1.23h7.38a.47.47,0,0,1,.44.27.88.88,0,0,1,.09.65,1.48,1.48,0,0,1-.33.63.73.73,0,0,1-.55.28h-8.56a1,1,0,0,1-.57-.19.5.5,0,0,1-.21-.53l.45-2.34a3.79,3.79,0,0,1,.93-1.81,11.64,11.64,0,0,1,1.79-1.59c.69-.5,1.43-1,2.22-1.47s1.52-1,2.21-1.46a10.81,10.81,0,0,0,1.79-1.61,3.76,3.76,0,0,0,.94-1.82,2.91,2.91,0,0,0,0-1,2.35,2.35,0,0,0-.37-.94,2,2,0,0,0-.78-.67,2.8,2.8,0,0,0-1.26-.26,3.51,3.51,0,0,0-2,.64,3,3,0,0,0-1.16,2,.92.92,0,0,1-.39.55,1.34,1.34,0,0,1-.83.24.73.73,0,0,1-.62-.25A1.21,1.21,0,0,1,149.27,371.65Z"/><polygon class="cls-6" points="223.65 425.71 158.04 425.71 170.59 360.11 236.19 360.11 223.65 425.71"/><path class="cls-5" d="M224.09,426.26h-66.7l12.76-66.7h66.69Zm-65.4-1.09H223.2l12.34-64.51H171Z"/><path class="cls-7" d="M202.92,371.65a4.17,4.17,0,0,1,.69-1.67,5.19,5.19,0,0,1,1.26-1.3,5.59,5.59,0,0,1,1.65-.84,6,6,0,0,1,1.87-.3,4.74,4.74,0,0,1,1.88.35,3.46,3.46,0,0,1,2.16,2.46,4.39,4.39,0,0,1,0,1.88,5.42,5.42,0,0,1-1,2.32,11.42,11.42,0,0,1-1.82,1.86,19.92,19.92,0,0,1-2.21,1.55c-.78.48-1.51.93-2.18,1.38a12.67,12.67,0,0,0-1.72,1.32,2.62,2.62,0,0,0-.86,1.4l-.23,1.23h7.38a.47.47,0,0,1,.44.27.88.88,0,0,1,.09.65,1.48,1.48,0,0,1-.33.63.73.73,0,0,1-.55.28h-8.56a1,1,0,0,1-.57-.19.5.5,0,0,1-.21-.53l.45-2.34a3.71,3.71,0,0,1,.93-1.81,11.64,11.64,0,0,1,1.79-1.59c.69-.5,1.43-1,2.22-1.47s1.52-1,2.21-1.46a10.81,10.81,0,0,0,1.79-1.61,3.76,3.76,0,0,0,.94-1.82,2.91,2.91,0,0,0,0-1,2.35,2.35,0,0,0-.37-.94,2,2,0,0,0-.79-.67,2.72,2.72,0,0,0-1.25-.26,3.51,3.51,0,0,0-2.05.64,3,3,0,0,0-1.16,2,1,1,0,0,1-.39.55,1.34,1.34,0,0,1-.83.24.73.73,0,0,1-.62-.25A1.21,1.21,0,0,1,202.92,371.65Z"/><path class="cls-7" d="M216.9,383.44a3.9,3.9,0,0,0,2.56-.8,4.17,4.17,0,0,0,1.3-2.52l.09-.46a2.31,2.31,0,0,0-.45-2.26,3.21,3.21,0,0,0-2.21-.68c-.26,0-.43-.08-.5-.25a1,1,0,0,1,0-.59,1.36,1.36,0,0,1,.27-.57.68.68,0,0,1,.59-.27,5.51,5.51,0,0,0,1.19-.12,2.36,2.36,0,0,0,1-.45,2.65,2.65,0,0,0,.73-.89,5.34,5.34,0,0,0,.46-1.43,2.56,2.56,0,0,0-.26-2.14,2.31,2.31,0,0,0-1.9-.67,4,4,0,0,0-1.43.22,3.06,3.06,0,0,0-1,.55,2.27,2.27,0,0,0-.57.75,3.22,3.22,0,0,0-.27.79,1.23,1.23,0,0,1-.34.65,1.16,1.16,0,0,1-.8.24q-.65,0-.81-.21a1.1,1.1,0,0,1,0-.82,4.56,4.56,0,0,1,1.47-2.53,5.93,5.93,0,0,1,1.68-1,6.56,6.56,0,0,1,2.49-.41,7,7,0,0,1,1.8.22,3,3,0,0,1,1.32.74,2.56,2.56,0,0,1,.7,1.31,4.94,4.94,0,0,1,0,2,6.28,6.28,0,0,1-1.06,2.61,4.24,4.24,0,0,1-1.67,1.44,3.11,3.11,0,0,1,1.5,1.34,3.59,3.59,0,0,1,.23,2.48l-.09.46a7,7,0,0,1-.87,2.39,5.5,5.5,0,0,1-1.43,1.59,5.66,5.66,0,0,1-1.85.89,7.52,7.52,0,0,1-2.08.28,5.54,5.54,0,0,1-2.23-.39,4,4,0,0,1-1.41-1,3,3,0,0,1-.67-1.32,3.4,3.4,0,0,1,0-1.42,1.2,1.2,0,0,1,.36-.74,1.23,1.23,0,0,1,.76-.19c.42,0,.68.06.79.2a.7.7,0,0,1,.09.59,2,2,0,0,0,0,.81,1.53,1.53,0,0,0,.39.77,2,2,0,0,0,.86.6A3.8,3.8,0,0,0,216.9,383.44Z"/><polygon class="cls-6" points="289.25 425.71 223.65 425.71 236.19 360.11 301.8 360.11 289.25 425.71"/><path class="cls-5" d="M289.69,426.26H223l12.76-66.7h66.7Zm-65.39-1.09h64.51l12.34-64.51H236.63Z"/><path class="cls-7" d="M270.13,371.65a4.48,4.48,0,0,1,.69-1.67,5.37,5.37,0,0,1,1.26-1.3,5.84,5.84,0,0,1,1.65-.84,6,6,0,0,1,1.88-.3,4.77,4.77,0,0,1,1.88.35,3.47,3.47,0,0,1,2.15,2.46,4.38,4.38,0,0,1,0,1.88,5.43,5.43,0,0,1-1,2.32,11,11,0,0,1-1.82,1.86A19,19,0,0,1,274.6,378c-.78.48-1.5.93-2.18,1.38a13.33,13.33,0,0,0-1.72,1.32,2.6,2.6,0,0,0-.85,1.4l-.24,1.23H277a.48.48,0,0,1,.45.27.93.93,0,0,1,.08.65,1.38,1.38,0,0,1-.33.63.73.73,0,0,1-.55.28h-8.56a1,1,0,0,1-.56-.19.49.49,0,0,1-.22-.53l.45-2.34a3.81,3.81,0,0,1,.94-1.81,11.1,11.1,0,0,1,1.78-1.59c.69-.5,1.43-1,2.22-1.47s1.52-1,2.22-1.46a11.15,11.15,0,0,0,1.78-1.61,3.76,3.76,0,0,0,.94-1.82,2.91,2.91,0,0,0,0-1,2.35,2.35,0,0,0-.37-.94,2,2,0,0,0-.78-.67,2.75,2.75,0,0,0-1.25-.26,3.52,3.52,0,0,0-2.06.64,3,3,0,0,0-1.16,2,.94.94,0,0,1-.38.55,1.36,1.36,0,0,1-.83.24.74.74,0,0,1-.63-.25A1.21,1.21,0,0,1,270.13,371.65Z"/><path class="cls-7" d="M285,381.08h-6a.57.57,0,0,1-.5-.22.73.73,0,0,1-.09-.58,1,1,0,0,1,.2-.45l8.18-11.72a1.27,1.27,0,0,1,1-.57,1.09,1.09,0,0,1,.6.21.54.54,0,0,1,.23.58.7.7,0,0,1-.15.33l-7.28,10.49h4.16l.78-4a.69.69,0,0,1,.41-.53,1.54,1.54,0,0,1,.73-.17,1.16,1.16,0,0,1,.66.17.45.45,0,0,1,.21.53l-.77,4h1.28a.46.46,0,0,1,.48.31,1.12,1.12,0,0,1,.06.66,1.44,1.44,0,0,1-.34.66.74.74,0,0,1-.57.3H287l-.63,3.32a.74.74,0,0,1-.42.54,1.52,1.52,0,0,1-.73.18,1.16,1.16,0,0,1-.66-.18.48.48,0,0,1-.21-.54Z"/><polygon class="cls-6" points="354.86 425.71 289.25 425.71 301.8 360.11 367.4 360.11 354.86 425.71"/><path class="cls-5" d="M355.3,426.26H288.6l12.75-66.7h66.7Zm-65.4-1.09h64.51l12.34-64.51H302.24Z"/><path class="cls-7" d="M334.41,371.65a4.48,4.48,0,0,1,.69-1.67,5.37,5.37,0,0,1,1.26-1.3,5.84,5.84,0,0,1,1.65-.84,6,6,0,0,1,1.88-.3,4.77,4.77,0,0,1,1.88.35,3.59,3.59,0,0,1,1.39,1,3.64,3.64,0,0,1,.76,1.49,4.23,4.23,0,0,1,0,1.88,5.54,5.54,0,0,1-1,2.32,11.49,11.49,0,0,1-1.83,1.86,18.21,18.21,0,0,1-2.21,1.55c-.78.48-1.5.93-2.18,1.38a13.33,13.33,0,0,0-1.72,1.32,2.6,2.6,0,0,0-.85,1.4l-.24,1.23h7.39a.48.48,0,0,1,.44.27.93.93,0,0,1,.08.65,1.38,1.38,0,0,1-.33.63.73.73,0,0,1-.55.28h-8.55a1,1,0,0,1-.57-.19.48.48,0,0,1-.21-.53l.44-2.34a3.81,3.81,0,0,1,.94-1.81,11.19,11.19,0,0,1,1.79-1.59c.68-.5,1.42-1,2.21-1.47s1.53-1,2.22-1.46a10.73,10.73,0,0,0,1.78-1.61,3.67,3.67,0,0,0,.94-1.82,2.91,2.91,0,0,0,0-1,2.35,2.35,0,0,0-.37-.94,2,2,0,0,0-.78-.67,2.75,2.75,0,0,0-1.25-.26,3.52,3.52,0,0,0-2.06.64,3,3,0,0,0-1.16,2,.94.94,0,0,1-.38.55,1.36,1.36,0,0,1-.83.24.74.74,0,0,1-.63-.25A1.21,1.21,0,0,1,334.41,371.65Z"/><path class="cls-7" d="M350.13,374.63a6.87,6.87,0,0,1,2,.27,3.19,3.19,0,0,1,1.48.87,3.09,3.09,0,0,1,.8,1.53,5.71,5.71,0,0,1,0,2.32l-.09.45a7.36,7.36,0,0,1-.86,2.41,5.45,5.45,0,0,1-3.23,2.51,7.52,7.52,0,0,1-2.08.28,6.26,6.26,0,0,1-2.15-.34,3.8,3.8,0,0,1-1.44-.92,2.94,2.94,0,0,1-.76-1.32,3.39,3.39,0,0,1-.05-1.59,1.09,1.09,0,0,1,.43-.75,1.34,1.34,0,0,1,.77-.21.93.93,0,0,1,.75.23.72.72,0,0,1,.1.59,1.76,1.76,0,0,0,.56,1.84,3.33,3.33,0,0,0,2.12.64,3.78,3.78,0,0,0,2.49-.83,4.17,4.17,0,0,0,1.33-2.54l.08-.45a2.9,2.9,0,0,0-.36-2.5,2.67,2.67,0,0,0-2.15-.8h-3.42c-.37,0-.6-.08-.7-.23a.76.76,0,0,1-.09-.57,5.5,5.5,0,0,1,.15-.53l1.8-6.73a1.31,1.31,0,0,1,.25-.53.54.54,0,0,1,.42-.19h6.92a.42.42,0,0,1,.44.29,1.17,1.17,0,0,1,0,.62,1.53,1.53,0,0,1-.27.63.64.64,0,0,1-.55.28h-5.7l-1.37,5.27Z"/><polygon class="cls-6" points="420.46 425.71 354.86 425.71 367.4 360.11 433.01 360.11 420.46 425.71"/><path class="cls-5" d="M420.9,426.26H354.2L367,359.56h66.7Zm-65.39-1.09H420l12.34-64.51H367.84Z"/><path class="cls-7" d="M399,371.65a4.17,4.17,0,0,1,.69-1.67,5.19,5.19,0,0,1,1.26-1.3,5.59,5.59,0,0,1,1.65-.84,6,6,0,0,1,1.87-.3,4.74,4.74,0,0,1,1.88.35,3.63,3.63,0,0,1,1.4,1,3.76,3.76,0,0,1,.76,1.49,4.39,4.39,0,0,1,0,1.88,5.42,5.42,0,0,1-1,2.32,11.42,11.42,0,0,1-1.82,1.86A19.92,19.92,0,0,1,403.5,378c-.78.48-1.51.93-2.18,1.38a12.67,12.67,0,0,0-1.72,1.32,2.62,2.62,0,0,0-.86,1.4l-.23,1.23h7.38a.47.47,0,0,1,.44.27.83.83,0,0,1,.08.65,1.35,1.35,0,0,1-.32.63.73.73,0,0,1-.55.28H397a1,1,0,0,1-.57-.19.5.5,0,0,1-.21-.53l.45-2.34a3.71,3.71,0,0,1,.93-1.81,11.64,11.64,0,0,1,1.79-1.59c.69-.5,1.43-1,2.22-1.47s1.52-1,2.21-1.46a10.81,10.81,0,0,0,1.79-1.61,3.76,3.76,0,0,0,.94-1.82,2.91,2.91,0,0,0,0-1,2.35,2.35,0,0,0-.37-.94,2,2,0,0,0-.78-.67,2.8,2.8,0,0,0-1.26-.26,3.51,3.51,0,0,0-2.05.64,3,3,0,0,0-1.16,2,1,1,0,0,1-.39.55,1.34,1.34,0,0,1-.83.24.72.72,0,0,1-.62-.25A1.21,1.21,0,0,1,399,371.65Z"/><path class="cls-7" d="M415.79,374.66a6.33,6.33,0,0,1,1.85.24,3.11,3.11,0,0,1,1.38.8,3,3,0,0,1,.75,1.49,6.14,6.14,0,0,1-.06,2.32l-.1.51a7.52,7.52,0,0,1-.87,2.44,5.44,5.44,0,0,1-1.4,1.62,5.24,5.24,0,0,1-1.83.91,7.52,7.52,0,0,1-2.08.28,6.54,6.54,0,0,1-2-.28,3.44,3.44,0,0,1-1.49-.91,3.17,3.17,0,0,1-.79-1.62,6.38,6.38,0,0,1,.07-2.44l1.38-7.24a7.52,7.52,0,0,1,.88-2.44,5.62,5.62,0,0,1,1.42-1.62,5.24,5.24,0,0,1,1.83-.91,8.33,8.33,0,0,1,2.15-.27,5.5,5.5,0,0,1,2.15.36,3.87,3.87,0,0,1,1.41.94,3.11,3.11,0,0,1,.7,1.36,3.71,3.71,0,0,1,0,1.52,1,1,0,0,1-.38.7,1.26,1.26,0,0,1-.73.19,1.33,1.33,0,0,1-.71-.17.53.53,0,0,1-.2-.62,1.91,1.91,0,0,0-.06-1,2,2,0,0,0-.53-.78,2.5,2.5,0,0,0-.9-.49,4.09,4.09,0,0,0-1.2-.17,3.84,3.84,0,0,0-2.51.84,4.26,4.26,0,0,0-1.34,2.58l-.64,3.36a4.73,4.73,0,0,1,1.75-1.14A6,6,0,0,1,415.79,374.66Zm-4.55,5.46a3.06,3.06,0,0,0,.35,2.6,2.68,2.68,0,0,0,2.17.81,3.78,3.78,0,0,0,2.48-.81,4.25,4.25,0,0,0,1.32-2.6l.1-.5a2.9,2.9,0,0,0-.34-2.53,2.84,2.84,0,0,0-2.18-.75,4.21,4.21,0,0,0-2.45.69,3.6,3.6,0,0,0-1.31,2.36Z"/><polygon class="cls-6" points="486.06 425.71 420.46 425.71 433.01 360.11 498.61 360.11 486.06 425.71"/><path class="cls-5" d="M486.51,426.26h-66.7l12.75-66.7h66.7Zm-65.4-1.09h64.51L498,360.66H433.45Z"/><path class="cls-7" d="M466,371.65a4.48,4.48,0,0,1,.69-1.67,5.37,5.37,0,0,1,1.26-1.3,5.84,5.84,0,0,1,1.65-.84,6,6,0,0,1,1.88-.3,4.77,4.77,0,0,1,1.88.35,3.47,3.47,0,0,1,2.15,2.46,4.38,4.38,0,0,1,0,1.88,5.43,5.43,0,0,1-1,2.32,11,11,0,0,1-1.82,1.86,19,19,0,0,1-2.21,1.55c-.78.48-1.51.93-2.18,1.38a13.33,13.33,0,0,0-1.72,1.32,2.54,2.54,0,0,0-.85,1.4l-.24,1.23h7.38a.48.48,0,0,1,.45.27.93.93,0,0,1,.08.65,1.38,1.38,0,0,1-.33.63.73.73,0,0,1-.55.28h-8.56a1,1,0,0,1-.56-.19.49.49,0,0,1-.22-.53l.45-2.34a3.81,3.81,0,0,1,.94-1.81,11.55,11.55,0,0,1,1.78-1.59c.69-.5,1.43-1,2.22-1.47s1.52-1,2.21-1.46a10.81,10.81,0,0,0,1.79-1.61,3.76,3.76,0,0,0,.94-1.82,2.91,2.91,0,0,0,0-1,2.35,2.35,0,0,0-.37-.94,2,2,0,0,0-.78-.67,2.75,2.75,0,0,0-1.25-.26,3.52,3.52,0,0,0-2.06.64,3,3,0,0,0-1.16,2,.94.94,0,0,1-.38.55,1.36,1.36,0,0,1-.83.24.74.74,0,0,1-.63-.25A1.21,1.21,0,0,1,466,371.65Z"/><path class="cls-7" d="M487.63,370.5a1.75,1.75,0,0,1-.18.49,5.49,5.49,0,0,1-.35.54l-9.37,13.31a.83.83,0,0,1-.72.33,1.19,1.19,0,0,1-.8-.27.64.64,0,0,1-.24-.69,1.23,1.23,0,0,1,.17-.41l9.43-13.06.26-1.38H479.5l-.48,2.53a.78.78,0,0,1-.4.52,1.44,1.44,0,0,1-.74.2,1.12,1.12,0,0,1-.68-.2.51.51,0,0,1-.2-.52l.7-3.63a.82.82,0,0,1,.38-.5,1.24,1.24,0,0,1,.67-.22h8.54a.91.91,0,0,1,.57.22.51.51,0,0,1,.2.5Z"/><polygon class="cls-6" points="551.67 425.71 486.06 425.71 498.61 360.11 564.22 360.11 551.67 425.71"/><path class="cls-5" d="M552.11,426.26h-66.7l12.76-66.7h66.7Zm-65.39-1.09h64.51l12.33-64.51H499.05Z"/><path class="cls-5" d="M530.6,371.65a4.48,4.48,0,0,1,.69-1.67,5.37,5.37,0,0,1,1.26-1.3,5.84,5.84,0,0,1,1.65-.84,6,6,0,0,1,1.88-.3,4.77,4.77,0,0,1,1.88.35,3.59,3.59,0,0,1,1.39,1,3.64,3.64,0,0,1,.76,1.49,4.23,4.23,0,0,1,0,1.88,5.43,5.43,0,0,1-1,2.32,11,11,0,0,1-1.82,1.86,19,19,0,0,1-2.21,1.55c-.78.48-1.5.93-2.18,1.38a13.33,13.33,0,0,0-1.72,1.32,2.6,2.6,0,0,0-.85,1.4l-.24,1.23h7.38a.48.48,0,0,1,.45.27.93.93,0,0,1,.08.65,1.38,1.38,0,0,1-.33.63.73.73,0,0,1-.55.28h-8.56a1,1,0,0,1-.56-.19.47.47,0,0,1-.21-.53l.44-2.34a3.81,3.81,0,0,1,.94-1.81,11.55,11.55,0,0,1,1.78-1.59c.69-.5,1.43-1,2.22-1.47s1.52-1,2.22-1.46a11.15,11.15,0,0,0,1.78-1.61,3.67,3.67,0,0,0,.94-1.82,2.91,2.91,0,0,0,0-1,2.35,2.35,0,0,0-.37-.94,2,2,0,0,0-.78-.67,2.75,2.75,0,0,0-1.25-.26,3.52,3.52,0,0,0-2.06.64,3,3,0,0,0-1.16,2,.94.94,0,0,1-.38.55,1.36,1.36,0,0,1-.83.24.74.74,0,0,1-.63-.25A1.21,1.21,0,0,1,530.6,371.65Z"/><path class="cls-5" d="M548,367.54a7.28,7.28,0,0,1,1.82.21,3.21,3.21,0,0,1,1.34.72,2.77,2.77,0,0,1,.73,1.31,5,5,0,0,1,0,2,5.23,5.23,0,0,1-1.06,2.44,4.37,4.37,0,0,1-1.82,1.31,3.18,3.18,0,0,1,1.64,1.55,4.74,4.74,0,0,1,.17,2.95l-.05.29a6.81,6.81,0,0,1-.84,2.28,5.35,5.35,0,0,1-1.39,1.55,5.21,5.21,0,0,1-1.81.86,8,8,0,0,1-2.09.27,7,7,0,0,1-2-.27,3.12,3.12,0,0,1-2.29-2.41,5.71,5.71,0,0,1,0-2.28l.05-.29a6.14,6.14,0,0,1,1.3-2.95,5.43,5.43,0,0,1,2.26-1.55,2.51,2.51,0,0,1-1.35-1.31,4.08,4.08,0,0,1-.13-2.44,6,6,0,0,1,.74-2,4.29,4.29,0,0,1,1.23-1.31,5.1,5.1,0,0,1,1.63-.72A8.28,8.28,0,0,1,548,367.54Zm.81,12.19a3,3,0,0,0-.35-2.52,2.73,2.73,0,0,0-2.16-.8,3.85,3.85,0,0,0-2.49.8,4.05,4.05,0,0,0-1.32,2.52l-.08.39a3.1,3.1,0,0,0,.35,2.6,2.69,2.69,0,0,0,2.18.81,3.71,3.71,0,0,0,2.48-.84,4.36,4.36,0,0,0,1.32-2.57Zm-1.15-10.46a3.44,3.44,0,0,0-2.12.62,3.2,3.2,0,0,0-1.11,2.07,2.36,2.36,0,0,0,.31,2.08,2.44,2.44,0,0,0,1.89.64,3.38,3.38,0,0,0,2.12-.64,3.28,3.28,0,0,0,1.12-2.08,2.3,2.3,0,0,0-.33-2.07A2.53,2.53,0,0,0,547.7,369.27Z"/><polygon class="cls-6" points="145.49 491.32 79.89 491.32 92.44 425.71 158.04 425.71 145.49 491.32"/><path class="cls-5" d="M145.94,491.86H79.24L92,425.17h66.7Zm-65.4-1.09h64.51l12.34-64.51H92.88Z"/><path class="cls-7" d="M124.06,437.25a4.48,4.48,0,0,1,.69-1.67,5.41,5.41,0,0,1,1.27-1.3,6.11,6.11,0,0,1,1.65-.84,6,6,0,0,1,1.87-.3,5,5,0,0,1,1.88.35,3.52,3.52,0,0,1,1.39,1,3.56,3.56,0,0,1,.76,1.5,4.19,4.19,0,0,1,0,1.87,5.48,5.48,0,0,1-1,2.32,11.1,11.1,0,0,1-1.83,1.86,18.28,18.28,0,0,1-2.21,1.56c-.78.47-1.5.93-2.17,1.37a13.68,13.68,0,0,0-1.73,1.32,2.63,2.63,0,0,0-.85,1.41l-.24,1.22h7.39a.48.48,0,0,1,.44.27.93.93,0,0,1,.08.65,1.27,1.27,0,0,1-.32.63.74.74,0,0,1-.55.28H122a1,1,0,0,1-.57-.19.48.48,0,0,1-.21-.53l.45-2.33a3.7,3.7,0,0,1,.93-1.82,12.25,12.25,0,0,1,1.79-1.59c.68-.5,1.42-1,2.21-1.47a24.34,24.34,0,0,0,2.22-1.46,11.15,11.15,0,0,0,1.78-1.6,3.85,3.85,0,0,0,.95-1.83,3.17,3.17,0,0,0,0-1,2.21,2.21,0,0,0-.36-.93,2,2,0,0,0-.79-.68,2.76,2.76,0,0,0-1.25-.25,3.46,3.46,0,0,0-2.05.63,3,3,0,0,0-1.17,2,.9.9,0,0,1-.38.55,1.34,1.34,0,0,1-.83.24.71.71,0,0,1-.62-.25A1.24,1.24,0,0,1,124.06,437.25Z"/><path class="cls-7" d="M139.11,443.75a6.61,6.61,0,0,1-1.84-.24,3,3,0,0,1-1.38-.81,3.05,3.05,0,0,1-.75-1.49,6.14,6.14,0,0,1,.06-2.32l.1-.51a7.37,7.37,0,0,1,.86-2.43,5.35,5.35,0,0,1,3.23-2.54,8,8,0,0,1,2.08-.27,7,7,0,0,1,2,.27,3.4,3.4,0,0,1,1.47.91,3.33,3.33,0,0,1,.79,1.63,6.33,6.33,0,0,1-.07,2.43l-1.39,7.24a7,7,0,0,1-.88,2.44,5.64,5.64,0,0,1-1.41,1.63,5.51,5.51,0,0,1-1.85.91,8.29,8.29,0,0,1-2.13.27,5.65,5.65,0,0,1-2.15-.36,3.77,3.77,0,0,1-1.41-.95,3.13,3.13,0,0,1-.7-1.35,3.59,3.59,0,0,1,0-1.53,1,1,0,0,1,.38-.69,1.26,1.26,0,0,1,.75-.2,1.46,1.46,0,0,1,.71.17.53.53,0,0,1,.2.62,1.83,1.83,0,0,0,.59,1.8,2.31,2.31,0,0,0,.89.49,4,4,0,0,0,1.18.17,3.84,3.84,0,0,0,2.52-.83,4.25,4.25,0,0,0,1.33-2.59l.64-3.36a4.47,4.47,0,0,1-1.73,1.14A6.19,6.19,0,0,1,139.11,443.75Zm4.55-5.46a3.11,3.11,0,0,0-.33-2.6,2.67,2.67,0,0,0-2.19-.82,3.75,3.75,0,0,0-2.48.82,4.35,4.35,0,0,0-1.32,2.6l-.1.5a2.9,2.9,0,0,0,.35,2.53,2.86,2.86,0,0,0,2.2.75,4.15,4.15,0,0,0,2.43-.7,3.57,3.57,0,0,0,1.3-2.36Z"/><polygon class="cls-6" points="211.1 491.32 145.49 491.32 158.04 425.71 223.65 425.71 211.1 491.32"/><path class="cls-5" d="M211.54,491.86h-66.7l12.76-66.69h66.7Zm-65.39-1.09h64.51L223,426.26H158.48Z"/><path class="cls-7" d="M191.34,449a3.93,3.93,0,0,0,2.56-.79,4.25,4.25,0,0,0,1.3-2.53l.08-.46a2.26,2.26,0,0,0-.44-2.25,3.22,3.22,0,0,0-2.22-.68.48.48,0,0,1-.49-.25,1,1,0,0,1,0-.59,1.34,1.34,0,0,1,.27-.58.69.69,0,0,1,.59-.26,5.51,5.51,0,0,0,1.19-.12,2.5,2.5,0,0,0,1-.45,2.61,2.61,0,0,0,.73-.89,5.11,5.11,0,0,0,.46-1.43,2.59,2.59,0,0,0-.25-2.14,2.29,2.29,0,0,0-1.9-.68,4.26,4.26,0,0,0-1.43.22,2.8,2.8,0,0,0-1,.56,2.34,2.34,0,0,0-.57.74,3,3,0,0,0-.28.79,1.08,1.08,0,0,1-.34.65,1.13,1.13,0,0,1-.79.24q-.65,0-.81-.21a1.09,1.09,0,0,1-.05-.82,5.06,5.06,0,0,1,.45-1.23,4.67,4.67,0,0,1,1-1.3,6,6,0,0,1,1.69-1,6.46,6.46,0,0,1,2.48-.42,6.63,6.63,0,0,1,1.81.23,3,3,0,0,1,1.32.73,2.62,2.62,0,0,1,.69,1.32,4.76,4.76,0,0,1,0,2,6.39,6.39,0,0,1-1.05,2.61,4.26,4.26,0,0,1-1.67,1.43,3.16,3.16,0,0,1,1.5,1.34,3.59,3.59,0,0,1,.22,2.48l-.08.46a7.6,7.6,0,0,1-.87,2.4,5.41,5.41,0,0,1-3.28,2.48,7.91,7.91,0,0,1-2.08.27,5.59,5.59,0,0,1-2.24-.39,3.79,3.79,0,0,1-1.4-1,3.11,3.11,0,0,1-.68-1.31,3.58,3.58,0,0,1,0-1.42A1.23,1.23,0,0,1,187,446a1.25,1.25,0,0,1,.75-.19,1.12,1.12,0,0,1,.8.2.79.79,0,0,1,.09.59,2,2,0,0,0,0,.81,1.8,1.8,0,0,0,.39.78,2.24,2.24,0,0,0,.86.6A4.09,4.09,0,0,0,191.34,449Z"/><path class="cls-7" d="M203.69,450.87a6.87,6.87,0,0,1-2-.27,3.17,3.17,0,0,1-2.26-2.54,6.59,6.59,0,0,1,.07-2.44l1.39-7.24a7.37,7.37,0,0,1,.86-2.43,5.61,5.61,0,0,1,1.4-1.63,5.51,5.51,0,0,1,1.83-.91,7.91,7.91,0,0,1,2.08-.27,6.82,6.82,0,0,1,2,.27,3.53,3.53,0,0,1,1.49.91,3.25,3.25,0,0,1,.79,1.63,6.31,6.31,0,0,1-.06,2.43l-1.39,7.24a7.44,7.44,0,0,1-.86,2.44,5.39,5.39,0,0,1-3.25,2.54A8,8,0,0,1,203.69,450.87Zm5.56-12.49a3.11,3.11,0,0,0-.34-2.58,2.68,2.68,0,0,0-2.18-.83,3.75,3.75,0,0,0-2.48.83,4.25,4.25,0,0,0-1.32,2.58l-1.39,7.24a3.12,3.12,0,0,0,.34,2.59A2.63,2.63,0,0,0,204,449a3.78,3.78,0,0,0,2.49-.83,4.2,4.2,0,0,0,1.33-2.59Zm-3.66,2.7a.76.76,0,0,1,.62.26.8.8,0,0,1,.14.67,1.21,1.21,0,0,1-.4.69,1.09,1.09,0,0,1-.72.28.77.77,0,0,1-.65-.28.84.84,0,0,1-.14-.69,1.15,1.15,0,0,1,1.15-.93Z"/><polygon class="cls-6" points="276.7 491.32 211.1 491.32 223.65 425.71 289.25 425.71 276.7 491.32"/><path class="cls-5" d="M277.15,491.86h-66.7l12.75-66.69h66.7Zm-65.4-1.09h64.51l12.34-64.51H224.09Z"/><path class="cls-7" d="M264,449a3.93,3.93,0,0,0,2.56-.79,4.19,4.19,0,0,0,1.3-2.53l.08-.46a2.26,2.26,0,0,0-.44-2.25,3.22,3.22,0,0,0-2.22-.68.48.48,0,0,1-.49-.25,1,1,0,0,1,0-.59,1.34,1.34,0,0,1,.27-.58.7.7,0,0,1,.59-.26,5.51,5.51,0,0,0,1.19-.12,2.5,2.5,0,0,0,1-.45,2.61,2.61,0,0,0,.73-.89,5.11,5.11,0,0,0,.46-1.43,2.59,2.59,0,0,0-.25-2.14,2.29,2.29,0,0,0-1.9-.68,4.26,4.26,0,0,0-1.43.22,2.9,2.9,0,0,0-1,.56,2.34,2.34,0,0,0-.57.74,2.65,2.65,0,0,0-.27.79,1.15,1.15,0,0,1-.35.65,1.13,1.13,0,0,1-.79.24q-.64,0-.81-.21a1.14,1.14,0,0,1-.05-.82,5.06,5.06,0,0,1,.45-1.23,4.67,4.67,0,0,1,1-1.3,6,6,0,0,1,1.69-1,6.46,6.46,0,0,1,2.48-.42,6.63,6.63,0,0,1,1.81.23,3,3,0,0,1,1.32.73,2.62,2.62,0,0,1,.69,1.32,4.76,4.76,0,0,1,0,2A6.39,6.39,0,0,1,269.9,440a4.26,4.26,0,0,1-1.67,1.43,3.16,3.16,0,0,1,1.5,1.34,3.59,3.59,0,0,1,.22,2.48l-.08.46a7.36,7.36,0,0,1-.87,2.4,5.41,5.41,0,0,1-3.28,2.48,7.91,7.91,0,0,1-2.08.27,5.59,5.59,0,0,1-2.24-.39,3.79,3.79,0,0,1-1.4-1,3,3,0,0,1-.67-1.31,3.41,3.41,0,0,1,0-1.42,1.23,1.23,0,0,1,.36-.75,1.27,1.27,0,0,1,.75-.19,1.1,1.1,0,0,1,.8.2.79.79,0,0,1,.09.59,2,2,0,0,0,0,.81,1.8,1.8,0,0,0,.39.78,2.24,2.24,0,0,0,.86.6A4.09,4.09,0,0,0,264,449Z"/><path class="cls-7" d="M275,436.15l-1.14,1.32a.86.86,0,0,1-.56.27.56.56,0,0,1-.5-.26.83.83,0,0,1-.09-.59,1.35,1.35,0,0,1,.23-.47,1.3,1.3,0,0,1,.37-.37l2.71-2.62a2.18,2.18,0,0,1,.31-.22.79.79,0,0,1,.38-.09.92.92,0,0,1,.58.19.5.5,0,0,1,.17.53L274.39,450a.74.74,0,0,1-.42.54,1.55,1.55,0,0,1-.73.18,1.16,1.16,0,0,1-.66-.18.46.46,0,0,1-.21-.54Z"/><polygon class="cls-6" points="342.31 491.32 276.7 491.32 289.25 425.71 354.86 425.71 342.31 491.32"/><path class="cls-5" d="M342.75,491.86h-66.7l12.76-66.69h66.7Zm-65.4-1.09h64.52l12.33-64.51H289.69Z"/><polygon class="cls-6" points="407.91 491.32 342.31 491.32 354.86 425.71 420.46 425.71 407.91 491.32"/><path class="cls-5" d="M408.35,491.86H341.66l12.75-66.69h66.7ZM343,490.77h64.51l12.34-64.51H355.3Z"/><polygon class="cls-6" points="473.52 491.32 407.91 491.32 420.46 425.71 486.06 425.71 473.52 491.32"/><path class="cls-5" d="M474,491.86h-66.7L420,425.17h66.7Zm-65.4-1.09h64.52l12.33-64.51H420.9Z"/><polygon class="cls-6" points="539.12 491.32 473.52 491.32 486.06 425.71 551.67 425.71 539.12 491.32"/><path class="cls-5" d="M539.56,491.86H472.87l12.75-66.69h66.7Zm-65.39-1.09h64.51L551,426.26H486.51Z"/><polygon class="cls-6" points="607.57 289.25 588.73 289.25 612.82 163.29 631.66 163.29 607.57 289.25"/><path class="cls-5" d="M608.46,290.34h-21L611.94,162.2h21ZM590,288.15h16.65l23.67-123.76H613.71Z"/><path class="cls-8" d="M149.16,138.71a8.91,8.91,0,0,1-2.91,4.95,8.72,8.72,0,0,1-5.65,2.24,5.76,5.76,0,0,1-5.81-7.19,7.6,7.6,0,0,1,.63-1.94,9.43,9.43,0,0,1,5-4.68,7.76,7.76,0,0,1,3-.6,5.61,5.61,0,0,1,5.88,5.18A6.12,6.12,0,0,1,149.16,138.71Z"/><path class="cls-8" d="M210.18,138.69a9.13,9.13,0,0,1-8.58,7.2,5.78,5.78,0,0,1-5.82-7.2,9.14,9.14,0,0,1,8.58-7.2A5.78,5.78,0,0,1,210.18,138.69Z"/><path class="cls-8" d="M271.18,138.69a9.13,9.13,0,0,1-8.57,7.2,5.78,5.78,0,0,1-5.83-7.2,9.14,9.14,0,0,1,8.58-7.2A5.78,5.78,0,0,1,271.18,138.69Z"/><path class="cls-8" d="M503.45,138.69a9.13,9.13,0,0,1-8.58,7.2,5.78,5.78,0,0,1-5.82-7.2,9.14,9.14,0,0,1,8.58-7.2A5.78,5.78,0,0,1,503.45,138.69Z"/><path class="cls-8" d="M564.45,138.69a9.13,9.13,0,0,1-8.57,7.2,5.78,5.78,0,0,1-5.83-7.2,9.14,9.14,0,0,1,8.58-7.2A5.78,5.78,0,0,1,564.45,138.69Z"/><path class="cls-8" d="M625.46,138.69a9.13,9.13,0,0,1-8.58,7.2,5.78,5.78,0,0,1-5.82-7.2,9.14,9.14,0,0,1,8.58-7.2A5.78,5.78,0,0,1,625.46,138.69Z"/><path class="cls-3" d="M147.25,92.63a13.56,13.56,0,0,0-9.39,4.07c-4.69,4.51-7.74,12.35-7.74,21.46,0,.47,0,.93,0,1.39,1.17-.15,1.18-.14,0,0,.23,6.82,2.17,12.87,5.24,17.21,2.81,4,6.59,6.55,10.83,6.89a8.91,8.91,0,0,0,2.91-4.95,6.12,6.12,0,0,0,.06-2,5.55,5.55,0,0,1-2,.37c-2.57,0-5-1.91-6.88-4.95a27.21,27.21,0,0,1-3.54-13c0-.33,0-.65,0-1,0-7,2.34-13.32,5.63-16.58a7,7,0,0,1,4.81-2.27c4.92,0,9.29,6.85,10.26,15.34h6.72C163.13,102.05,156.08,92.63,147.25,92.63Z"/><path class="cls-3" d="M208.3,92.63a13.56,13.56,0,0,0-9.39,4.07c-4.69,4.51-7.73,12.35-7.73,21.46,0,.47,0,.93,0,1.39,1.17-.15,1.18-.14,0,0,.23,6.82,2.17,12.87,5.25,17.21,2.8,4,6.58,6.55,10.82,6.89a8.91,8.91,0,0,0,2.91-4.95,6.14,6.14,0,0,0,.07-2,5.65,5.65,0,0,1-2,.37c-2.57,0-5-1.91-6.88-4.95a27.21,27.21,0,0,1-3.54-13c0-.33,0-.65,0-1,0-7,2.34-13.32,5.63-16.58a7,7,0,0,1,4.81-2.27c4.92,0,9.29,6.85,10.26,15.34h6.72C224.18,102.05,217.13,92.63,208.3,92.63Z"/><path class="cls-3" d="M269.36,92.63A13.52,13.52,0,0,0,260,96.7c-4.69,4.51-7.74,12.35-7.74,21.46,0,.47,0,.93,0,1.39,1.17-.15,1.18-.14,0,0,.23,6.82,2.17,12.87,5.25,17.21,2.8,4,6.58,6.55,10.82,6.89a8.85,8.85,0,0,0,2.91-4.95,5.88,5.88,0,0,0,.07-2,5.59,5.59,0,0,1-2,.37c-2.58,0-5-1.91-6.89-4.95a27.21,27.21,0,0,1-3.54-13c0-.33,0-.65,0-1,0-7,2.34-13.32,5.63-16.58a7,7,0,0,1,4.82-2.27c4.91,0,9.29,6.85,10.26,15.34h6.71C285.23,102.05,278.18,92.63,269.36,92.63Z"/><path class="cls-3" d="M501.59,92.63a13.52,13.52,0,0,0-9.39,4.07c-4.69,4.51-7.74,12.35-7.74,21.46,0,.47,0,.93,0,1.39,1.17-.15,1.18-.14,0,0,.23,6.82,2.17,12.87,5.25,17.21,2.8,4,6.58,6.55,10.82,6.89a8.91,8.91,0,0,0,2.91-4.95,6.14,6.14,0,0,0,.07-2,5.63,5.63,0,0,1-2,.37c-2.58,0-5-1.91-6.89-4.95a27.21,27.21,0,0,1-3.54-13c0-.33,0-.65,0-1,0-7,2.34-13.32,5.63-16.58a7,7,0,0,1,4.82-2.27c4.91,0,9.29,6.85,10.26,15.34h6.71C517.46,102.05,510.41,92.63,501.59,92.63Z"/><path class="cls-3" d="M562.64,92.63a13.52,13.52,0,0,0-9.39,4.07c-4.69,4.51-7.74,12.35-7.74,21.46,0,.47,0,.93,0,1.39,1.18-.15,1.18-.14,0,0,.24,6.82,2.17,12.87,5.25,17.21,2.81,4,6.58,6.55,10.83,6.89a8.84,8.84,0,0,0,2.9-4.95,5.88,5.88,0,0,0,.07-2,5.59,5.59,0,0,1-2,.37c-2.58,0-5-1.91-6.89-4.95a27.21,27.21,0,0,1-3.54-13c0-.33,0-.65,0-1,0-7,2.35-13.32,5.64-16.58a7,7,0,0,1,4.81-2.27c4.91,0,9.29,6.85,10.26,15.34h6.71C578.51,102.05,571.46,92.63,562.64,92.63Z"/><path class="cls-3" d="M623.69,92.63a13.52,13.52,0,0,0-9.39,4.07c-4.69,4.51-7.74,12.35-7.74,21.46,0,.47,0,.93.05,1.39,1.17-.15,1.17-.14,0,0,.24,6.82,2.18,12.87,5.25,17.21,2.81,4,6.58,6.55,10.83,6.89a8.84,8.84,0,0,0,2.9-4.95,5.88,5.88,0,0,0,.07-2,5.55,5.55,0,0,1-2,.37c-2.57,0-5-1.91-6.88-4.95a27,27,0,0,1-3.54-13c0-.33,0-.65,0-1,0-7,2.35-13.32,5.64-16.58a7,7,0,0,1,4.81-2.27c4.91,0,9.29,6.85,10.26,15.34h6.72C639.56,102.05,632.51,92.63,623.69,92.63Z"/><path class="cls-4" d="M338.15,197.31c8.33-9.91,8.87-31.16-6.65-35-14.53-3.58-32.95,4-36.82,19.43a1.55,1.55,0,0,0,2.81,1.19c.67-1.13,1.37-2.21,2.09-3.24-2.2,7-2,15,.86,20.87C308.77,217.66,328.88,208.33,338.15,197.31Zm-32.83,3.36c-3.57-4.77-2.75-13.46-1.72-18.92,1.28-6.79,6-11.16,12.27-13.4a1.76,1.76,0,0,0,1.29-1.69c.51-.15,1-.32,1.5-.45,16.08-4,25.19,10.63,18.74,24.31C332.52,200.87,314.49,212.93,305.32,200.67Z"/><path class="cls-4" d="M372.81,293.77c-7-2.18-17.52-.72-25.36,3.68-10.79,4.6-19,22.69-9.66,32.14,10.81,10.89,33,5.48,43.43-3.31C394.25,315.33,387.05,298.25,372.81,293.77Zm5.77,29.88c-7.11,7.54-22,9.25-31.67,7.33-7.68-1.52-9.9-7.69-9-14.32.4,1,2.05,1.1,2.27-.09,2.42-12.89,11.54-18.59,24.1-19.67C380.45,295.51,390.22,311.3,378.58,323.65Z"/><path class="cls-4" d="M512.62,282.78c1.14-1.62-1.35-3.42-2.69-2.07-11.64,11.71-21.48,25.16-33.24,36.84-.55.56-1.16,1.08-1.73,1.62-9.54-10.08-19.28-20-29.12-29.7a1.49,1.49,0,0,0-2.11,2.1c9.68,9.89,19.08,20,28.36,30.25-10.27,9-22.29,16.72-29.77,28.12-1.2,1.82,1.66,3.43,2.88,1.69,7.5-10.69,19.09-18.56,29.31-27.16,9.62,10.64,19.12,21.39,28.64,32.15,1.69,1.91,4.36-.86,2.77-2.77-9.1-11-18.63-21.58-28.39-32,1.35-1.2,2.68-2.41,4-3.66C492.48,307.35,503.72,295.45,512.62,282.78Z"/><path class="cls-4" d="M313.54,410.9l.47.38a2.28,2.28,0,0,0,2.63.34l.62-.28a2.17,2.17,0,0,0,1.09-1.89c.45-5.87-1.71-12.6-2.41-18.42-.8-6.66-1.26-13.35-1.58-20a2.17,2.17,0,0,0-2.16-2.16c-5.45.35-6.46,1.54-5.63,7.23.75,5.21,2.82,10.24,3.9,15.4,1.15,5.57,1.44,11.22,2.95,16.71A1.81,1.81,0,0,0,313.54,410.9Z"/><path class="cls-4" d="M317.41,415.41a1.78,1.78,0,0,0-1.36,0,1.87,1.87,0,0,0-1.46.91l-.86,1.65a1.91,1.91,0,0,0,.92,2.72,2.71,2.71,0,0,0,2.29,1.42,3.08,3.08,0,0,0,3.12-2.16,3.28,3.28,0,0,0,0-.62,3.91,3.91,0,0,0-.49-3A2.31,2.31,0,0,0,317.41,415.41Z"/><path class="cls-4" d="M327,410.68c.17-9.12-.16-18.25-.36-27.37-.09-4.16-.14-7.91-4.94-8.44a2,2,0,0,0-1.95,1.49c-1.16,5.32.42,11.34,1,16.71s.64,11.17,2.1,16.43c0,.51,0,.95,0,1.18C322.73,413.38,326.92,413.37,327,410.68Z"/><path class="cls-4" d="M329.75,418.14a2,2,0,0,0-1.85-1.41l-1.6-.05a1.88,1.88,0,0,0-1.67.95,6.71,6.71,0,0,0-.73,2.48,2.9,2.9,0,0,0,.83,3,1.89,1.89,0,0,0,1.89.5,1.71,1.71,0,0,0,1.1-.79,5.14,5.14,0,0,0,1.25-.44,2,2,0,0,0,1-1.73l0-1.24A4.53,4.53,0,0,0,329.75,418.14Z"/><path class="cls-4" d="M237.5,364.36c-8-6.12-22.22-6.95-32.72-2.39-4.74-2.11-9.24,3-12.74,6-5.78,5-7.62,11.84-5.62,19.12,4.8,17.52,27.35,15,39.65,9.11C237.33,390.79,252,375.4,237.5,364.36ZM228.85,390c-8.43,5.58-18.27,8.66-28.21,5.89a15.46,15.46,0,0,1-10.78-18.19c.42-1.92,2-4.31,4-6.55-1,1.77,1.27,3.63,2.61,2.17,7-7.57,15.33-9.79,25.4-10,6.3-.11,12.06,2.18,15.86,7.37C243.49,378.55,234.61,386.2,228.85,390Z"/><path class="cls-9" d="M388.79,242.93c22-5.15,43.56-8.89,64.27-10.31l-.07.45c0,.24-2.87-.06-2.87-.06l-.3,1.92,0,.28-1.93-.2-.29,1.89,0,.28-2.23-.24-.33,2.18,4.16.44-.34,2.2-1.92-.21-.34,2.18.85.09,1.08.11-.33,2.17-1.93-.2,0,.28-.29,1.92-2.23-.24-.34,2.18,2.24.23,0,.28-.28,1.9,1.92.2-.33,2.2-1.93-.2,0,.27-.29,1.9-2.23-.23-.29,1.89,0,.28,5.83.62-.34,2.2,5.14.54-6.81-.72-.29,1.9,0,.27-1.93-.2,0,.28-.29,1.89-.52-.05-.75-.08-.33,2.2,3.19.34-.33,2.17-.29,1.92,0,.28-4.16-.44-.29,1.9-.05.27,4.16.44-.28,1.9-.05.28,2.84.3-.33,2.2,8,.85-10.89-1.15L442.8,281l-1.93-.2-.33,2.17-2.23-.24-.05.28L438,285l4.16.45-.29,1.89,0,.28-1.93-.21-.33,2.18,1.93.2-.34,2.2-1.92-.2,0,.31-.29,1.86-2.23-.23-.29,1.89,0,.28,2.23.24-.33,2.2,1.93.2-.3,1.93c0,.24-2,0-2,0l-.33,2.17,16.09,1.71a49.66,49.66,0,0,0,12.15,5.37,48.9,48.9,0,0,0,13.53-2.51l-.45-.19,33.4,3.54,10.88,1.15a38.34,38.34,0,0,0,9.39,8.39c1.34.32,2.65.55,4,.75L532.89,338l-1.74,8.27L519,404.59,508,534.85l1.12.52-1.13.13c-1.26.15-2.47.27-3.66.42l-2.53.3-3.52.47c-.89.15-1.74.26-2.57.38l-3.39.55c-7.39,1.29-12.62,2.77-15.41,4.5h75.43c.86-3.79,1.75-8,2.65-12.42.61-3.12,1.23-6.23,1.79-9.47.66-3.75,1.33-7.67,2-11.68,4.86-30,7.42-66.73,5.83-96.2a8.77,8.77,0,0,1,.51-3.45c1.08-2.69,3.23-8.4,5.93-15.91l.57,14.71,17.33,106.47,3.74,23,1.12.3-1,.29-3.48,1c-.82.25-1.64.49-2.41.74-1.15.35-2.26.71-3.33,1.05l-2.42.81-2.12.74h58.87c0-6.41-.29-14.19-.81-22.91-.25-5.21-.66-10.71-1.12-16.46-2.61-30.23-9.06-66.56-17.75-95.17a8.9,8.9,0,0,1-.36-3.46c.82-6.52,3.63-30.1,5.22-54.45.15-3.11.31-6.27.51-9.38.87-19.65,2-33-1.07-42-.15-.43-.31-.94-.47-1.45,0-3.92-.24-5.77-.42-7.82h-1.38c6.37-1.21,10.35-16.88,10.35-16.88l15.59-59,3.45-8.33c6.86-14.69-2.46-22.13-7.2-24.78a19.42,19.42,0,0,0-2.46-1.19c-.13-.05-.26-.07-.39-.11l-22.79-10.35-6-6.77-1.3-8.73c.37,0,.68.07,1.09.06,14-8.84,16.47-19.68,17.57-28,1.76-13.26-8.67-22.62-23.35-26.57-25.14-6.77-34.69,7.59-29.44,9.61a31.08,31.08,0,0,0-7.47,12.52,26.39,26.39,0,0,0,.55,3.39l-7,8.69a2.68,2.68,0,0,0,1.22,4.21l2.65,1.3c-.44,1.75-2.83,9.13-2.83,9.13-1,4.13-.81,10.69,4.79,12.32l-11.05-1.17c-.28-3.52-1.53-6.9,1-10.93-20.54,7.57-51.4-1.9-79.5-7.95,1.9,3.29.6,6.79-2.9,10.24L463,148.47l-.31,2.17,9.85,1.05s-11.79-1.23-11.79-1.23l-.34,2.17,1.93.21L462,155l-1.93-.21-.33,2.2,2.24.24,1.46.16-5.93-.63-.33,2.17,2.23.24a49.33,49.33,0,0,1-6,2.75c2.5.35,4.95.71,7.37,1.07l-.11.76-1.93-.21-.05.32-.28,1.86-2.23-.24-.29,1.9,0,.27,5.83.62-.34,2.2-1.67-.18,0,.28-.29,1.9-1.93-.21,0,.28-.29,1.9-1.27-.14-.33,2.2,3.19.34-.33,2.17-.33,2.2-4.16-.44-.33,2.18,4.16.44-.29,1.9-.05.27,2.84.3-.27,1.8-.06.4-2.84-.3-.29,1.9,0,.28-1.93-.21-.05.32-.28,1.85-2.23-.23-.34,2.2,4.16.44-.33,2.17-1.93-.2-.33,2.17,1.93.21,0,.28-.3,1.92-1.92-.21,0,.28-.29,1.9-2.23-.24-.29,1.93c0,.24,2.19.48,2.19.48l-.33,2.2,1.93.2-.34,2.18-1.92-.21-.25,1.61-2.23-.24-.29,1.9,0,.28,5.83.62-.33,2.2-1.68-.18-.29,1.9,0,.27-1.93-.2-.33,2.17-1.26-.13c-2.56-.6-5.19-1.4-8.05-2.15-18-3.66-43.33-.42-69.56,3.65C383.43,226.43,390.58,233.31,388.79,242.93Z"/><path class="cls-10" d="M517.58,308.78l5.12.55C522.53,309.38,517.58,308.78,517.58,308.78Z"/><path class="cls-11" d="M594,82.07l.36-2.58,1.89.21.36-2.61-42-5.32s-4.09-.56-4.09-.56l-70.56-8.95-.31,2.61,20.52,2.61c-.09,0-22.47-2.83-22.47-2.83l-.33,2.61,4,.5-2-.26-.33,2.61,12.34,1.56L477,69.86l-.34,2.64,12.46,1.58-14.69-1.86-.33,2.6,2.23.29-.33,2.6,1.93.25-.34,2.64-1.92-.25L475.29,83l-2.23-.29-.33,2.61L486.15,87l-7.58-1-.34,2.64-1.67-.21-.33,2.61-1.93-.25L474,93.42l-1.27-.16-.34,2.63,13,1.66-9.83-1.25-.33,2.61-.34,2.64-4.16-.53-.33,2.6,4.16.53-.33,2.61,2.84.36-.33,2.64-2.84-.36-.34,2.6-1.92-.24-.34,2.61-2.23-.29-.33,2.64,12.38,1.57-8.22-1-.33,2.61,7.88,1-9.81-1.25-.33,2.61,9.46,1.2-7.54-1-.33,2.64-1.93-.24-.33,2.6,8.74,1.11-11-1.39-.33,2.61,2.23.28-.34,2.64,1.93.24-.33,2.61,5.8.74-7.73-1-.24,1.92-2.23-.28-.34,2.61,9.46,1.2-3.62-.46-.34,2.63-1.67-.21-.33,2.61,4.84.62-6.77-.87-.33,2.61-1.27-.16-.33,2.64,7.79,1-4.6-.59-.33,2.61L468,155.8l-4.16-.53-.34,2.64,8.72,1.1-4.56-.57-.33,2.6,4.59.58-1.75-.22-.33,2.61-2.84-.36-.33,2.64-1.93-.25-.33,2.61,6.65.85-8.88-1.13-.34,2.6,9,1.14L466,171.5l-.33,2.64-1.93-.25-.33,2.61,1.93.25-.33,2.6,5.14.66-7.07-.9-.34,2.64,7.25.92-9.48-1.21-.33,2.61,2.23.28-.33,2.61,7.63,1-5.7-.73-.34,2.64-1.92-.24-.34,2.6-2.23-.28-.33,2.61,5.83.74-.33,2.64,5.13.65-6.8-.86-.34,2.6-1.92-.24-.33,2.6.71.09-2-.25-.34,2.64,5,.64-1.83-.23-.33,2.6-.34,2.64,9,1.15-13.17-1.68-.33,2.61,4.16.53-.33,2.61,10.21,1.29-7.37-.93-.33,2.63,8.05,1L460,218.64l-.33,2.61-1.92-.24-.34,2.6-2.23-.28-.33,2.64,4.16.53-.33,2.6L473,230.92l-16.22-2.06-.33,2.6,1.92.25-.33,2.64-1.93-.25-.33,2.61-2.23-.28-.33,2.6,2.23.29-.34,2.63,1.93.25-.33,2.61-1.93-.25-.33,2.61L571.1,262l.33-2.6,1.93.24.33-2.61-1.92-.24.33-2.64-2.23-.28.33-2.61,2.23.28.33-2.6,1.93.24.34-2.64-1.93-.24.33-2.61,1.93.25.33-2.61-4.16-.53.33-2.64,2.24.29.33-2.61,1.93.24.33-2.6,2.84.36.33-2.64-2.84-.36.33-2.61-4.16-.53.33-2.6,4.16.53.67-5.25-3.2-.4.34-2.64,1.27.16.33-2.61,1.93.25.33-2.61,1.67.21.34-2.64-5.84-.74.34-2.6,2.23.28.33-2.61,1.93.25.33-2.64-1.93-.25.34-2.6-2.24-.29.33-2.6,2.24.28.33-2.64,1.93.25.33-2.61-1.93-.24.33-2.61,1.93.24.34-2.63-4.16-.53.33-2.61,2.23.28.33-2.6,1.93.24.33-2.64,2.84.36.34-2.6-2.84-.36.33-2.61-4.16-.53.33-2.64,4.16.53.66-5.21-3.19-.41.33-2.64,1.27.16.33-2.6,1.93.24.33-2.6,1.68.21.33-2.64-5.83-.74.24-1.9,2.21.28s.28-2.07.28-2.07l.08-.54,1.08.12.84.1s.22-1.72.22-1.72l.11-.88s-.79-.1-.79-.1l-1.15-.15s.33-2.48.33-2.48c0-.16-.25-.19-.25-.19l-2-.27.25-2,.09-.64,1.89.25.31,0s.31-2.3.31-2.3l0-.31,1.94.26.2-1.72.12-.93L587,137l.33-2.58,1.93.24s.21-1.66.21-1.66l.12-1-3.23-.41-.92-.11.11-.94.22-1.7,1.45.18.78.11c0-.1.33-2.61.33-2.61l1.92.26s.09-.68.09-.68l.27-1.93,2.81.36s.16-1.21.16-1.21l.2-1.45-2.86-.36.14-1.11.21-1.5-1.64-.2-2.55-.32s.21-1.55.21-1.55l.14-1.05,2.46.3,1.69.22.34-2.64.33-2.61-3.18-.4.18-1.53.14-1.11,1.27.16.05-.37.3-2.23,1.64.21c.27,0,.41-1.1.41-1.1l.2-1.48,1.66.22.3-2.35,0-.27s-4.77-.63-4.77-.63l-1.06-.14,0-.38.29-2.22.25,0,2,.27.35-2.61.71.08,1.2.15.18-1.41.16-1.22-1.21-.16-.73-.1.06-.44.3-2.16-.6-.07-1.65-.21.1-.81.22-1.78,1.78.21.46,0c0-.2.35-2.61.35-2.61l1.15.12.76.1.21-1.65.13-1-.86-.09L594,82.08ZM505.28,68.14l47.06,6s-46.94-5.95-46.94-5.95Zm-13,1,2,.25Z"/><path class="cls-12" d="M480.47,229.88l7.6,5,3.73,7.68,4.5,3.82c1.67,1.3-.76,3.7-3,2.24-3.09-1.27-6.34-5-9.94-8-.49-.42-1.18.38-1.68,0l5.65,7.68,8.84,4.38a41.74,41.74,0,0,1-13.54,3c-6.62-2.24-11.68-5.88-16.17-9.49-1.71-5.2-3.38-8.43-2.25-14.63l-2-9.41,13.77-.9Z"/><path class="cls-13" d="M519.5,153.68c1.49-.36,29.71-7.52,31.2-7.88,2.4,40.3,3.73,62,5.21,85.3,0,0,2.61,2.35,23.78,5.67,1.48.21,3,.41,4.45.52a86.5,86.5,0,0,0,11.4.15c1.53-.05,3-.15,4.5-.31,12.22-1,25.41-4,32.52-5.52,2.05-.41,3.63-.72,4.5-.82,6.39-1.38,10.38-20.25,10.38-20.25L663,139.82l3.45-10-6.16-6.26-1-23.45-25.65-14L625.1,81,612.82,73.6l-21.17,9.72-6,2.71-19.58,9A43.56,43.56,0,0,0,547,110.32Z"/><path class="cls-14" d="M627.64,78,622.75,38.9c-13.38,1.65-31.3,3.53-34.48,3.28,0,0,3,25.55,3,35.84C589.18,104.76,605.91,107.12,627.64,78Z"/><path class="cls-12" d="M634.07,54.48c3.92-5.61,4.53-8.35,6.36-15.11C646.94,8.09,628.84,8,617.8,5.1c-13-2.78-27.41,3.12-33.06,23.6a36.08,36.08,0,0,0,.54,4.06l-7,10.43a3.53,3.53,0,0,0,1.23,5.05l2.65,1.55c-.44,2.1-2.83,11-2.83,11-1.08,5.31-.86,14.06,6,15.18,19.8,3.19,29.42-4.31,32.32-22.42C622.48,54.15,631.2,58.6,634.07,54.48Z"/><path class="cls-15" d="M627.43,67.63c-16.36.31-4.14-21.71-4.14-21.71s-5.34,3.68-7.47,5.36c-3.26-.89-3.69-.54-6.6-1.55,3.88-20.65,12.36-34.9-17-36C587,11.26,596.51-6,621.65,2.16,636.33,6.89,646.76,18.11,645,34,643.89,44,641.39,57,627.43,67.63Z"/><path class="cls-12" d="M626.62,47.13c-1.18,4.86-6.48,9.43-9.53,8.62s-2.31-5-1.17-9.82c.75-3.22,1.64-7.7,5.23-7.83C624.29,38,628.36,40,626.62,47.13Z"/><path class="cls-6" d="M633.65,86.13l-6-8.11c-7,8.94-18.07,14.93-31.07,19.56l11.77,16A77.94,77.94,0,0,0,633.65,86.13Z"/><path class="cls-6" d="M596.57,97.58l-13.62,8,2.71-19.52,5.63-8C591.54,85.33,592.7,92.16,596.57,97.58Z"/><path class="cls-16" d="M544.4,545.08l0,.63-.12,2-.23,3.91-.11,1.74c.77.17,1.56.35,2.33.54,5.38,1.21,10.9,2.23,15.44.77l.72-4-9.57-2.95-1.65-.52-6.55-2Z"/><path class="cls-16" d="M491.49,537.61l-.49,5.21c9.91,5.8,27.08,9.07,50.5,8.83l2.51,0c1.39,0,2.8-.07,4.23-.13q6.76-.22,14.15-.86c0-.19.4-4.41.4-4.41s0-.31.05-.47l.14-1.52-7.33-.69-2.4-.2-7.47-.7Z"/><path class="cls-17" d="M562.8,546.22c-2.07.82-5.59,1.29-10,1.46-2.6.13-5.49.14-8.58.05-.27,0-.55,0-.82,0-20.46-.65-48.63-5.08-51.94-10.1.34-3.56,6.7-6.36,17.71-8.65,1.08-.22,2.2-.44,3.39-.66.83-.15,1.68-.29,2.57-.46,1.13-.18,2.3-.38,3.51-.56l2.53-.38,3.67-.49c1.47-.2,3-.39,4.49-.58l5-.55c8.14-.87,14,0,18.22,1.73a15.91,15.91,0,0,1,9.72,11.33,22.66,22.66,0,0,1,.61,5.89c0,.57,0,1.07-.07,1.53C562.83,545.92,562.8,546.08,562.8,546.22Z"/><path class="cls-18" d="M524.87,525.64l1.13.61,28.68,17.23,5.73,3.43,2.2,1.28,3.27,2c.26-1.18.56-2.45.87-3.78,1.59-7.06,3.32-16.26,5.11-26.95.62-3.74,1.23-7.47,1.79-11.35.67-4.5,1.33-9.21,2-14,4.86-36,7.41-80,5.83-115.36a12.46,12.46,0,0,1,.51-4.14c1.07-3.22,3.22-10.07,5.93-19.07,2.92-9.67,6.5-21.89,10-34.72q2-7.14,3.84-14.42c1.38-5.32,2.66-10.59,3.88-15.8.67-2.87,1.33-5.63,1.9-8.34,1.12-5.16,2.09-10.07,2.86-14.67,2.61-15.29,3.12-26.9-.26-30-.1-.1-2.71-.36-6.69-.71-2.46-.21-5.37-.41-8.54-.72-3.43-.26-7.11-.51-10.79-.82-4.86-.41-9.72-.71-13.76-1-6.29-.51-10.79-.77-10.79-.77l-2,11.71-7.78,44.29L548,299.47l-12.17,69.95Z"/><path class="cls-19" d="M565.83,256.61V372l6,147.26c.62-3.58,1.23-7.31,1.79-11.19.67-4.5,1.33-9.21,2-14,4.86-36,7.41-80,5.83-115.36a12.46,12.46,0,0,1,.51-4.14c1.07-3.22,3.22-10.07,5.93-19.07,2.92-9.67,6.5-21.89,10-34.72q2-7.14,3.84-14.42V256.78Z"/><path class="cls-16" d="M632.56,543.42l.09.63.29,2,.57,3.87.25,1.73c.79,0,1.59,0,2.38.06,5.52.1,11.13,0,15.28-2.38l-.12-4.1-10-1-1.73-.17-6.82-.65Z"/><path class="cls-16" d="M579.23,546.87l.58,5.19c10.88,3.67,28.36,3.39,51.25-1.61l2.45-.54c1.35-.3,2.72-.63,4.11-1,4.39-1.08,8.94-2.32,13.68-3.72,0-.2-.5-4.41-.5-4.41s0-.3,0-.46l-.17-1.52-7.32.82-2.39.28-7.46.84Z"/><path class="cls-17" d="M650.8,540.81c-1.85,1.22-5.21,2.4-9.47,3.45-2.52.65-5.35,1.25-8.39,1.79l-.81.15c-20.16,3.53-48.64,4.91-52.9.67-.39-3.56,5.26-7.59,15.58-12.08,1-.42,2.06-.87,3.19-1.33.78-.31,1.58-.62,2.42-1,1.07-.41,2.17-.84,3.31-1.26.79-.3,1.61-.59,2.41-.88l3.5-1.24c1.39-.49,2.81-1,4.28-1.47l4.78-1.56c7.8-2.51,13.72-2.89,18.19-2a15.87,15.87,0,0,1,11.82,9.12,22.75,22.75,0,0,1,1.8,5.64c.11.56.18,1.06.24,1.51C650.78,540.5,650.78,540.66,650.8,540.81Z"/><path class="cls-18" d="M584.09,235.29c0,.05,0,2,0,2l1.07,33.13.31,9.67,2.4,75.42.56,17.64,17.34,127.69,3.73,27.56,1.13.35,31.6,11c.05,0,6.34,2.2,6.34,2.2l2.4.82,3.63,1.27c.26-8.74.05-21.78-.71-37.17-.26-6.24-.67-12.84-1.13-19.74-2.61-36.25-9-79.82-17.74-114.13a12.65,12.65,0,0,1-.36-4.14c.82-7.83,3.63-36.11,5.22-65.3.15-3.74.3-7.52.51-11.25.87-23.58,2-39.53-1.08-50.42-.36-1.23-.71-2.81-1.17-4.35-.67-2.66-1.54-5.21-2.46-5.78a31.09,31.09,0,0,0-3.17-.15,199,199,0,0,0-29.14,1.12c-3.74.52-7.27,1-10.28,1.39C587.77,234.83,584.09,235.29,584.09,235.29Z"/><path class="cls-15" d="M638.9,240.56c0-5-.24-7.26-.42-9.79l-79.4.32a29.93,29.93,0,0,0-.73,9.4Z"/><rect class="cls-20" x="573.97" y="231.8" width="10.54" height="7.51" transform="translate(-0.83 2.06) rotate(-0.2)"/><path class="cls-21" d="M635.72,266.16a40.58,40.58,0,0,1-4,2.59C633.08,267.87,634.39,267,635.72,266.16Z"/><path class="cls-22" d="M592.32,235.44l1.58,1.64,6.14,0,38.15.41c-.67-2.66-1.54-5.21-2.46-5.78a31.09,31.09,0,0,0-3.17-.15c2.05-.41,3.63-.72,4.5-.82,6.39-1.38,10.38-20.25,10.38-20.25L663,139.82l3.13-9.22-5.84-7L606.8,167.15,596.57,97.58l-62.84,31.61L561.3,237.54Z"/><path class="cls-19" d="M593.9,237.08a15.23,15.23,0,0,1,1.64.36c17.54,3.73,27.56,13.24,28.28,30C630.77,298,625.25,335,616.56,372c20.2,23.42,22.8,77.52,37.38,134.84-.26-6.24-.67-12.84-1.13-19.74-2.61-36.25-9-79.82-17.74-114.13a12.65,12.65,0,0,1-.36-4.14c.82-7.83,3.63-36.11,5.22-65.3.15-3.74.3-7.52.51-11.25.87-23.58,2-39.53-1.08-50.42-.36-1.23-.71-2.81-1.17-4.35l-38-.41Z"/><rect class="cls-23" x="511.62" y="194.47" width="2.63" height="117.61" transform="translate(197.05 730.21) rotate(-82.76)"/><rect class="cls-24" x="513.88" y="192.11" width="2.63" height="117.61" transform="translate(201.37 730.39) rotate(-82.76)"/><rect class="cls-23" x="512.27" y="189.24" width="2.66" height="117.61" transform="translate(202.76 726.26) rotate(-82.75)"/><rect class="cls-24" x="510.38" y="186.34" width="2.63" height="117.61" transform="translate(204.04 721.88) rotate(-82.76)"/><rect class="cls-23" x="512.95" y="184.01" width="2.63" height="117.61" transform="translate(208.59 722.39) rotate(-82.76)"/><rect class="cls-23" x="515.19" y="181.64" width="2.66" height="117.61" transform="matrix(0.13, -0.99, 0.99, 0.13, 212.96, 722.58)"/><rect class="cls-24" x="513.61" y="178.77" width="2.63" height="117.61" transform="matrix(0.13, -0.99, 0.99, 0.13, 214.37, 718.47)"/><rect class="cls-23" x="515.87" y="176.41" width="2.63" height="117.61" transform="translate(218.69 718.64) rotate(-82.76)"/><rect class="cls-23" x="512.03" y="173.25" width="2.66" height="117.61" transform="translate(218.52 712.12) rotate(-82.77)"/><rect class="cls-23" x="514.61" y="170.92" width="2.63" height="117.61" transform="translate(223.02 712.59) rotate(-82.76)"/><rect class="cls-23" x="516.87" y="168.55" width="2.63" height="117.61" transform="translate(227.35 712.77) rotate(-82.76)"/><rect class="cls-24" x="520.03" y="166.29" width="2.66" height="117.61" transform="matrix(0.13, -0.99, 0.99, 0.13, 232.4, 713.96)"/><rect class="cls-23" x="517.54" y="163.31" width="2.63" height="117.61" transform="translate(233.14 708.85) rotate(-82.76)"/><rect class="cls-24" x="513.71" y="160.17" width="2.63" height="117.61" transform="translate(232.89 702.3) rotate(-82.76)"/><rect class="cls-23" x="518.19" y="158.08" width="2.66" height="117.61" transform="translate(238.84 704.9) rotate(-82.75)"/><rect class="cls-24" x="518.54" y="155.46" width="2.63" height="117.61" transform="matrix(0.13, -0.99, 0.99, 0.13, 241.8, 702.97)"/><rect class="cls-23" x="515.66" y="152.43" width="2.66" height="117.61" transform="translate(242.34 697.51) rotate(-82.77)"/><rect class="cls-24" x="517.27" y="149.97" width="2.63" height="117.61" transform="translate(246.04 696.87) rotate(-82.75)"/><rect class="cls-23" x="519.53" y="147.61" width="2.63" height="117.61" transform="translate(250.36 697.05) rotate(-82.75)"/><rect class="cls-24" x="521.52" y="145.2" width="2.66" height="117.61" transform="translate(254.64 697.01) rotate(-82.77)"/><rect class="cls-23" x="516.04" y="141.83" width="2.63" height="117.61" transform="matrix(0.13, -0.99, 0.99, 0.13, 253.03, 688.54)"/><rect class="cls-24" x="518.6" y="139.51" width="2.63" height="117.61" transform="translate(257.68 689.1) rotate(-82.76)"/><rect class="cls-24" x="520.85" y="137.13" width="2.66" height="117.61" transform="translate(261.95 689.23) rotate(-82.75)"/><rect class="cls-23" x="519.27" y="134.26" width="2.63" height="117.61" transform="matrix(0.13, -0.99, 0.99, 0.13, 263.46, 685.18)"/><rect class="cls-23" x="517.37" y="131.37" width="2.63" height="117.61" transform="translate(264.67 680.77) rotate(-82.76)"/><rect class="cls-24" x="519.92" y="129.03" width="2.66" height="117.61" transform="translate(269.17 681.23) rotate(-82.75)"/><rect class="cls-23" x="522.19" y="126.66" width="2.63" height="117.61" transform="matrix(0.13, -0.99, 0.99, 0.13, 273.57, 681.43)"/><rect class="cls-24" x="520.6" y="123.8" width="2.63" height="117.61" transform="translate(275 677.36) rotate(-82.76)"/><rect class="cls-23" x="522.84" y="121.43" width="2.66" height="117.61" transform="translate(279.26 677.48) rotate(-82.75)"/><rect class="cls-24" x="519.03" y="118.28" width="2.63" height="117.61" transform="translate(279.12 670.97) rotate(-82.76)"/><rect class="cls-23" x="521.6" y="115.95" width="2.63" height="117.61" transform="matrix(0.13, -0.99, 0.99, 0.13, 283.66, 671.48)"/><rect class="cls-24" x="523.84" y="113.58" width="2.66" height="117.61" transform="translate(287.95 671.62) rotate(-82.76)"/><rect class="cls-23" x="527.03" y="111.31" width="2.63" height="117.61" transform="translate(293.01 672.82) rotate(-82.76)"/><rect class="cls-24" x="524.52" y="108.35" width="2.63" height="117.61" transform="translate(293.75 667.73) rotate(-82.76)"/><rect class="cls-23" x="520.68" y="105.19" width="2.66" height="117.61" transform="translate(293.48 661.16) rotate(-82.75)"/><rect class="cls-24" x="525.19" y="103.1" width="2.63" height="117.61" transform="translate(299.55 663.81) rotate(-82.76)"/><rect class="cls-23" x="525.52" y="100.49" width="2.63" height="117.61" transform="translate(302.43 661.86) rotate(-82.76)"/><rect class="cls-24" x="522.64" y="97.47" width="2.66" height="117.61" transform="translate(302.88 656.35) rotate(-82.76)"/><rect class="cls-23" x="524.26" y="95" width="2.63" height="117.61" transform="translate(306.76 655.81) rotate(-82.76)"/><rect class="cls-24" x="526.52" y="92.64" width="2.63" height="117.61" transform="translate(310.98 655.95) rotate(-82.75)"/><rect class="cls-23" x="528.51" y="90.23" width="2.66" height="117.61" transform="translate(315.17 655.85) rotate(-82.75)"/><rect class="cls-24" x="523.02" y="86.87" width="2.63" height="117.61" transform="translate(313.75 647.47) rotate(-82.76)"/><polygon class="cls-25" points="546.39 149.8 546.05 152.44 544.33 152.22 544 154.83 542.12 154.59 541.79 157.19 540.52 157.03 540.19 159.67 543.33 160.07 542.67 165.28 538.56 164.76 538.23 167.4 542.34 167.92 542 170.53 544.89 170.9 544.56 173.5 541.67 173.14 541.34 175.78 539.46 175.54 539.13 178.14 536.9 177.86 536.57 180.47 540.67 180.99 540.34 183.63 538.46 183.39 538.13 186 540.01 186.23 539.68 188.84 537.8 188.6 537.46 191.24 535.23 190.96 534.9 193.56 537.13 193.85 536.8 196.45 538.68 196.69 538.34 199.33 536.47 199.09 536.14 201.7 533.9 201.42 533.57 204.02 539.41 204.76 539.07 207.4 537.35 207.18 537.01 209.79 535.14 209.55 534.81 212.16 533.54 212 533.2 214.63 536.35 215.03 535.69 220.25 531.58 219.73 531.24 222.36 535.35 222.89 535.02 225.49 537.91 225.86 537.58 228.5 534.68 228.13 534.35 230.74 532.48 230.5 532.14 233.11 529.91 232.82 529.58 235.46 533.69 235.98 533.36 238.59 531.48 238.35 531.15 240.96 533.02 241.2 532.69 243.84 530.81 243.6 530.48 246.2 528.25 245.92 527.92 248.53 530.15 248.81 529.82 251.45 531.69 251.69 531.36 254.29 529.48 254.06 529.15 256.66 571.1 261.99 571.43 259.39 573.36 259.63 573.69 257.02 571.77 256.78 572.1 254.14 569.87 253.86 570.2 251.25 572.43 251.53 572.76 248.93 574.69 249.17 575.03 246.53 573.1 246.29 573.43 243.68 575.36 243.93 575.69 241.32 571.53 240.79 571.87 238.15 574.1 238.44 574.43 235.83 576.36 236.07 576.69 233.47 579.53 233.83 579.86 231.19 577.02 230.83 577.35 228.22 573.19 227.69 573.52 225.09 577.68 225.62 578.35 220.37 575.15 219.97 575.49 217.33 576.76 217.49 577.09 214.88 579.02 215.13 579.35 212.52 581.02 212.73 581.36 210.09 575.52 209.35 575.86 206.75 578.09 207.03 578.42 204.42 580.35 204.67 580.68 202.03 578.75 201.78 579.09 199.18 576.85 198.89 577.18 196.29 579.42 196.57 579.75 193.93 581.68 194.18 582.01 191.57 580.08 191.32 580.41 188.72 582.34 188.96 582.68 186.33 578.52 185.8 578.85 183.19 581.08 183.47 581.41 180.87 583.34 181.11 583.67 178.47 586.51 178.84 586.85 176.23 584.01 175.87 584.34 173.26 580.18 172.73 580.51 170.09 584.67 170.62 585.33 165.41 582.14 165 582.47 162.36 583.74 162.53 584.07 159.92 586 160.16 586.33 157.56 588.01 157.77 588.34 155.13 582.51 154.39 582.84 151.78 540.89 146.45 540.56 149.06 546.39 149.8"/><rect class="cls-23" x="525.5" y="85.23" width="2.63" height="117.61" transform="matrix(0.13, -0.99, 0.99, 0.13, 317.56, 648.5)"/><rect class="cls-24" x="527.76" y="82.86" width="2.63" height="117.61" transform="translate(321.86 648.67) rotate(-82.76)"/><rect class="cls-23" x="526.15" y="80" width="2.66" height="117.61" transform="translate(323.27 644.57) rotate(-82.76)"/><rect class="cls-24" x="524.27" y="77.09" width="2.63" height="117.61" transform="translate(324.55 640.16) rotate(-82.76)"/><rect class="cls-23" x="526.83" y="74.77" width="2.63" height="117.61" transform="translate(329.09 640.68) rotate(-82.76)"/><rect class="cls-23" x="529.07" y="72.39" width="2.66" height="117.61" transform="matrix(0.13, -0.99, 0.99, 0.13, 333.36, 640.82)"/><rect class="cls-24" x="527.5" y="69.52" width="2.63" height="117.61" transform="translate(334.87 636.75) rotate(-82.76)"/><rect class="cls-23" x="529.75" y="67.16" width="2.63" height="117.61" transform="matrix(0.13, -0.99, 0.99, 0.13, 339.2, 636.93)"/><rect class="cls-23" x="525.91" y="64.01" width="2.66" height="117.61" transform="translate(338.91 630.36) rotate(-82.75)"/><rect class="cls-23" x="528.49" y="61.67" width="2.63" height="117.61" transform="translate(343.54 630.88) rotate(-82.76)"/><rect class="cls-23" x="530.75" y="59.31" width="2.63" height="117.61" transform="matrix(0.13, -0.99, 0.99, 0.13, 347.86, 631.06)"/><rect class="cls-24" x="533.91" y="57.05" width="2.66" height="117.61" transform="translate(352.82 632.21) rotate(-82.76)"/><rect class="cls-23" x="531.42" y="54.06" width="2.63" height="117.61" transform="translate(353.64 627.13) rotate(-82.76)"/><rect class="cls-24" x="527.59" y="50.93" width="2.63" height="117.61" transform="translate(353.41 620.6) rotate(-82.76)"/><rect class="cls-23" x="532.07" y="48.83" width="2.66" height="117.61" transform="translate(359.36 623.2) rotate(-82.76)"/><rect class="cls-24" x="532.42" y="46.21" width="2.63" height="117.61" transform="translate(362.3 621.26) rotate(-82.76)"/><rect class="cls-23" x="529.54" y="43.18" width="2.66" height="117.61" transform="matrix(0.13, -0.99, 0.99, 0.13, 362.74, 615.75)"/><rect class="cls-24" x="531.15" y="40.72" width="2.63" height="117.61" transform="translate(366.64 615.21) rotate(-82.76)"/><rect class="cls-23" x="533.41" y="38.36" width="2.63" height="117.61" transform="translate(370.86 615.35) rotate(-82.75)"/><rect class="cls-24" x="535.4" y="35.95" width="2.66" height="117.61" transform="translate(375.04 615.25) rotate(-82.75)"/><rect class="cls-23" x="529.92" y="32.59" width="2.63" height="117.61" transform="translate(373.64 606.88) rotate(-82.76)"/><rect class="cls-24" x="532.48" y="30.26" width="2.63" height="117.61" transform="translate(378.07 607.35) rotate(-82.75)"/><rect class="cls-24" x="534.73" y="27.88" width="2.66" height="117.61" transform="matrix(0.13, -0.99, 0.99, 0.13, 382.56, 607.57)"/><rect class="cls-23" x="533.15" y="25.02" width="2.63" height="117.61" transform="translate(383.86 603.44) rotate(-82.75)"/><rect class="cls-23" x="531.25" y="22.13" width="2.63" height="117.61" transform="translate(385.16 599.05) rotate(-82.76)"/><rect class="cls-24" x="533.8" y="19.79" width="2.66" height="117.61" transform="translate(389.69 599.54) rotate(-82.76)"/><rect class="cls-23" x="536.08" y="17.41" width="2.63" height="117.61" transform="matrix(0.13, -0.99, 0.99, 0.13, 394.07, 599.72)"/><rect class="cls-24" x="534.48" y="14.56" width="2.63" height="117.61" transform="matrix(0.13, -0.99, 0.99, 0.13, 395.51, 595.64)"/><path class="cls-23" d="M479.57,64.87l72.77,9.26,1.89.25,42,5.32.36-2.61-42-5.32s-4.09-.56-4.09-.56l-70.56-8.95Z"/><polygon class="cls-25" points="543.39 144.79 543.03 147.4 584.96 152.77 585.32 150.16 587.26 150.37 587.57 147.76 585.63 147.55 585.98 144.9 583.73 144.59 584.09 141.98 586.29 142.29 586.65 139.68 588.59 139.94 588.9 137.28 586.95 137.02 587.31 134.41 589.26 134.67 589.56 132.06 585.42 131.55 585.73 128.89 587.98 129.2 588.28 126.59 590.23 126.84 590.59 124.24 593.4 124.59 593.75 121.94 590.89 121.58 591.25 118.97 587.06 118.46 587.41 115.85 591.56 116.36 592.22 111.15 589.05 110.74 589.36 108.08 590.64 108.23 590.99 105.63 592.89 105.88 593.24 103.27 594.88 103.48 595.24 100.87 589.41 100.1 589.72 97.49 591.97 97.8 592.32 95.19 594.22 95.4 594.57 92.79 592.63 92.53 592.99 89.93 590.74 89.67 591.04 87.06 593.29 87.32 593.65 84.71 595.54 84.92 595.9 82.31 593.96 82.1 594.32 79.49 596.21 79.7 596.57 77.09 554.53 71.77 554.23 74.38 552.34 74.13 552.03 76.73 553.87 76.99 553.56 79.6 551.67 79.34 551.36 82 549.12 81.69 548.76 84.3 551.01 84.61 550.7 87.22 552.54 87.47 552.23 90.08 550.34 89.82 550.03 92.43 547.78 92.18 547.48 94.78 553.31 95.5 552.95 98.16 551.21 97.95 550.9 100.56 549.01 100.31 548.71 102.91 547.43 102.76 547.07 105.37 550.24 105.78 549.58 110.99 545.43 110.48 545.13 113.14 549.22 113.65 548.91 116.26 551.77 116.62 551.47 119.28 548.55 118.87 548.25 121.48 546.35 121.27 546.05 123.88 543.8 123.57 543.44 126.23 547.58 126.74 547.22 129.35 545.38 129.09 545.02 131.7 546.91 131.96 546.56 134.57 544.72 134.36 544.36 136.97 542.11 136.66 541.8 139.27 544.05 139.58 543.69 142.19 545.59 142.44 545.23 145.05 543.39 144.79"/><path class="cls-12" d="M565.85,248.13l-9.08-.22-7.42,4.21-5.87.59c-2.12.13-1.48,3.49,1.16,3.53,3.27.7,8-.5,12.7-.92.64-.06.76,1,1.42.92l-9,3.12L540,258a41.72,41.72,0,0,0,9.45,10.15c6.72,1.91,13,1.77,18.7,1.35,4.36-3.31,7.56-5,10.15-10.79l7-6.63-10.84-8.55Z"/><path class="cls-13" d="M665.64,131.83l-33.15,67.61L596.69,190l32.22-72.76c3.65-9.48,15.79-23.73,27.92-18.55C656.83,98.68,676.65,107.36,665.64,131.83Z"/><path class="cls-13" d="M601.2,181.1l-35.35,67L583,261.34l46.34-57.08c4.83-5.74,7.11-13.49,5.11-20.72-1.43-5.17-4.5-9.69-9.08-11.68l-.34-.14A18.08,18.08,0,0,0,601.2,181.1Z"/><path class="cls-11" d="M490,162.44c-26.73-.33-55.1,4.9-84.35,13.11,1.8-11.54-5.35-19.79-17.47-26.21,26.23-4.88,51.58-8.77,69.56-4.37C472.43,149.57,482.49,155.61,490,162.44Z"/><path class="cls-11" d="M567.73,86.78c-20.86,9.33-53.22-1-97.44-8.37,16.78-8,28.53-18.09,24.28-26.94,28.09,7.26,58.95,18.61,79.49,9.53C569.19,70.24,578.24,76.62,567.73,86.78Z"/><path class="cls-9" d="M297,197l-21.55,2.91L274.2,199a1.85,1.85,0,0,0-1.49-.23c-.45.13-9.72,2.9-10.45,3.17a18.17,18.17,0,0,0-7.11,5l.79-1.49c-24.83.95-76.91,3.33-76.91,3.33s-13.81-4.84-20.33-6.71c-.4-.12-.82-.23-1.19-.38-3.18-1-5.86-2.19-8.93-2.76a18.22,18.22,0,0,0-3.72-.39h-.43a13.6,13.6,0,0,0-2.08.18,22,22,0,0,0-3.16.74c-5.18,1.11-14.09,3.2-14.16,3.22s-.46-.94-.46-.94a1.74,1.74,0,0,0-.54-.63l3.34-1.61c4.94-2.75,5.8-8.41,5.46-11.46,0,0-1-4.87-1.12-6.06l2-1.81c1.34-1.16,1.94-2.85,1.26-3.57l-4.09-4.29s.41-1.28.7-2.7c-.71-3.37-2.11-5.57-4-6.84,3.81-3.21,4.45-14.33-18.56,2.43-9.72,7.09-16.61,16.68-17.35,25.78-.72,8.86,4.05,16,8,15.31l.08,6.08c-.28.21-.54.4-.71.55l-1.83,5.29s-9.94,10.17-9.94,10.17a34,34,0,0,0-5.87,8.14c-9.69,15.25-14.27,35.57-19,53.34-1.48,5.62,0,10.41,4.11,11.65a28.89,28.89,0,0,0,13.46.26c0,15.43-.53,33-2.12,47.89-.57,5.46,3.55,8.62,8.82,6.4.86-.34,1.81-.75,2.8-1.08,0,.38-.07.78-.1,1.17-.12,1.33-.23,2.64-.35,4l-.41,4.48-.28,2.87-.3,3.45q-.18,1.77-.33,3.54c-1.45,15.53-2.8,30.62-3.25,42.18-.06,1.2-.08,2.33-.1,3.42-.11,4.34-.79,11.45-1.77,20.06-3.28,29.19-9.88,76.22-8.32,91.44-.07,1.31.76,2.23,2.12,2.87a19.32,19.32,0,0,0-.37,3.16s0,1.38,0,1.38v3.61l28.41-.11-.07-3.78v-.55l0-.56,0-.33a26.07,26.07,0,0,0-.71-4.46c1.36-.34,2.59-.58,3.64-.9l5-78.32.07-1.3.12-1.71,2.18-33.75,11-63.91,0-1.23,4.75,32.49,3.94,27,.06.45.08.62c-.33,14.42-1.15,30.27-1.69,46,0,1.41-.11,2.82-.15,4.22-.86,27.6-.7,54.66,4.51,73.5a3.3,3.3,0,0,1,.94-.42,6.75,6.75,0,0,1,1.35-.74c0,.62.05,1.28.1,2l0,1.51.16,4,57.9-.22-.32-4.31c0-.15-.13-1.65-.13-1.65-2-8.72-13-12.89-24.9-14.29l-3.35-114-3.27-56.45-.45-7.69c0-.22-1-17.16-1-17.16l-.24-4.17-.33-6-.35-5.76-.4-7-.37-6.1-.07-1.19-.05-1.16c0-2.23,0-4.19-.08-6.18-.09-2.3-.17-4.59-.26-6.87-.09-1.61-.18-3.25-.32-4.88-.13-1.93-.27-3.82-.4-5.74-.09-.79-.14-1.65-.28-2.51,0-1-.18-2.07-.27-3.12-.09-.88-.18-1.79-.32-2.69s-.18-1.83-.32-2.72v-.35c-.09-.82-.18-1.56-.32-2.32-.09-.91-.23-1.8-.32-2.66-.59-4.57-1.27-9-2-13.1-.51-3.11-1-6.08-1.56-8.89,3.1.71,6.24,1.39,9.43,2,4.76,1,22.94-.94,41.28-2.77,1.33-.11,2.68-.25,4-.38,9-.89,25.11-1.16,32-1.57l3.46-6.58,3.45-.91c1.88,2.5,4.83,3.23,13.21,1.57l8.47-1.78c4.48-.84,6.31-5.46,3.56-5.79l3.12-.3c4.21-.68,5.76-6.12,2.05-6l2.38-.43c3.55-.64,5.12-4.53,3.62-5.63a1.89,1.89,0,0,0-.33-.13l9.61-2.34C299.85,201.4,301.52,196.19,297,197Z"/><path class="cls-12" d="M278.36,203.39l3,1.18c4,1.22,5.74-4.83,2.28-6.51l2.25.65c3.32,1,5-3.11,3.71-5.25-.08-.13-.21-.21-.3-.33l8.9,1.93a3,3,0,1,0,1.8-5.63l-20.09-7.55L278.75,180a2.5,2.5,0,0,0-1.41-1.11c-.44-.06-9.62-1.52-10.35-1.57a10.15,10.15,0,0,0-7.63,2.94l-1.1,1.23-3.49-1.18-4.87-1.79c-.92,3.13-1.9,6.23-2.89,9.33-.8,2.51-1.61,5-2.38,7.53-.11.42-.24.83-.37,1.24l9.07,1.58c1.78,4.24,4.7,6.7,13.06,8.8l8.25,1.94C278.94,210.08,280.94,205.18,278.36,203.39Z"/><path class="cls-13" d="M28.72,105.88C13,124.9,7,157.17.59,184.62c-2,8.63,1.23,17.84,8.66,22.67,14.91,9.68,32.43,11.09,45.09,10.54Z"/><path class="cls-22" d="M28.71,132c-8,22.45-1.54,47.54-12.18,59,18.25,6.76,35.64,6,52.39,22C49,186.28,28.71,132,28.71,132Z"/><path class="cls-26" d="M45.22,548.2c0,.53,0,1.11.08,1.68H84.15l0-.65a3.66,3.66,0,0,0-.08-.61,1.61,1.61,0,0,0,0-.42A23.13,23.13,0,0,0,82.92,543c-2-6-6.26-8-11.61-8.63a58.86,58.86,0,0,0-6-.31H63.79c-9.21,0-16.85.88-18.27,10.32A20.72,20.72,0,0,0,45.22,548.2Z"/><polygon class="cls-27" points="45.18 548.2 45.3 549.88 45.56 554.27 84.41 554.27 84.15 549.88 84.11 549.23 84.11 548.58 84.07 548.2 45.18 548.2"/><path class="cls-26" d="M127.81,546c0,.69.08,1.41.15,2.18l.08,1.68h63a8.21,8.21,0,0,0-.23-1.68c-1.75-9-13.1-13.68-25.86-15.55a102.9,102.9,0,0,0-28-.08,45.19,45.19,0,0,0-6.8,1.45C129,534.41,127.35,535.06,127.81,546Z"/><path class="cls-27" d="M128,548.2l.08,1.68.27,4.39h63l-.27-4.39c0-.16-.11-1.68-.11-1.68Z"/><path class="cls-18" d="M42.27,540.78c0,1.61,1.25,2.76,3.26,3.57,3.37,1.26,8.95,1.56,15.18,1.36,1.16-.1,2.37-.16,3.52-.21a163.41,163.41,0,0,0,18.7-2.56c1.76-.35,3.37-.6,4.73-1l3.27-94.91.1-3.77L92.54,400l12.56-83.34v-1.81l13.53,82.79.2,1.41c0,19.91-.81,41.47-1,62.43-.35,32.93.55,64.4,7.29,85.81a4.17,4.17,0,0,1,1.11-.45,8,8,0,0,1,1.6-.8c2.92-1.11,6.34-2.11,10.06-3.12,9.05-2.46,19.7-5,27.09-10,0-.2-3.87-131.16-3.87-131.16L157,329.44l-.6-10.55-1.31-22.27-.05-.76-.75-14-1.06-17.95-.5-8.64-.15-3.37-.35-5.78-.36-5.83c0-.15-.35-7-.35-7H45.28c-.2,2.56-.4,5.08-.45,7.64-.1,1.71-.15,3.47-.15,5.18,0,6.33.25,12.46.8,18.45.1,1,.2,2.06.35,3a166.51,166.51,0,0,0,3.07,17.9c.4,1.76.86,3.47,1.31,5.18.65,2.66,1.36,5.33,2.21,7.89-.1,2-.2,3.92-.25,5.93-.1,2.46-.2,5-.3,7.49l-.56,10.61c-.15,3.37-.3,6.68-.45,10-1.1,22-2.06,43-1.91,59.12,0,1.66,0,3.22.1,4.72.15,6-.35,15.59-1.2,27.1C45.08,462,38.85,521.78,42.27,540.78Z"/><path class="cls-19" d="M45.83,267.63a163,163,0,0,0,3.08,17.88c.4,1.74.82,3.45,1.28,5.16.66,2.67,1.4,5.32,2.25,7.91-.2,4.45-.4,8.92-.6,13.44l-.51,10.6c-.14,3.35-.34,6.66-.48,10,10.3-.83,22.8-.66,35.82-.37,4.78,9.45,4.18,21.27,3.13,32.09-.43,4.61-.91,9.31-2.62,13.64s-4.81,8.31-9.14,10c4.55,4.1,7.12,10.06,8.37,16.06s1.31,12.19,1.71,18.34c.48,8.29,1.59,16.52,2.79,24.72l.14-3.79L92.56,400l12.56-83.37v-1.8l13.49,82.81.23,1.39c0,19.93-.8,41.49-1,62.45.05.37.08.76.14,1.14q1.16-12,1.71-24.07A47.42,47.42,0,0,1,121,427.4c.69-2.36,1.77-4.61,2.57-7,2.82-8.28,2-17.71,6.32-25.37a6.3,6.3,0,0,0,.91-2.13,5.44,5.44,0,0,0-.51-2.56A134.48,134.48,0,0,1,123,332.72c12.9-.17,24.8-1,34.06-3.27l-.6-10.56-1.34-23-.8-14-1-18c-19.11-.28-38.22,2.59-57.32,3.5C79.23,268.2,62.52,267.49,45.83,267.63Z"/><polygon class="cls-28" points="89.5 72.6 99.92 70.99 101.46 80.98 90.02 80.63 89.5 72.6"/><path class="cls-12" d="M58.29,81.48,56.47,48.12c14.28-.51,33.36-1.52,36.66-2.27,0,0,1.51,24.24,3.07,34.59C102.55,107,71.29,110.8,58.29,81.48Z"/><path class="cls-12" d="M52.06,54.29c-3.59-6.08-4-8.92-5.24-15.95C43,6,62.12,7.7,74.06,5.91c14-1.49,28.66,5.95,32.62,27.27a36.3,36.3,0,0,1-1,4.06l6.4,11.28a3.51,3.51,0,0,1-1.79,5l-2.95,1.3c.27,2.17,1.92,11.39,1.92,11.39.63,5.48-.46,14.33-7.83,14.77-3-.47-10.27-5.39-14.1-24.61C82.18,56.54,54.7,58.76,52.06,54.29Z"/><path class="cls-26" d="M57.8,68.29c38.42,4.36,28.32-13.14,28.71-17.08,0-1.21,6.1-1,6.08-2.18-.52-19.76-8.41-31.72,7.67-31.82,5.79-1.92,6.33-21.21-30-14.68C54.24,5.42,43,16.16,42.52,32.45,42,48.32,51.11,66.17,57.8,68.29Z"/><path class="cls-12" d="M78.37,48.75c.77,5,4.9,10.37,7.4,10s2.06-4.66,1.32-9.71c-.49-3.34-1-8-4-8.59C80.6,39.89,77.23,41.36,78.37,48.75Z"/><path class="cls-13" d="M152.59,251.92v3.3a268.33,268.33,0,0,1-1.65,30.93c-.06.45-.06.89-.13,1.33a23.92,23.92,0,0,1-27.32,22.07c-5.71-.83-11.6-1.65-17.44-2.35-19.65-2.28-39.3-3.74-53.88-2.66-1.52.06-3,.25-4.31.38a13.08,13.08,0,0,1-14.65-13.76c3.23-55.79-6.09-143.72-6.09-143.72l-.12-.89-2.09-24.66c-.07-1-.07-1.77-.07-2.47a27,27,0,0,1,13.38-23l16.16-9.26L61,86.77l35.88-2.35.38-.06H98s14.65,4.37,22.07,6.78a1,1,0,0,1,.44.13c1.39.44,2.47.82,3.17,1.08a3.15,3.15,0,0,1,.63.25c7.23,3.74,6,8.94,9.83,15.79,0,0,.51,2.22,1.33,6.21.63,2.73,1.4,6.4,2.28,10.78s1.84,9.44,2.92,15.09c.25,1.58.51,3.23.82,4.88s.64,3.36.89,5.07c1.2,6.59,2.28,13.76,3.36,21.3,1,6.72,2,13.69,2.79,20.86.13,1.33.32,2.72.44,4.12.19,1.2.32,2.35.45,3.61v.51c.19,1.4.32,2.73.44,4.18s.32,2.79.45,4.13c.12,1.58.31,3.17.38,4.69.19,1.33.25,2.6.38,3.8.19,2.85.38,5.64.57,8.5.19,2.41.31,4.81.44,7.16.13,3.3.25,6.59.38,9.83C152.59,246.15,152.59,249,152.59,251.92Z"/><path class="cls-29" d="M92.32,78.24c-9.85-1.89-31.65-.32-35.31,1.19l-2.67,7.73c2.56,4.38,25.72,4.3,43.69-2.8l-.76-2A6.66,6.66,0,0,0,92.32,78.24Z"/><path class="cls-22" d="M155.12,296.61c-1.45-3.48-2.41-7.1-4.18-10.46-9.32-17.87-10.33-33.41-11.48-54.58-3-57.19-18.76-69.8-23.9-105.69,17.25,24,19.78,16.23,25.93,19.47.32,1.71.64,3.36.89,5.07,1.2,6.59,2.28,13.76,3.36,21.3,1,6.72,2,13.69,2.79,20.86.13,1.33.32,2.72.44,4.12.19,1.2.32,2.35.45,3.61v.51c.19,1.4.32,2.73.44,4.18s.32,2.79.45,4.13c.12,1.58.31,3.17.38,4.69.19,1.33.25,2.6.38,3.8.19,2.85.38,5.64.57,8.5.19,2.41.31,4.81.44,7.16.13,3.3.25,6.59.38,9.83.13,3,.13,5.89.13,8.81l.19,3.36.51,8.68,1,18,.76,13.94Z"/><path class="cls-13" d="M91.25,103.07a14.48,14.48,0,0,0,.33,5.08,33.67,33.67,0,0,0,10.77,16.78,1.68,1.68,0,0,0,.24.19c4.76,3.73,9.54,7.47,14.27,11.22l8.88,7c4.33,3.42,8.62,6.78,13,10.12q8.64,6.66,17.37,12.89c6.17,4.46,28.9,12.9,50.58,21.06,1.53.61,3.07,1.19,4.61,1.77,10.11,3.82,27.44,12.15,34.66,15.22l14.58-25.93c-25.89-12.92-86.94-42.84-86.94-42.84s-18-17.32-26.8-25.15c-.54-.5-1.12-1-1.63-1.51-4.41-4.06-8.16-8.08-12.5-11.44A40.41,40.41,0,0,0,127.32,94a4.11,4.11,0,0,0-.62-.33,22,22,0,0,0-3-1.41c-.14,0-.24-.11-.38-.15a32.05,32.05,0,0,0-20.59-.45C96.48,93.52,92,97.54,91.25,103.07Z"/><path class="cls-22" d="M83.09,223.58C79.41,205.67,71.93,188.74,67.6,171s-5.21-37.49,3.74-53.44c-2.44,21.53,6.11,42.55,11.3,63.58A208.79,208.79,0,0,1,87,258.19C86.19,246.6,85.42,235,83.09,223.58Z"/></g></g></g></svg>