<svg xmlns="http://www.w3.org/2000/svg" viewBox="0 0 664.13 624.65"><defs><style>.cls-1{isolation:isolate;}.cls-2{fill:#033e5d;}.cls-3{fill:#06273d;}.cls-25,.cls-4,.cls-5,.cls-6{fill:#fdd622;}.cls-5{opacity:0.4;}.cls-25,.cls-5{mix-blend-mode:screen;}.cls-6{opacity:0.6;}.cls-19,.cls-22,.cls-6{mix-blend-mode:multiply;}.cls-7{fill:#fffdff;}.cls-8{fill:#0f2f49;}.cls-9{fill:#ea7701;}.cls-10{fill:#bcf7f5;}.cls-11{fill:#f4bea6;}.cls-12{fill:#1e2c30;}.cls-13{fill:#ce4441;}.cls-14{fill:#e7f7f7;}.cls-15{fill:#f7c79f;}.cls-16{fill:#d36866;}.cls-17,.cls-19{fill:#7d979f;}.cls-18{fill:#29343d;}.cls-19,.cls-22,.cls-25{opacity:0.5;}.cls-20{opacity:0.44;}.cls-21,.cls-22{fill:#eb7601;}.cls-23{fill:#fad921;}.cls-24{fill:none;stroke:#fffdff;stroke-linecap:round;stroke-miterlimit:10;stroke-width:2px;}</style></defs><title>bg-1</title><g class="cls-1"><g id="Layer_2" data-name="Layer 2"><g id="OBJECTS"><path class="cls-2" d="M511.26,271.57c-4-3.62-17.92-2.52-31.34-.41a152.63,152.63,0,0,0-13.28-32c10.76-7.8,21.16-16.76,21.73-22.67,1.2-12.43-47.81-59.5-59-59-5.37.25-14.48,10.9-22.47,21.9a151.61,151.61,0,0,0-32-13.29c2.1-13.13,3.12-26.81-.65-31.38-7.95-9.64-75.89-8.26-83.41,0-3.61,4-2.52,17.92-.4,31.35a151.09,151.09,0,0,0-32.1,13.32c-8-11-17.1-21.65-22.47-21.9-11.16-.53-60.18,46.54-59,59,.57,5.91,11,14.87,21.74,22.67a152.63,152.63,0,0,0-13.28,32c-13.42-2.11-27.37-3.21-31.34.41-8.27,7.51-9.65,75.46,0,83.41,4.57,3.76,18.25,2.74,31.37.64a151.91,151.91,0,0,0,13.29,32c-11,8-21.64,17.1-21.9,22.47-.52,11.16,46.55,60.18,59,59,5.91-.57,14.86-11,22.66-21.73a153.22,153.22,0,0,0,32,13.27c-2.12,13.42-3.21,27.37.4,31.35,7.52,8.26,75.46,9.64,83.41,0,3.77-4.58,2.75-18.26.65-31.38a152.38,152.38,0,0,0,31.94-13.24c7.8,10.75,16.76,21.16,22.67,21.73,12.43,1.2,59.5-47.82,59-59-.25-5.37-10.9-14.47-21.89-22.47a151.91,151.91,0,0,0,13.29-32c13.12,2.1,26.8,3.12,31.37-.64C520.91,347,519.53,279.08,511.26,271.57Zm-87,93.59a105.24,105.24,0,1,1,13.62-51.81A105.2,105.2,0,0,1,424.24,365.16Z"/><path class="cls-3" d="M333.39,426.85c-40.47-2-79-22.84-96.14-58.94-3.81-8.06-2.7-12-1.49-13.44a105.26,105.26,0,0,0,188.48,10.69C420.78,387.93,378,429.05,333.39,426.85Z"/><path class="cls-3" d="M333.28,199.87c-40.17,2-78.44,22.85-95.44,58.95-3.79,8.05-3.23,11.8-2,13.28a105.27,105.27,0,0,1,188.18-11C420.57,238.35,377.52,197.67,333.28,199.87Z"/><path class="cls-3" d="M238.19,462.43a4.2,4.2,0,0,0-3-2.54c-.32-.1-.49.36-.22.54a9,9,0,0,1,2.13,2.46C237.49,463.38,238.41,463.12,238.19,462.43Z"/><path class="cls-3" d="M243.1,459.33a31.66,31.66,0,0,0-3.51-3.82c-.49-.51-1.18.14-.92.71a30.42,30.42,0,0,0,2.1,4.47C241.74,462.13,244.07,460.78,243.1,459.33Z"/><path class="cls-3" d="M247.81,452.43a53,53,0,0,0-5-4.18c-.51-.41-1.48.15-1,.79a55.46,55.46,0,0,0,4.1,5.3C247.11,455.59,249,453.68,247.81,452.43Z"/><path class="cls-3" d="M252.43,447.81a28,28,0,0,0-2-2.21A10.34,10.34,0,0,0,248,444a.59.59,0,0,0-.71.92c.61.72,1.15,1.51,1.83,2.18s1.3,1.38,1.9,2.11C251.84,450.21,253.24,448.79,252.43,447.81Z"/><path class="cls-3" d="M158.91,352.18a16.59,16.59,0,0,0-.77-1.84,10.6,10.6,0,0,0-1.17-1.5c-.45-.56-1.17.06-1.08.62a9.86,9.86,0,0,0,.38,1.81c.23.57.55,1.13.82,1.68C157.58,353.94,159.35,353.23,158.91,352.18Z"/><path class="cls-3" d="M164.48,352.27a41.37,41.37,0,0,0-3-4.22c-.61-.83-2-.09-1.42.83A43.83,43.83,0,0,0,163,353.4C163.7,354.25,165,353.17,164.48,352.27Z"/><path class="cls-3" d="M176.17,351A27.32,27.32,0,0,0,174,345.9c-.51-.84-1.2-2.32-2.22-2.64a.26.26,0,0,0-.25.06l-.15.15a.18.18,0,0,0,0,.22l.07.16c0,.09.19.06.21,0-.31,1.17.29,3,.61,4.14a39.37,39.37,0,0,0,1.68,4C174.47,353.26,176.65,352.35,176.17,351Z"/><path class="cls-3" d="M181.6,346.71a.77.77,0,0,0-1.53,0c0,.67-.07,1.34-.11,2-.06,1.13,1.83,1.13,1.76,0Z"/><path class="cls-3" d="M183.84,218.59c-.25.71-.5,1.43-.76,2.14s.67.91,1,.41c.39-.66.79-1.31,1.19-2C185.79,218.25,184.22,217.51,183.84,218.59Z"/><path class="cls-3" d="M188.27,218.46a4.72,4.72,0,0,0-2.21,3.26c-.22.81,1,1.39,1.39.58.49-1,1.27-1.83,1.86-2.8C189.73,218.83,188.92,218.12,188.27,218.46Z"/><path class="cls-3" d="M195.44,223a12.87,12.87,0,0,0-2.83,3.15c-.39.6.53,1.34,1,.78a11.66,11.66,0,0,1,3-2.46C197.71,223.85,196.53,222.17,195.44,223Z"/><path class="cls-3" d="M201.17,226.79a6.23,6.23,0,0,0-3.13,3.87c-.2.57.66.91,1,.4a10.59,10.59,0,0,1,2.94-2.95A.76.76,0,0,0,201.17,226.79Z"/><path class="cls-3" d="M371.31,461.71a44.13,44.13,0,0,1-4.87.49c-.7,0-.91,1.16-.18,1.27a13.65,13.65,0,0,0,5.29,0C372.48,463.19,372.32,461.59,371.31,461.71Z"/><path class="cls-3" d="M370.74,468.75a21.14,21.14,0,0,0-2.87,0,.7.7,0,0,0,0,1.4,18.33,18.33,0,0,0,2.87,0A.7.7,0,0,0,370.74,468.75Z"/><path class="cls-3" d="M371.75,475.48a10.28,10.28,0,0,0-1.84-.22c-.59,0-.85,0-1.22.46a.05.05,0,0,0,0,.08,1.19,1.19,0,0,0,1,.44,9.81,9.81,0,0,1,1.79.37C372.17,476.84,372.49,475.63,371.75,475.48Z"/><path class="cls-3" d="M363.23,493.07a15.92,15.92,0,0,0-2.65-2.85.64.64,0,0,0-.91.91,14,14,0,0,1,1.94,2.88C362.17,495.1,363.94,494,363.23,493.07Z"/><path class="cls-3" d="M371.18,489.09a12,12,0,0,0-2.43-1.82c-.6-.4-1.35.54-.78,1a12.53,12.53,0,0,0,2.43,1.82A.65.65,0,0,0,371.18,489.09Z"/><path class="cls-3" d="M464.72,393.7a13.76,13.76,0,0,0-2.78,2.34c-.73.67.34,1.71,1.08,1.08a13,13,0,0,0,2.66-2.46C466.1,394,465.31,393.41,464.72,393.7Z"/><path class="cls-3" d="M470.64,396.66a7.53,7.53,0,0,0-2.69,3.72c-.37.93,1.15,1.55,1.61.68a23,23,0,0,1,2.36-3.12C472.51,397.18,471.38,396.19,470.64,396.66Z"/><path class="cls-3" d="M479.42,403.35a8,8,0,0,0-3.91,1.06c-1.07.52-.11,2.23.95,1.62a34.1,34.1,0,0,1,3.32-1.37C480.48,404.35,480,403.4,479.42,403.35Z"/><path class="cls-3" d="M482.87,410.85l-.86-.1c-1.08-.12-1.07,1.82.22,1.61l.82-.13C483.9,412.1,483.58,410.93,482.87,410.85Z"/><path class="cls-3" d="M511.83,344.62l-4.3-.24c-.76,0-.74,1.12,0,1.18l4.3.35C512.65,346,512.66,344.66,511.83,344.62Z"/><path class="cls-3" d="M513.55,340.24a9.91,9.91,0,0,0-3.5.51.18.18,0,0,0,.09.34,9,9,0,0,1,3.28.07A.47.47,0,1,0,513.55,340.24Z"/><path class="cls-3" d="M512.39,335.09a1.05,1.05,0,0,0-1,.58c0,.11-.05.5.16.49s.44-.28.63-.19C512.88,336.29,513.13,335.12,512.39,335.09Z"/><path class="cls-3" d="M508.87,276.33a14.13,14.13,0,0,0-5.46,0c-.48.09-.34.79.11.81a49,49,0,0,1,5,.53C509.36,277.81,509.77,276.51,508.87,276.33Z"/><path class="cls-3" d="M509.54,281.94l-1.72-.12c-1.21-.08-1.21,2,0,1.88l1.72-.12A.82.82,0,0,0,509.54,281.94Z"/><path class="cls-3" d="M510.87,287.53l-1.43-.57c-.84-.34-1.21,1-.38,1.35l1.44.58C511.34,289.22,511.7,287.86,510.87,287.53Z"/><path class="cls-3" d="M511.63,294.13l-.29-.57c-.44-.88-1.75-.11-1.31.77l.28.57C510.75,295.78,512.07,295,511.63,294.13Z"/><path class="cls-3" d="M472.18,231.5a46.1,46.1,0,0,1-4.66-3.95c-.62-.67-1.57.31-1,1a15.73,15.73,0,0,0,4.8,4.06C472,232.92,472.85,232,472.18,231.5Z"/><path class="cls-3" d="M474.45,227.5c-.44-.35-.88-.74-1.36-1.05a5.32,5.32,0,0,0-1.28-.53.29.29,0,0,0-.33.43,5.83,5.83,0,0,0,.82,1.1c.38.35.83.64,1.24,1C474.19,228.91,475.11,228,474.45,227.5Z"/><path class="cls-3" d="M478.54,224.68l-3.16-1.43c-.54-.25-1,.53-.48.8l3.1,1.54C478.61,225.89,479.15,225,478.54,224.68Z"/><path class="cls-3" d="M482.41,218.5l-3,.28c-.82.07-.83,1.36,0,1.29l1.66-.16a.59.59,0,0,0,.51.09l1-.24C483.27,219.59,483.14,218.43,482.41,218.5Z"/><path class="cls-3" d="M483.27,214.54l-.43-.77c-.16-.29-.7-.18-.65.18s.07.57.1.86C482.4,215.7,483.68,215.27,483.27,214.54Z"/><path class="cls-3" d="M479.55,206.93l-.57-.86c-.58-.88-2-.06-1.42.83l.57.86C478.71,208.64,480.13,207.82,479.55,206.93Z"/><path class="cls-3" d="M368.48,160.9a15.8,15.8,0,0,0-6.34-1.84c-.83-.09-.81,1.19,0,1.29a23.92,23.92,0,0,1,5.84,1.73C368.67,162.35,369.09,161.26,368.48,160.9Z"/><path class="cls-3" d="M368.64,155.88a22.49,22.49,0,0,0-4.21-.73c-.65-.05-.82,1.06-.16,1.15a21.83,21.83,0,0,1,4,.94C369.12,157.52,369.51,156.12,368.64,155.88Z"/><path class="cls-3" d="M370.31,150l-2.89-.5c-.65-.11-.95.88-.28,1l2.86.61C370.74,151.32,371.05,150.16,370.31,150Z"/><path class="cls-3" d="M370.78,144.26a4.78,4.78,0,0,0-2-.54c-.56,0-.67.7-.27,1a4.41,4.41,0,0,0,1.82.74C371,145.57,371.48,144.59,370.78,144.26Z"/><path class="cls-3" d="M431.63,356.54a35.16,35.16,0,0,0-2,8.06,1.18,1.18,0,0,0,.59,1l.24.13a1,1,0,0,0,1.41-.58c.47-1.18,1.26-2.22,1.79-3.38s1.05-2.49,1.58-3.74C436.4,355.4,432.47,353.79,431.63,356.54Z"/><path class="cls-3" d="M438.67,341.29a66.86,66.86,0,0,0-.1,7.08c0,.75,1.26,1,1.38.18a67.83,67.83,0,0,0,.71-7.26C440.71,340,438.77,340,438.67,341.29Z"/><path class="cls-3" d="M444.58,297.4a33.41,33.41,0,0,1-1.51-5.82c-.13-.77-1.45-.6-1.38.19a34.37,34.37,0,0,0,1.08,6.13C443.1,299.07,445,298.53,444.58,297.4Z"/><path class="cls-3" d="M445.06,302.2c-.15-.77-1.47-.61-1.39.18s.19,1.84.29,2.75a.82.82,0,1,0,1.61-.21Z"/><path class="cls-3" d="M405.64,226.37c-1.86-1.74-4-3.2-6.07-4.75-.47-.36-1.08.44-.64.83,1.92,1.69,3.78,3.53,5.86,5C405.44,228,406.21,226.91,405.64,226.37Z"/><path class="cls-3" d="M412.79,232.84a12.46,12.46,0,0,0-3.88-3.63c-.53-.31-1,.46-.47.81a11.14,11.14,0,0,1,3.13,3.53C412,234.34,413.3,233.58,412.79,232.84Z"/><path class="cls-3" d="M423.42,246.78a17,17,0,0,0-5-6.83.29.29,0,0,0-.42.41,33,33,0,0,1,4.25,6.92C422.54,247.93,423.7,247.45,423.42,246.78Z"/><path class="cls-3" d="M475.58,356.33c-.54,9.14-6,23.32-11.4,29.71-.91,1.09,1.56,2.34,2.11,1.73l.57-.62a152.16,152.16,0,0,0,13-31.53A2.22,2.22,0,0,0,475.58,356.33Z"/><path class="cls-3" d="M479.92,271.16a152.75,152.75,0,0,0-13.25-32,.58.58,0,0,0-1,.34c-.09,5.36,3.28,10.74,5.25,15.58,2.07,5.1,2.8,12.62,7,16.33a2.85,2.85,0,0,0,4.37-.62Z"/><path class="cls-3" d="M403.2,443.9c-8.63,7.54-16.59,9.93-27.16,13.32-2.17.69-2.29,3.27-1.13,3.38a152.38,152.38,0,0,0,31.94-13.24l0,.05a2.87,2.87,0,0,0,.55-1.21C407.73,444.14,404.89,442.43,403.2,443.9Z"/><path class="cls-3" d="M293.85,460.71c2.18-.51,2.39-3.5.61-4.6-5-3.09-11.59-3.72-17.19-5.45-6.28-1.94-12.61-4-19.09-5.19-.31-.06-.64.34-.35.59,1.12.95,2.37,1.95,3.71,3a152.37,152.37,0,0,0,28.91,11.6c0,.17-.05.34-.08.51A17.35,17.35,0,0,0,293.85,460.71Z"/><path class="cls-4" d="M407,171.11l-13.38,13.4s-16.56-11.86-16.5-14.42,12.08-15.56,15.45-15.46S407,171.11,407,171.11Z"/><path class="cls-4" d="M461.09,171.11l13.38,13.4S491,172.65,491,170.09s-12.08-15.56-15.45-15.46S461.09,171.11,461.09,171.11Z"/><rect class="cls-2" x="427.36" y="146.12" width="13.39" height="11.36"/><circle class="cls-4" cx="434.05" cy="215.37" r="61.36" transform="translate(-25.16 370) rotate(-45)"/><path class="cls-5" d="M377.63,218a61.31,61.31,0,0,0,30.3,52.93,61.37,61.37,0,1,1,57.15-108.48A61.38,61.38,0,0,0,377.63,218Z"/><path class="cls-6" d="M495.41,215.36a61.35,61.35,0,0,1-96.85,50.06,62.87,62.87,0,0,0,28.8,6.9c33.89,0,61.36-26.4,61.36-59s-27.47-59-61.36-59a59.21,59.21,0,0,1,6.69-.37A61.36,61.36,0,0,1,495.41,215.36Z"/><circle class="cls-2" cx="434.05" cy="215.37" r="45.8"/><circle class="cls-7" cx="434.05" cy="215.37" r="41.98"/><path class="cls-4" d="M443.43,149.6H424.49s-3.31-8.07-1.46-8.78,19.55-1,21.86,0S443.43,149.6,443.43,149.6Z"/><rect class="cls-2" x="437.79" y="184.44" width="4.77" height="34.93" rx="1.23" ry="1.23" transform="translate(113.59 -155.67) rotate(22.95)"/><circle class="cls-2" cx="434.05" cy="215.37" r="6.69"/><path class="cls-6" d="M429.66,270.39a15.22,15.22,0,0,1-4.32-.35.1.1,0,0,1,0-.2,15.23,15.23,0,0,1,4.32-.37A.46.46,0,0,1,429.66,270.39Zm6.15-1.63a17.37,17.37,0,0,1-2.21.74.11.11,0,0,0,0,.2,4.12,4.12,0,0,0,2.52-.19A.41.41,0,1,0,435.81,268.76Zm41.82-84.71a23.71,23.71,0,0,0-3.2-4.69c-.52-.6-1.35.27-.86.87a22.41,22.41,0,0,1,2.83,4.54C476.79,185.59,478.06,184.87,477.63,184.05Zm3.18,6.06c-.37-.68-.78-1.69-1.56-2a.07.07,0,0,0-.08.05c-.14.75.39,1.61.57,2.35.25,1,.47,2.07.64,3.11s1.63.56,1.48-.4A9.28,9.28,0,0,0,480.81,190.11ZM462,167.35a38.8,38.8,0,0,0-8.29-4.17c-.87-.33-1.42,1-.63,1.49a86.69,86.69,0,0,1,7.58,5C462,170.62,463.35,168.32,462,167.35Z"/><circle class="cls-8" cx="560.7" cy="77.4" r="19.73"/><circle class="cls-4" cx="560.7" cy="77.4" r="14.73"/><circle class="cls-7" cx="560.7" cy="77.4" r="13.5"/><rect class="cls-2" x="561.9" y="67.45" width="1.53" height="11.23" rx="0.43" ry="0.43" transform="translate(73.2 -213.92) rotate(22.99)"/><circle class="cls-2" cx="560.7" cy="77.4" r="2.15"/><circle class="cls-9" cx="76.77" cy="136.42" r="19.73" transform="translate(-36.6 28.48) rotate(-17.04)"/><path class="cls-2" d="M69.87,149.43a14.73,14.73,0,1,1,19.91-6.11A14.74,14.74,0,0,1,69.87,149.43Z"/><path class="cls-7" d="M70.44,148.34a13.5,13.5,0,1,1,18.26-5.59A13.5,13.5,0,0,1,70.44,148.34Z"/><rect class="cls-2" x="78.91" y="134.57" width="1.53" height="11.23" rx="0.43" ry="0.43" transform="translate(229.94 198.68) rotate(140.88)"/><path class="cls-2" d="M75.77,138.32a2.15,2.15,0,1,1,2.9-.9A2.15,2.15,0,0,1,75.77,138.32Z"/><circle class="cls-4" cx="574.01" cy="517.36" r="19.73" transform="translate(-102.72 890.44) rotate(-70.9)"/><path class="cls-2" d="M576.11,502.78a14.73,14.73,0,1,1-16.67,12.49A14.73,14.73,0,0,1,576.11,502.78Z"/><path class="cls-7" d="M575.94,504a13.5,13.5,0,1,1-15.29,11.44A13.5,13.5,0,0,1,575.94,504Z"/><rect class="cls-2" x="569.24" y="509.18" width="1.53" height="11.23" rx="0.43" ry="0.43" transform="translate(-165.32 736.64) rotate(-58.87)"/><path class="cls-2" d="M574.32,515.23a2.15,2.15,0,1,1-2.43,1.83A2.15,2.15,0,0,1,574.32,515.23Z"/><path class="cls-10" d="M332.26,309.9c-43.19,0-34.7,92.92-34.7,92.92s9,5.27,34,5.43c35.48.21,37.52-5.15,37.52-5.15S377.11,309.9,332.26,309.9Z"/><path class="cls-11" d="M325.9,312.48h13.57s.38,10.38-6.11,10.38S325.9,312.48,325.9,312.48Z"/><path class="cls-12" d="M332.33,418.75l-2,0c-16.32-.24-19.36,0-25.46-3.29-6.79-3.68-3.85-10.86-3.85-10.86s10.59,1,30.76.95c28.59,0,32.42-.95,32.42-.95s2.82,5.6-3.93,10.22C355.21,418.26,348.58,418.75,332.33,418.75Z"/><path class="cls-13" d="M332.88,324.9c-3.73,3.14-11.46,25-6.28,46.05,5,20.2,4.88,24.39,6.31,24.39s4-13,6.39-24.26C342,358.24,339.82,334.21,332.88,324.9Z"/><path class="cls-13" d="M328.11,321.76c2.83-3.31,5.87-2.93,9.06,0,0,0-1.57,8.62-4.53,8.62S328.11,321.76,328.11,321.76Z"/><polygon class="cls-14" points="319.01 312.48 322.34 324.49 331.92 319.42 319.01 312.48"/><polygon class="cls-14" points="346.27 312.48 342.94 324.49 333.37 319.42 346.27 312.48"/><path class="cls-11" d="M305.86,283.07c-6.44-7.53-12.73-3.22-9.85,5s11.47,6.74,11.47,6.74Z"/><path class="cls-11" d="M359.41,283.07c6.45-7.53,12.74-3.22,9.86,5s-10.48,6.62-10.48,6.62Z"/><path class="cls-15" d="M361.88,269.37s4.5,48.13-28.6,48.13-29.1-49.31-30.08-50.79C312.81,245,354.59,245,361.88,269.37Z"/><path class="cls-3" d="M298.77,260.25s-.06,20.73,7.05,30.87c0,0-2.58-20.18-1.8-27.38S298.77,260.25,298.77,260.25Z"/><path class="cls-3" d="M298.92,237.21c-6.25,5.66-13.15,38.71,17.45,33.07,26.51-4.89,40.14-6.4,43.43,4.28a31.34,31.34,0,0,1,.44,17.82s14.78-26.07,2.6-40.28c-17.56-20.5-43.77-6.66-52.76-8.89C301.92,241.18,298.92,237.21,298.92,237.21Z"/><path class="cls-16" d="M337.91,303.35c0,3.28-6.9,4.61-7.94,1.67-.12-.33-.59-.13-.56.17.47,4.88,9.42,3.6,10-1.87C339.59,302.21,337.89,302.21,337.91,303.35Z"/><path class="cls-17" d="M372.55,405.53H292.73a7.25,7.25,0,0,1-7.19-6.36l-6.67-54.83a7.24,7.24,0,0,1,7.18-8.11h93.18a7.24,7.24,0,0,1,7.18,8.11l-6.68,54.83A7.23,7.23,0,0,1,372.55,405.53Z"/><rect class="cls-3" x="316.37" y="290.39" width="5.92" height="7.4" rx="1.67" ry="1.67"/><rect class="cls-3" x="343.66" y="290.39" width="5.92" height="7.4" rx="1.67" ry="1.67"/><path class="cls-3" d="M320.68,283.49a2.74,2.74,0,0,0-2.8-1.49,3.11,3.11,0,0,0-2.39,1.69.18.18,0,0,0,.28.22,2.55,2.55,0,0,1,3.8.43C320.09,285,321.08,284.17,320.68,283.49Z"/><path class="cls-3" d="M349.24,283.27a3.59,3.59,0,0,0-5.84-.1c-.3.39.32.77.65.49a2.81,2.81,0,0,1,3.9.61C348.53,285,349.76,284.05,349.24,283.27Z"/><path class="cls-18" d="M322.83,526.91c-10.53,2.73-20.05,2.93-28.33,0,.7-38.69,3.79-75.65,10.18-110.23a12.15,12.15,0,0,1,12.1-11h0a12.14,12.14,0,0,1,12.12,12.82C323.94,451.66,322.44,488.33,322.83,526.91Z"/><path class="cls-12" d="M291.92,531.13c8.71,6.59,23.81,7.56,32.79,0,0,0,.82-17.94-16.39-17.94S291.92,531.13,291.92,531.13Z"/><path class="cls-18" d="M342.45,526.91c10.53,2.73,20.05,2.93,28.33,0-.7-38.69-3.79-75.65-10.19-110.23a12.13,12.13,0,0,0-12.09-11h0a12.14,12.14,0,0,0-12.12,12.82C341.34,451.66,342.84,488.33,342.45,526.91Z"/><path class="cls-12" d="M373.36,531.13c-8.71,6.59-23.81,7.56-32.79,0,0,0-.82-17.94,16.39-17.94S373.36,531.13,373.36,531.13Z"/><path class="cls-19" d="M342.25,369.73a9.61,9.61,0,1,1-9.61-9.61A9.62,9.62,0,0,1,342.25,369.73Z"/><g class="cls-20"><path class="cls-7" d="M146.57,465.38c-20.26-22.14-35.71-48.76-43.85-77.73a.24.24,0,0,0-.46.1c5.48,30.65,19.74,58.31,42.48,79.76C146.09,468.78,147.76,466.67,146.57,465.38Z"/><path class="cls-7" d="M110,454.33c-9-12.14-15.55-25.12-21.57-38.9-.25-.56-1.28-.44-1.14.25,3,15,10.5,28.68,20.3,40.31C108.75,457.4,111.11,455.87,110,454.33Z"/><path class="cls-7" d="M602.88,312.88a.41.41,0,0,0-.79.22,93,93,0,0,1-6.17,55.74c-.44,1,1,1.92,1.51.89C606.35,351.76,608,332.22,602.88,312.88Z"/><path class="cls-7" d="M617.21,321.78c-.2-1-1.65-.55-1.47.4a94.75,94.75,0,0,1,.49,30.8c-.15,1.1,1.51,1.59,1.7.47A85,85,0,0,0,617.21,321.78Z"/><path class="cls-7" d="M564.49,147.28a94.14,94.14,0,0,0-38.84-43.9c-.72-.43-1.33.65-.65,1.11a108.51,108.51,0,0,1,37.26,44.09C563,150.1,565.13,148.77,564.49,147.28Z"/><path class="cls-7" d="M569.05,135.09a66.7,66.7,0,0,0-32.82-36c-.8-.41-1.51.77-.71,1.21a72,72,0,0,1,31.38,35.36C567.45,137,569.57,136.44,569.05,135.09Z"/><path class="cls-7" d="M143,130.46c-16.14,14.82-31.83,30.17-38.23,51.75-.13.43.47.7.65.27,8.09-19.95,24-35.3,39.18-50C145.8,131.35,144.27,129.33,143,130.46Z"/><path class="cls-7" d="M118.77,134.85a152,152,0,0,0-26.35,41.24c-.54,1.26,1.36,2,2,.79A223,223,0,0,1,120,135.77C120.61,135,119.41,134.12,118.77,134.85Z"/><path class="cls-7" d="M339.54,16c-23.82-.61-46.44,3.83-68.74,12.15a.69.69,0,0,0,.37,1.32c22.24-6.18,45.31-9,68.37-9.81A1.83,1.83,0,0,0,339.54,16Z"/><path class="cls-7" d="M336.06,31.65a137.74,137.74,0,0,0-30.3,3c-1,.2-.55,1.62.41,1.47a185.62,185.62,0,0,1,29.89-2.13A1.15,1.15,0,0,0,336.06,31.65Z"/><path class="cls-7" d="M373.13,576.63a260.69,260.69,0,0,1-60.57,4.24c-1.69-.08-1.66,2.48,0,2.61a206.91,206.91,0,0,0,61.36-4C375.81,579.09,375,576.29,373.13,576.63Z"/><path class="cls-7" d="M388.67,590.58a398.39,398.39,0,0,1-66.18,4.75c-1.34,0-1.29,1.93,0,2a231.26,231.26,0,0,0,67.08-3.56C391.71,593.38,390.76,590.26,388.67,590.58Z"/><path class="cls-7" d="M550.36,490.15A86.86,86.86,0,0,1,531.68,514c-.67.61.32,1.57,1,1a80.56,80.56,0,0,0,18.9-24.17C552,490.06,550.78,489.35,550.36,490.15Z"/><path class="cls-7" d="M67.75,433a171,171,0,0,1-19.6-51.69c-.26-1.26-2.17-.76-1.93.5A153,153,0,0,0,66.12,434,.94.94,0,0,0,67.75,433Z"/><path class="cls-7" d="M130,77.54a120.14,120.14,0,0,0-25.9,22.66c-.44.51.28,1.25.74.75a139.55,139.55,0,0,1,26.05-21.89C131.8,78.44,130.92,76.92,130,77.54Z"/></g><path class="cls-4" d="M178.06,526.78c-1.24-.52-4.43.9-7.41,2.5a38.08,38.08,0,0,0-5.77-6.43c1.88-2.72,3.59-5.69,3.23-7.13-.75-3-16.17-10-18.75-9-1.25.51-2.5,3.77-3.47,7a38.2,38.2,0,0,0-8.63-.47c-.59-3.26-1.49-6.56-2.76-7.32-2.66-1.61-18.52,4.34-19.61,6.91-.52,1.23.9,4.42,2.5,7.4a38.26,38.26,0,0,0-6.44,5.79c-2.79-1.92-5.81-3.67-7.1-3.29-2.66.8-10.29,15.93-9,18.76.62,1.34,3.81,2.58,7,3.52a38.29,38.29,0,0,0-.47,8.64c-3.33.61-6.7,1.51-7.34,2.69-1.32,2.45,4,18.54,6.91,19.61,1.39.51,4.52-.87,7.43-2.45a38.13,38.13,0,0,0,5.78,6.43c-1.92,2.79-3.67,5.82-3.29,7.1.8,2.67,15.93,10.29,18.76,9,1.34-.62,2.58-3.81,3.52-7a37.71,37.71,0,0,0,8.64.47c.61,3.33,1.51,6.71,2.69,7.34,2.45,1.32,18.54-4,19.61-6.91.51-1.39-.87-4.52-2.45-7.43a38,38,0,0,0,6.42-5.77c2.72,1.89,5.69,3.6,7.13,3.24,3-.75,10-16.17,9-18.75-.5-1.25-3.76-2.5-7-3.47a37.63,37.63,0,0,0,.47-8.63c3.26-.59,6.56-1.49,7.33-2.76C186.58,543.73,180.62,527.87,178.06,526.78Zm-63.29,33.34a26.23,26.23,0,1,1,33.46,16A26.24,26.24,0,0,1,114.77,560.12Z"/><path class="cls-7" d="M248.75,549c-.87-.36-3.11.63-5.2,1.76a26.84,26.84,0,0,0-4.05-4.51c1.32-1.91,2.52-4,2.27-5-.53-2.13-11.35-7-13.16-6.31-.87.36-1.75,2.65-2.43,4.92a27.18,27.18,0,0,0-6.06-.33c-.41-2.28-1-4.6-1.93-5.14-1.87-1.13-13,3.05-13.76,4.85-.37.87.63,3.11,1.76,5.2a26.6,26.6,0,0,0-4.53,4.06c-1.95-1.35-4.07-2.58-5-2.31-1.87.56-7.22,11.18-6.3,13.16.44.94,2.68,1.82,4.91,2.47a26,26,0,0,0-.33,6.06c-2.34.43-4.71,1.06-5.15,1.89-.93,1.72,2.79,13,4.85,13.76,1,.36,3.17-.61,5.21-1.72a26.84,26.84,0,0,0,4,4.51c-1.34,2-2.57,4.08-2.3,5,.56,1.87,11.17,7.23,13.15,6.3.95-.43,1.82-2.67,2.48-4.9a26.54,26.54,0,0,0,6.05.33c.44,2.34,1.07,4.7,1.89,5.15,1.72.92,13-2.8,13.76-4.85.36-1-.6-3.17-1.71-5.21a27.16,27.16,0,0,0,4.5-4c1.91,1.33,4,2.52,5,2.27,2.12-.52,7-11.34,6.3-13.16-.35-.87-2.64-1.75-4.92-2.43a26.54,26.54,0,0,0,.34-6c2.28-.42,4.6-1,5.13-1.94C254.72,560.93,250.55,549.81,248.75,549Zm-44.4,23.4a18.4,18.4,0,1,1,23.47,11.24A18.4,18.4,0,0,1,204.35,572.44Z"/><polygon class="cls-7" points="476.44 51.65 467.91 39.92 473.57 26.58 491.53 24.52 485.87 37.87 494.4 49.59 476.44 51.65"/><circle class="cls-7" cx="416.53" cy="45.8" r="45.79" transform="translate(292.64 446.11) rotate(-79.08)"/><path class="cls-9" d="M397.5,80.64a39.7,39.7,0,1,1,53.87-15.8A39.74,39.74,0,0,1,397.5,80.64Zm32.73-59.92A28.58,28.58,0,1,0,441.61,59.5,28.61,28.61,0,0,0,430.23,20.72Z"/><circle class="cls-9" cx="416.53" cy="45.8" r="18.32" transform="translate(353.11 460.02) rotate(-87.57)"/><rect class="cls-7" x="416.31" y="39.98" width="69.79" height="3.71" transform="translate(-1.83 51.59) rotate(-6.53)"/><path class="cls-7" d="M60.78,235A41.61,41.61,0,1,1,11.54,267.2,41.66,41.66,0,0,1,60.78,235M63,224.55a52.26,52.26,0,1,0,40.48,61.84A52.25,52.25,0,0,0,63,224.55Z"/><path class="cls-2" d="M23.83,268.19,41,301.51a4.8,4.8,0,0,0,8.47.14c9.22-16.7,32.7-55.71,63.91-81.81,1.87-1.57-.23-4.64-2.26-3.28A215.34,215.34,0,0,0,44.58,288.5l-18.49-22A1.42,1.42,0,0,0,23.83,268.19Z"/><path class="cls-21" d="M531.73,399.53s-8.59,51.79-6.37,54.82S597.6,473.49,601.54,472s19.05-56.21,19.05-56.21Z"/><path class="cls-22" d="M568.56,448.63c-2.66,0-36.83-49.1-36.83-49.1l88.86,16.26S571.22,448.63,568.56,448.63Z"/><path class="cls-23" d="M568.56,444.13c-3.38,0-36.83-44.6-36.83-44.6l88.86,16.26S571.93,444.13,568.56,444.13Z"/><rect class="cls-7" x="551.19" y="217.8" width="18.17" height="31.43" rx="4.18" ry="4.18" transform="translate(157.09 -220.22) rotate(25.75)"/><rect class="cls-7" x="581.52" y="214.62" width="18.17" height="48.31" rx="4.02" ry="4.02" transform="translate(162.39 -232.88) rotate(25.75)"/><rect class="cls-7" x="611.75" y="211.91" width="22.89" height="65.78" rx="4.58" ry="4.58" transform="translate(168.25 -246.45) rotate(25.75)"/><path class="cls-4" d="M664.13,183.78l-18.79-.88,3.78,7.17-29.93,15.5-4.31-16.11a2,2,0,0,0-2.93-1.22l-22.49,12.95-4.09-10.37a2,2,0,0,0-1.2-1.15,2,2,0,0,0-1.66.16l-19.78,11.39a2,2,0,1,0,2,3.46l17.77-10.23,4.09,10.36a2,2,0,0,0,1.2,1.15,2,2,0,0,0,1.66-.15L611.69,193,616,209a2,2,0,0,0,1.13,1.31,2.06,2.06,0,0,0,.81.17,2,2,0,0,0,.92-.23L651,193.6l3.14,5.94,7.15-11.27.08,0a2,2,0,0,0,1.07-1.77Z"/><path class="cls-7" d="M478.46,529,435.2,543.9c4.63,13.49,21.56,16.66,23.58,22.53,2.25,6.53-10.54,15.4-4.75,32.26l43.27-14.88c-5.79-16.85-21.34-16-23.58-22.52C471.7,555.42,483.1,542.51,478.46,529Z"/><path class="cls-23" d="M460,590.46c-.39-5.57,1.65-9.87,3.51-13.79,1.94-4.1,3.95-8.34,2.45-12.7-1.36-4-5.53-6.49-9.94-9.15-3.73-2.25-7.81-4.71-10.69-8.2l26.87-9.24c-.13,4.52-1.83,9-3.39,13-1.84,4.81-3.58,9.36-2.22,13.33,1.5,4.36,5.7,6.47,9.75,8.51,3.87,2,8.13,4.09,11.25,8.72Z"/><rect class="cls-2" x="423.69" y="530.06" width="64.14" height="6.58" rx="1.86" ry="1.86" transform="translate(-148.65 177.16) rotate(-18.97)"/><rect class="cls-2" x="444.67" y="591.07" width="64.14" height="6.58" rx="1.86" ry="1.86" transform="translate(-167.35 187.3) rotate(-18.97)"/><path class="cls-2" d="M222,119.27c-8.77,6.33-17.92,9.22-27.64,8.39L184.42,95l27.64-8.39Z"/><circle class="cls-4" cx="190.4" cy="65.02" r="41.1" transform="translate(21.64 174.56) rotate(-51.84)"/><path class="cls-4" d="M203.23,111.29a53.68,53.68,0,0,1-14,2.39,2,2,0,0,1-.12-3.92c8.49-.26,17.35-3,27.08-8.25A2,2,0,0,1,218,105,79.57,79.57,0,0,1,203.23,111.29Z"/><path class="cls-4" d="M205,117.1a53.68,53.68,0,0,1-14,2.39,2,2,0,0,1-.12-3.92c8.5-.26,17.36-3,27.08-8.25a2,2,0,1,1,1.88,3.44A79.07,79.07,0,0,1,205,117.1Z"/><path class="cls-4" d="M206.75,122.91a53.18,53.18,0,0,1-14,2.38,2,2,0,1,1-.12-3.91c8.49-.26,17.35-3,27.08-8.25a2,2,0,1,1,1.87,3.44A79.07,79.07,0,0,1,206.75,122.91Z"/><path class="cls-24" d="M198.6,57.79c-10.44.81-20.43,7.66-19.22,13.9,1,4.88,3.07,4.57,5.2,4.94,5.18.89,19.24-4,17.83-8.68-1.54-5.05-13.09-.33-18.09,2.88-4.72,3-4.73,6.94-2.82,10.21s6.61,3.37,10.38,2.73c2.79-.48,14.59-3.64,13.1-6.34-.62-1.13-5.37-2-10.56,0-10.36,4-10.59,7.08-10.53,8.64.13,3.44,3.46,6,11.86,2.6,3.62-1.48,3.48,7,6,13.94"/><path class="cls-25" d="M182.39,29.22c-5,1-5.22,5,.89,4.93C197.85,34,215.41,46.68,219.77,60c1.55,4.72,5.25,3.56,4.68-.61C221.81,40.28,203.86,25,182.39,29.22Z"/><path class="cls-7" d="M149.14,184.34A5.15,5.15,0,1,1,144,179.2,5.15,5.15,0,0,1,149.14,184.34Z"/><path class="cls-7" d="M288,600a5.14,5.14,0,1,1-5.14-5.14A5.15,5.15,0,0,1,288,600Z"/><path class="cls-7" d="M510.12,73.9A5.14,5.14,0,1,1,505,68.76,5.14,5.14,0,0,1,510.12,73.9Z"/><path class="cls-7" d="M633.06,169.47a5.14,5.14,0,1,1-5.14-5.14A5.14,5.14,0,0,1,633.06,169.47Z"/><path class="cls-7" d="M42.5,424.2a5.14,5.14,0,1,1-5.14-5.14A5.14,5.14,0,0,1,42.5,424.2Z"/><path class="cls-7" d="M537.07,555.28a5.14,5.14,0,1,1-5.14-5.14A5.14,5.14,0,0,1,537.07,555.28Z"/><path class="cls-7" d="M597.5,384a5.14,5.14,0,1,1-5.14-5.14A5.14,5.14,0,0,1,597.5,384Z"/><path class="cls-7" d="M52.78,169.47a5.14,5.14,0,1,1-5.14-5.14A5.14,5.14,0,0,1,52.78,169.47Z"/><path class="cls-7" d="M295.68,62.7a5.14,5.14,0,1,1-5.14-5.14A5.14,5.14,0,0,1,295.68,62.7Z"/><path class="cls-8" d="M557,364.93a4.4,4.4,0,1,1,6.09,1.32A4.39,4.39,0,0,1,557,364.93Z"/><path class="cls-8" d="M238.88,102.63A4.4,4.4,0,1,1,245,104,4.41,4.41,0,0,1,238.88,102.63Z"/><path class="cls-8" d="M329.66,622.64a4.41,4.41,0,1,1,6.09,1.31A4.4,4.4,0,0,1,329.66,622.64Z"/><path class="cls-8" d="M175,606.5a4.41,4.41,0,1,1,6.09,1.32A4.42,4.42,0,0,1,175,606.5Z"/><path class="cls-8" d="M492.18,104.64a4.4,4.4,0,1,1,6.09,1.32A4.41,4.41,0,0,1,492.18,104.64Z"/><path class="cls-8" d="M82.92,199.08A4.41,4.41,0,1,1,89,200.4,4.41,4.41,0,0,1,82.92,199.08Z"/><circle class="cls-8" cx="67.89" cy="387.5" r="4.4" transform="translate(-244.36 148.19) rotate(-42.6)"/><path class="cls-8" d="M623.59,311.25a4.41,4.41,0,1,1,6.09,1.32A4.42,4.42,0,0,1,623.59,311.25Z"/><path class="cls-8" d="M483.33,506.67a4.4,4.4,0,1,1,6.08,1.32A4.41,4.41,0,0,1,483.33,506.67Z"/><path class="cls-4" d="M285.87,569.28a3.46,3.46,0,1,1-.65,4.85A3.47,3.47,0,0,1,285.87,569.28Z"/><path class="cls-4" d="M585.12,299.75a3.46,3.46,0,1,1-.65,4.84A3.46,3.46,0,0,1,585.12,299.75Z"/><path class="cls-4" d="M87.47,360.83a3.45,3.45,0,1,1-.65,4.84A3.45,3.45,0,0,1,87.47,360.83Z"/><path class="cls-4" d="M60.48,205.71a3.46,3.46,0,1,1-.65,4.84A3.46,3.46,0,0,1,60.48,205.71Z"/><path class="cls-4" d="M524.7,464.6a3.45,3.45,0,1,1-.66,4.84A3.45,3.45,0,0,1,524.7,464.6Z"/><path class="cls-4" d="M369,103.38a3.46,3.46,0,1,1-.65,4.85A3.45,3.45,0,0,1,369,103.38Z"/><path class="cls-4" d="M271.76,77.48a3.45,3.45,0,1,1-.65,4.84A3.45,3.45,0,0,1,271.76,77.48Z"/><path class="cls-4" d="M360.24,547a3.46,3.46,0,1,1-.65,4.84A3.46,3.46,0,0,1,360.24,547Z"/><path class="cls-4" d="M193,507a3.46,3.46,0,1,1-.65,4.85A3.47,3.47,0,0,1,193,507Z"/><path class="cls-7" d="M170.93,489.8a5.14,5.14,0,1,1-5.14-5.14A5.14,5.14,0,0,1,170.93,489.8Z"/><path class="cls-7" d="M80.57,477.36a7.55,7.55,0,0,1-2.13,5.38A7,7,0,0,1,73.18,485a7.65,7.65,0,0,1-5.05-1.81,5.91,5.91,0,0,1-2.28-4.7,9.67,9.67,0,0,1,2.07-5.39c1.46-2.1,3-3.14,4.52-3.14a8.58,8.58,0,0,1,5.79,2A6.76,6.76,0,0,1,80.57,477.36Zm-4.48,0a2.58,2.58,0,0,0-.85-1.94,2.85,2.85,0,0,0-2-.8A2.45,2.45,0,0,0,71,475.94a5.38,5.38,0,0,0-.63,2.71,1.6,1.6,0,0,0,.91,1.45,3.3,3.3,0,0,0,1.72.43,2.9,2.9,0,0,0,2.2-1A3.12,3.12,0,0,0,76.09,477.34ZM92,472.14a3.14,3.14,0,0,1-.31,1.15,48.41,48.41,0,0,1-3.08,6.1q-3.06,5.24-3.45,6-1.92,4.15-6,12.31c-.65,1.13-1.36,1.7-2.12,1.7a2.25,2.25,0,0,1-1.59-.68,2.07,2.07,0,0,1-.71-1.56q0-1.47,8.6-17.74.55-1,3.17-6c.27-.53.72-1.31,1.36-2.35A2.37,2.37,0,0,1,89.73,470a2.22,2.22,0,0,1,1.59.63A2.09,2.09,0,0,1,92,472.14Zm7.86,19.58a7.46,7.46,0,0,1-2.2,5.39,7.2,7.2,0,0,1-5.34,2.26,7.51,7.51,0,0,1-4.89-1.62,5.55,5.55,0,0,1-2.16-4.57,8,8,0,0,1,2.24-5.45,6.82,6.82,0,0,1,5.18-2.48,7.4,7.4,0,0,1,4.87,1.88A5.9,5.9,0,0,1,99.84,491.72Zm-4.63.88a2.94,2.94,0,0,0-.83-2.07,2.58,2.58,0,0,0-1.95-.88,2.64,2.64,0,0,0-2,.93,3,3,0,0,0-.85,2.07,2.74,2.74,0,0,0,.83,2,2.8,2.8,0,0,0,4,0A2.8,2.8,0,0,0,95.21,492.6Z"/><path class="cls-7" d="M558.18,166.91a2.34,2.34,0,0,1-.74,1.69,2.29,2.29,0,0,1-1.68.75,2.07,2.07,0,0,1-.92-.5c-.63-.49-1.11-.83-1.43-1a5.17,5.17,0,0,0-2.11-.34c-.18,1.92-.32,3.44-.42,4.55q7.14,2.4,7.14,6.77,0,5.4-8.63,6a22.26,22.26,0,0,1-.44,3.06,2.24,2.24,0,0,1-2.27,1.73q-2.19,0-2.19-2.7a12.57,12.57,0,0,1,.28-2.07c-1.84-.07-3-.13-3.47-.17a13.72,13.72,0,0,1-3.38-.73,2.27,2.27,0,0,1-1.7-2.17,2.15,2.15,0,0,1,.68-1.59,2.24,2.24,0,0,1,1.61-.66,18,18,0,0,1,3.08.4,20.06,20.06,0,0,0,3.8.4c.26-2.16.44-3.81.55-5Q538,173.27,538,169.5c0-1.84,1-3.35,3.14-4.52a17.91,17.91,0,0,1,5.67-1.85,8,8,0,0,1,.37-2.44,2.08,2.08,0,0,1,2.07-1.07,2.29,2.29,0,0,1,1.59.63,2,2,0,0,1,.69,1.5c0,.35,0,.75,0,1.21a12.67,12.67,0,0,1,4.06,1.12C557.31,164.87,558.18,165.81,558.18,166.91Zm-11.65.9a8.66,8.66,0,0,0-3.58,1.47,14.79,14.79,0,0,0,3.4,1.39C546.4,170,546.46,169,546.53,167.81Zm7,11.3c0-.82-1-1.64-3.12-2.44l-.42,3.54h.13C552.38,180.21,553.52,179.84,553.52,179.11Z"/><path class="cls-7" d="M184.7,152.1a11.65,11.65,0,0,1-1.19,5.33q-1.53,2.9-4.21,2.89a4,4,0,0,1-2.54-.86,4.28,4.28,0,0,1-1.5-2.29,3.64,3.64,0,0,1-2.51,1,4,4,0,0,1-3-1.34,4.35,4.35,0,0,1-1.26-3.07,6.46,6.46,0,0,1,1.88-4.38,5.57,5.57,0,0,1,4.19-2.07,4.23,4.23,0,0,1,2.34.74,2.35,2.35,0,0,1,1.26,2,1.35,1.35,0,0,1-.28.84,1.79,1.79,0,0,1,1,1.79,8.89,8.89,0,0,1-.22,1.65,8.65,8.65,0,0,0-.22,1.62c0,.9.39,1.34,1.18,1.34q1.57,0,1.57-4.57,0-7.26-6.69-7.26a8.85,8.85,0,0,0-5.84,2.7q-3,2.7-3,5.53,0,7.89,6.9,7.89a7.64,7.64,0,0,0,1.07-.1,6.5,6.5,0,0,1,1.08-.11,1.79,1.79,0,0,1,1.22.45,1.43,1.43,0,0,1,.52,1.14,1.84,1.84,0,0,1-1.21,1.72,8.16,8.16,0,0,1-3,.34,9.56,9.56,0,0,1-7.23-3,10.11,10.11,0,0,1-2.8-7.3,12.21,12.21,0,0,1,3.71-8.85,11.88,11.88,0,0,1,8.76-3.76,9.69,9.69,0,0,1,10,10Zm-8.92-.62a3.47,3.47,0,0,0-1.45-.85,2.16,2.16,0,0,0-1.86,1.17,4,4,0,0,0-.66,2.2c0,.55.35.82,1.06.82a2.46,2.46,0,0,0,1.91-1.19A5.88,5.88,0,0,0,175.78,151.48Z"/></g></g></g></svg>